%TF.GenerationSoftware,KiCad,Pcbnew,9.0.7*%
%TF.CreationDate,2026-02-09T12:59:15-05:00*%
%TF.ProjectId,led-planets,6c65642d-706c-4616-9e65-74732e6b6963,rev?*%
%TF.SameCoordinates,Original*%
%TF.FileFunction,Legend,Bot*%
%TF.FilePolarity,Positive*%
%FSLAX46Y46*%
G04 Gerber Fmt 4.6, Leading zero omitted, Abs format (unit mm)*
G04 Created by KiCad (PCBNEW 9.0.7) date 2026-02-09 12:59:15*
%MOMM*%
%LPD*%
G01*
G04 APERTURE LIST*
%ADD10C,0.600000*%
G04 APERTURE END LIST*
D10*
G36*
X110074511Y-52425094D02*
G01*
X110045019Y-52425094D01*
X110022121Y-52425094D01*
X110003070Y-52425094D01*
X109987133Y-52423079D01*
X109962403Y-52420881D01*
X109995376Y-52583363D01*
X110022670Y-52730092D01*
X110120763Y-53167485D01*
X110215928Y-53513745D01*
X110325681Y-53838429D01*
X110451133Y-54146456D01*
X110465788Y-54175765D01*
X110476046Y-54200678D01*
X110631561Y-54509098D01*
X110806612Y-54806703D01*
X111001596Y-55094057D01*
X111215003Y-55368242D01*
X111429285Y-55606182D01*
X111644565Y-55810849D01*
X111856058Y-55976902D01*
X112084569Y-56111817D01*
X112325977Y-56214184D01*
X112566521Y-56278147D01*
X112720211Y-56303426D01*
X112874084Y-56311852D01*
X113068829Y-56300898D01*
X113261464Y-56268010D01*
X113453122Y-56212751D01*
X113637119Y-56136494D01*
X113805852Y-56041770D01*
X113960720Y-55928269D01*
X114077701Y-55813718D01*
X114172137Y-55688005D01*
X114245568Y-55549998D01*
X114297782Y-55402406D01*
X114329596Y-55244680D01*
X114340457Y-55075006D01*
X114325608Y-54891765D01*
X114282288Y-54724967D01*
X114211003Y-54571567D01*
X114110482Y-54429231D01*
X113977756Y-54296482D01*
X113788539Y-54163122D01*
X113576656Y-54066924D01*
X113337927Y-54007429D01*
X113066974Y-53986721D01*
X112833111Y-54000561D01*
X112580879Y-54043745D01*
X112307684Y-54119345D01*
X112041680Y-54218105D01*
X111768013Y-54344202D01*
X111485746Y-54499631D01*
X111336819Y-54594153D01*
X111180198Y-54697651D01*
X111421999Y-54855921D01*
X111624220Y-54717731D01*
X111844234Y-54589574D01*
X112072666Y-54475862D01*
X112301090Y-54380013D01*
X112557311Y-54289788D01*
X112805940Y-54223026D01*
X113050098Y-54179691D01*
X113255835Y-54166423D01*
X113463116Y-54181560D01*
X113644719Y-54224897D01*
X113804791Y-54294606D01*
X113946615Y-54390638D01*
X114067568Y-54512437D01*
X114151568Y-54646420D01*
X114202164Y-54795280D01*
X114219556Y-54963265D01*
X114217541Y-55017121D01*
X114211130Y-55070976D01*
X114184072Y-55209155D01*
X114134614Y-55348049D01*
X114060921Y-55488998D01*
X113969490Y-55619214D01*
X113863931Y-55733196D01*
X113743466Y-55832098D01*
X113616153Y-55907699D01*
X113444696Y-55979743D01*
X113260331Y-56035474D01*
X113070272Y-56073532D01*
X112925924Y-56092400D01*
X112785790Y-56098628D01*
X112513763Y-56078146D01*
X112254582Y-56017339D01*
X112005158Y-55915745D01*
X111762941Y-55771036D01*
X111526046Y-55579124D01*
X111322893Y-55368348D01*
X111126233Y-55115259D01*
X110936246Y-54814861D01*
X110753590Y-54461478D01*
X110579361Y-54048820D01*
X110539610Y-53931950D01*
X110499677Y-53814713D01*
X110447470Y-53629150D01*
X110407536Y-53451646D01*
X110332065Y-53068979D01*
X110306969Y-52946247D01*
X110306969Y-52944232D01*
X110306969Y-52942034D01*
X110296345Y-52890560D01*
X110277477Y-52796770D01*
X110260807Y-52724780D01*
X110256594Y-52681732D01*
X110251648Y-52683381D01*
X110252381Y-52678984D01*
X110250366Y-52654987D01*
X110245420Y-52626594D01*
X110302756Y-52634105D01*
X110350750Y-52638318D01*
X110384822Y-52642348D01*
X110422923Y-52642348D01*
X110615814Y-52638318D01*
X110750163Y-52651765D01*
X110861991Y-52689837D01*
X110955983Y-52751341D01*
X111029408Y-52834227D01*
X111073212Y-52931597D01*
X111088424Y-53048096D01*
X111082196Y-53127780D01*
X111063694Y-53203251D01*
X111026739Y-53281911D01*
X110967890Y-53369398D01*
X110783792Y-53570165D01*
X110684507Y-53675678D01*
X110631385Y-53769284D01*
X110618562Y-53814347D01*
X110614166Y-53863623D01*
X110618379Y-53916746D01*
X110626988Y-53973715D01*
X110673040Y-54096480D01*
X110745690Y-54215150D01*
X110837060Y-54314350D01*
X110928506Y-54371953D01*
X110969356Y-54384959D01*
X111010388Y-54389173D01*
X111108454Y-54369574D01*
X111184778Y-54311870D01*
X111233968Y-54225845D01*
X111251273Y-54114766D01*
X111251273Y-54095532D01*
X111243763Y-54055048D01*
X111168119Y-54147195D01*
X111106010Y-54202144D01*
X111040258Y-54236598D01*
X110976866Y-54247390D01*
X110898640Y-54233659D01*
X110840579Y-54194633D01*
X110803063Y-54134492D01*
X110789654Y-54052117D01*
X110791669Y-54013466D01*
X110801927Y-53979028D01*
X110824200Y-53930883D01*
X110862011Y-53879743D01*
X110989323Y-53750600D01*
X111029439Y-53712498D01*
X111065160Y-53674030D01*
X111146790Y-53568160D01*
X111198700Y-53465202D01*
X111228330Y-53353725D01*
X111238817Y-53221936D01*
X111223761Y-53062850D01*
X111179537Y-52917292D01*
X111105807Y-52782183D01*
X110999947Y-52655354D01*
X110872828Y-52549431D01*
X110737928Y-52475769D01*
X110593117Y-52431661D01*
X110435380Y-52416667D01*
X110349284Y-52416667D01*
X110246336Y-52420881D01*
X110223438Y-52420881D01*
X110204570Y-52420881D01*
X110173063Y-52420881D01*
X110141006Y-52420881D01*
X110101622Y-52425094D01*
X110074511Y-52425094D01*
G37*
G36*
X108946292Y-54916737D02*
G01*
X108902328Y-54980118D01*
X109020226Y-55056974D01*
X109166111Y-55127030D01*
X109325006Y-55185198D01*
X109508845Y-55238405D01*
X109489160Y-55121173D01*
X109438686Y-54947878D01*
X109367178Y-54760424D01*
X109258801Y-54521430D01*
X109401500Y-54691240D01*
X109556838Y-54840533D01*
X109757365Y-55011277D01*
X109940238Y-55135457D01*
X110121158Y-55221769D01*
X110245054Y-55245000D01*
X110307767Y-55232052D01*
X110352215Y-55194808D01*
X110379191Y-55137977D01*
X110389401Y-55054490D01*
X110374563Y-54907028D01*
X110334446Y-54759384D01*
X110250298Y-54578254D01*
X110130424Y-54397637D01*
X109970277Y-54216136D01*
X109764017Y-54032883D01*
X109542392Y-53874110D01*
X109317369Y-53746841D01*
X109087943Y-53649083D01*
X108852869Y-53579508D01*
X108667672Y-53545985D01*
X108482292Y-53533346D01*
X108428070Y-53547451D01*
X108409202Y-53589583D01*
X108422208Y-53641606D01*
X108455364Y-53717077D01*
X108459944Y-53732648D01*
X108470568Y-53751332D01*
X108579562Y-53736128D01*
X108675549Y-53725504D01*
X108709071Y-53725504D01*
X108742594Y-53725504D01*
X108930656Y-53735589D01*
X109099095Y-53764578D01*
X109250375Y-53811050D01*
X109394052Y-53877299D01*
X109538055Y-53967498D01*
X109683234Y-54084174D01*
X109716573Y-54111102D01*
X109749912Y-54142426D01*
X109848806Y-54245267D01*
X109931995Y-54348872D01*
X110063520Y-54563379D01*
X110126168Y-54737951D01*
X110146868Y-54908128D01*
X110138161Y-54976043D01*
X110114811Y-55023532D01*
X110077610Y-55055070D01*
X110031097Y-55065481D01*
X109963631Y-55050012D01*
X109861837Y-54990743D01*
X109759728Y-54908021D01*
X109649162Y-54798585D01*
X109479535Y-54597817D01*
X109335188Y-54375800D01*
X109266128Y-54248122D01*
X109209708Y-54128871D01*
X109157318Y-53976280D01*
X109111522Y-53802807D01*
X109063965Y-53841415D01*
X109035319Y-53882857D01*
X109019815Y-53933236D01*
X109013703Y-54009436D01*
X109025339Y-54111561D01*
X109062430Y-54223576D01*
X109120957Y-54334258D01*
X109208609Y-54456767D01*
X109181864Y-54454752D01*
X109146510Y-54448524D01*
X109079832Y-54434052D01*
X108966076Y-54397965D01*
X108978349Y-54425076D01*
X108984760Y-54439914D01*
X109008025Y-54492304D01*
X109060231Y-54620165D01*
X109160798Y-54860867D01*
X109181498Y-54953740D01*
X109166660Y-54989460D01*
X109133688Y-55002466D01*
X109065910Y-54979935D01*
X108946292Y-54916737D01*
G37*
G36*
X107359935Y-54930109D02*
G01*
X107320184Y-54995505D01*
X107457795Y-55083674D01*
X107594408Y-55151577D01*
X107740277Y-55203608D01*
X107917358Y-55246282D01*
X107915160Y-55210928D01*
X107908749Y-55178688D01*
X107858373Y-54987629D01*
X107761653Y-54728975D01*
X107652477Y-54481130D01*
X107517838Y-54207822D01*
X107471859Y-54123192D01*
X107429910Y-54034349D01*
X107383565Y-53949719D01*
X107331725Y-53838527D01*
X107317253Y-53783023D01*
X107328244Y-53746936D01*
X107357554Y-53733930D01*
X107411834Y-53750277D01*
X107526814Y-53824239D01*
X107647647Y-53922130D01*
X107785650Y-54049919D01*
X107894644Y-54164042D01*
X107999424Y-54282377D01*
X108146967Y-54472129D01*
X108284272Y-54684096D01*
X108408006Y-54909852D01*
X108524607Y-55156889D01*
X108543841Y-55158904D01*
X108559961Y-55164949D01*
X108660894Y-55196639D01*
X108821545Y-55260020D01*
X108787656Y-55217522D01*
X108777398Y-55190594D01*
X108758347Y-55145898D01*
X108739480Y-55101202D01*
X108596781Y-54773489D01*
X108403890Y-54305825D01*
X108269801Y-53955214D01*
X108243245Y-53859112D01*
X108236278Y-53800059D01*
X108249651Y-53751149D01*
X108289218Y-53733930D01*
X108295629Y-53733930D01*
X108301857Y-53733930D01*
X108344539Y-53742356D01*
X108449136Y-53773497D01*
X108463974Y-53694180D01*
X108418911Y-53682639D01*
X108383190Y-53672015D01*
X108240858Y-53626219D01*
X108106768Y-53575661D01*
X108012430Y-53538108D01*
X107908016Y-53493595D01*
X107901421Y-53521988D01*
X107901421Y-53539207D01*
X107916810Y-53643267D01*
X107981472Y-53851533D01*
X108072585Y-54082538D01*
X108205320Y-54374518D01*
X107839206Y-53982578D01*
X107555757Y-53729534D01*
X107359108Y-53593545D01*
X107213628Y-53526914D01*
X107105678Y-53508250D01*
X107061178Y-53515810D01*
X107028192Y-53537192D01*
X107006668Y-53570194D01*
X106999066Y-53614678D01*
X107009314Y-53688012D01*
X107047609Y-53800425D01*
X107268344Y-54251786D01*
X107327145Y-54366092D01*
X107389977Y-54496884D01*
X107398586Y-54512454D01*
X107406646Y-54526742D01*
X107476072Y-54670540D01*
X107536889Y-54801699D01*
X107578471Y-54895854D01*
X107590928Y-54955755D01*
X107577738Y-54994040D01*
X107542201Y-55009061D01*
X107495306Y-54998803D01*
X107431193Y-54975722D01*
X107398403Y-54957220D01*
X107359935Y-54930109D01*
G37*
G36*
X105727416Y-54930109D02*
G01*
X105687665Y-54995505D01*
X105825276Y-55083674D01*
X105961889Y-55151577D01*
X106107758Y-55203608D01*
X106284839Y-55246282D01*
X106282641Y-55210928D01*
X106276229Y-55178688D01*
X106225854Y-54987629D01*
X106129134Y-54728975D01*
X106019958Y-54481130D01*
X105885319Y-54207822D01*
X105839340Y-54123192D01*
X105797391Y-54034349D01*
X105751046Y-53949719D01*
X105699206Y-53838527D01*
X105684734Y-53783023D01*
X105695725Y-53746936D01*
X105725034Y-53733930D01*
X105779315Y-53750277D01*
X105894295Y-53824239D01*
X106015128Y-53922130D01*
X106153131Y-54049919D01*
X106262124Y-54164042D01*
X106366905Y-54282377D01*
X106514448Y-54472129D01*
X106651753Y-54684096D01*
X106775487Y-54909852D01*
X106892088Y-55156889D01*
X106911322Y-55158904D01*
X106927442Y-55164949D01*
X107028375Y-55196639D01*
X107189026Y-55260020D01*
X107155137Y-55217522D01*
X107144879Y-55190594D01*
X107125828Y-55145898D01*
X107106960Y-55101202D01*
X106964261Y-54773489D01*
X106771371Y-54305825D01*
X106637281Y-53955214D01*
X106610726Y-53859112D01*
X106603759Y-53800059D01*
X106617131Y-53751149D01*
X106656699Y-53733930D01*
X106663110Y-53733930D01*
X106669338Y-53733930D01*
X106712020Y-53742356D01*
X106816617Y-53773497D01*
X106831454Y-53694180D01*
X106786392Y-53682639D01*
X106750671Y-53672015D01*
X106608339Y-53626219D01*
X106474249Y-53575661D01*
X106379910Y-53538108D01*
X106275497Y-53493595D01*
X106268902Y-53521988D01*
X106268902Y-53539207D01*
X106284291Y-53643267D01*
X106348953Y-53851533D01*
X106440066Y-54082538D01*
X106572801Y-54374518D01*
X106206687Y-53982578D01*
X105923237Y-53729534D01*
X105726589Y-53593545D01*
X105581109Y-53526914D01*
X105473159Y-53508250D01*
X105428659Y-53515810D01*
X105395673Y-53537192D01*
X105374149Y-53570194D01*
X105366547Y-53614678D01*
X105376795Y-53688012D01*
X105415090Y-53800425D01*
X105635825Y-54251786D01*
X105694626Y-54366092D01*
X105757458Y-54496884D01*
X105766067Y-54512454D01*
X105774127Y-54526742D01*
X105843553Y-54670540D01*
X105904370Y-54801699D01*
X105945952Y-54895854D01*
X105958408Y-54955755D01*
X105945219Y-54994040D01*
X105909682Y-55009061D01*
X105862787Y-54998803D01*
X105798674Y-54975722D01*
X105765884Y-54957220D01*
X105727416Y-54930109D01*
G37*
G36*
X104340910Y-54321945D02*
G01*
X104315631Y-54371221D01*
X104309036Y-54400896D01*
X104304823Y-54418299D01*
X104304823Y-54435884D01*
X104314999Y-54509521D01*
X104349337Y-54599649D01*
X104401023Y-54689720D01*
X104474084Y-54788143D01*
X104543876Y-54861966D01*
X104621545Y-54931392D01*
X104808732Y-55083776D01*
X104971606Y-55184183D01*
X105133420Y-55249575D01*
X105259202Y-55268447D01*
X105361094Y-55249588D01*
X105437622Y-55195357D01*
X105486498Y-55111914D01*
X105504300Y-54994406D01*
X105483234Y-54794188D01*
X105424249Y-54585727D01*
X105334707Y-54384206D01*
X105213773Y-54184192D01*
X105067840Y-54000145D01*
X104901997Y-53841458D01*
X104771571Y-53744738D01*
X104636566Y-53660657D01*
X104400444Y-53559541D01*
X104288290Y-53530490D01*
X104193265Y-53521622D01*
X104121262Y-53530073D01*
X104071816Y-53552397D01*
X104039271Y-53590066D01*
X104027852Y-53645087D01*
X104053497Y-53745471D01*
X104125671Y-53861791D01*
X104224956Y-53969136D01*
X104345306Y-54063658D01*
X104448621Y-54122459D01*
X104564576Y-54172834D01*
X104718632Y-54227423D01*
X104839532Y-54248489D01*
X104888260Y-54241568D01*
X104924895Y-54222294D01*
X104953884Y-54189242D01*
X104982597Y-54130886D01*
X104899982Y-54138213D01*
X104847958Y-54140228D01*
X104841730Y-54140228D01*
X104835319Y-54140228D01*
X104824877Y-54140228D01*
X104810406Y-54140228D01*
X104688616Y-54123879D01*
X104573489Y-54086286D01*
X104463276Y-54026655D01*
X104366403Y-53948191D01*
X104311052Y-53873214D01*
X104287238Y-53799326D01*
X104287238Y-53789251D01*
X104287238Y-53778810D01*
X104295348Y-53740272D01*
X104318928Y-53712315D01*
X104354788Y-53695160D01*
X104407222Y-53688684D01*
X104529221Y-53711582D01*
X104655983Y-53775696D01*
X104787325Y-53877728D01*
X104910423Y-54013283D01*
X105040116Y-54205258D01*
X105140317Y-54409872D01*
X105188983Y-54535798D01*
X105224214Y-54658267D01*
X105246426Y-54779455D01*
X105253340Y-54885230D01*
X105241153Y-54975685D01*
X105208827Y-55036355D01*
X105156360Y-55075216D01*
X105082981Y-55088928D01*
X104973438Y-55070427D01*
X104859316Y-55018403D01*
X104721106Y-54912640D01*
X104577581Y-54751140D01*
X104453137Y-54558840D01*
X104340910Y-54321945D01*
G37*
G36*
X103072191Y-53533346D02*
G01*
X103107178Y-53608084D01*
X103396606Y-53608084D01*
X103472810Y-53778627D01*
X103621737Y-54115865D01*
X103707833Y-54308572D01*
X103819024Y-54559898D01*
X103940474Y-54841999D01*
X103969600Y-54968211D01*
X103963535Y-55004811D01*
X103946153Y-55033241D01*
X103919099Y-55052127D01*
X103883138Y-55058703D01*
X103790448Y-55035989D01*
X103663686Y-54979752D01*
X103626133Y-54956854D01*
X103583269Y-54929926D01*
X103548098Y-54990376D01*
X103663869Y-55067496D01*
X103784036Y-55132892D01*
X103953114Y-55198288D01*
X104092882Y-55221552D01*
X104160990Y-55212188D01*
X104210301Y-55186564D01*
X104243077Y-55145979D01*
X104254082Y-55094057D01*
X104239244Y-55006863D01*
X104199127Y-54886695D01*
X104154980Y-54781732D01*
X104081524Y-54613937D01*
X103938825Y-54287140D01*
X103867384Y-54127955D01*
X103726884Y-53807569D01*
X103661854Y-53646186D01*
X103653611Y-53629333D01*
X103649398Y-53616693D01*
X103645001Y-53608084D01*
X103913180Y-53608084D01*
X103878375Y-53533346D01*
X103750636Y-53528437D01*
X103679806Y-53517042D01*
X103624335Y-53486782D01*
X103568981Y-53418490D01*
X103512744Y-53316275D01*
X103450095Y-53162402D01*
X103420969Y-53168080D01*
X103404666Y-53168080D01*
X103356856Y-53166065D01*
X103308679Y-53159654D01*
X103260868Y-53153609D01*
X103205730Y-53141885D01*
X103207929Y-53158738D01*
X103209944Y-53162951D01*
X103212142Y-53171195D01*
X103214157Y-53179438D01*
X103241817Y-53241353D01*
X103285964Y-53348515D01*
X103307030Y-53394677D01*
X103338354Y-53471980D01*
X103349162Y-53504586D01*
X103355207Y-53516493D01*
X103361618Y-53533346D01*
X103072191Y-53533346D01*
G37*
G36*
X102204640Y-53533346D02*
G01*
X102239628Y-53608084D01*
X102529056Y-53608084D01*
X102605259Y-53778627D01*
X102754186Y-54115865D01*
X102840282Y-54308572D01*
X102951474Y-54559898D01*
X103072923Y-54841999D01*
X103102049Y-54968211D01*
X103095984Y-55004811D01*
X103078602Y-55033241D01*
X103051548Y-55052127D01*
X103015587Y-55058703D01*
X102922897Y-55035989D01*
X102796135Y-54979752D01*
X102758583Y-54956854D01*
X102715718Y-54929926D01*
X102680547Y-54990376D01*
X102796318Y-55067496D01*
X102916486Y-55132892D01*
X103085563Y-55198288D01*
X103225331Y-55221552D01*
X103293440Y-55212188D01*
X103342751Y-55186564D01*
X103375526Y-55145979D01*
X103386531Y-55094057D01*
X103371693Y-55006863D01*
X103331577Y-54886695D01*
X103287430Y-54781732D01*
X103213974Y-54613937D01*
X103071275Y-54287140D01*
X102999834Y-54127955D01*
X102859333Y-53807569D01*
X102794303Y-53646186D01*
X102786060Y-53629333D01*
X102781847Y-53616693D01*
X102777451Y-53608084D01*
X103045629Y-53608084D01*
X103010825Y-53533346D01*
X102883086Y-53528437D01*
X102812255Y-53517042D01*
X102756784Y-53486782D01*
X102701430Y-53418490D01*
X102645193Y-53316275D01*
X102582545Y-53162402D01*
X102553419Y-53168080D01*
X102537116Y-53168080D01*
X102489305Y-53166065D01*
X102441128Y-53159654D01*
X102393318Y-53153609D01*
X102338180Y-53141885D01*
X102340378Y-53158738D01*
X102342393Y-53162951D01*
X102344591Y-53171195D01*
X102346606Y-53179438D01*
X102374267Y-53241353D01*
X102418414Y-53348515D01*
X102439480Y-53394677D01*
X102470804Y-53471980D01*
X102481611Y-53504586D01*
X102487656Y-53516493D01*
X102494068Y-53533346D01*
X102204640Y-53533346D01*
G37*
G36*
X95851037Y-52380916D02*
G01*
X96081953Y-52442665D01*
X96335851Y-52552955D01*
X96575708Y-52693026D01*
X96828218Y-52875609D01*
X97094958Y-53106165D01*
X97351046Y-53358040D01*
X97620873Y-53644171D01*
X97697950Y-53404696D01*
X97794974Y-53195392D01*
X97911106Y-53012834D01*
X98046352Y-52854254D01*
X98201561Y-52717636D01*
X98419940Y-52580194D01*
X98667139Y-52479814D01*
X98948157Y-52417160D01*
X99269146Y-52395235D01*
X99584837Y-52414608D01*
X99868016Y-52470452D01*
X100123168Y-52560483D01*
X100354080Y-52683984D01*
X100563694Y-52841833D01*
X100748091Y-53032256D01*
X100888650Y-53238288D01*
X100988943Y-53462228D01*
X101050213Y-53707581D01*
X101071292Y-53978845D01*
X101056609Y-54193058D01*
X101014088Y-54386386D01*
X100945011Y-54562010D01*
X100849285Y-54722531D01*
X100725444Y-54869842D01*
X100579996Y-54996357D01*
X100422147Y-55093739D01*
X100250090Y-55163755D01*
X100061283Y-55206736D01*
X99852581Y-55221552D01*
X99608216Y-55204699D01*
X99400854Y-55152126D01*
X99411662Y-55103766D01*
X99521571Y-55121718D01*
X99613346Y-55125931D01*
X99822673Y-55110723D01*
X100013361Y-55066453D01*
X100188469Y-54994032D01*
X100350455Y-54892858D01*
X100501046Y-54760849D01*
X100629531Y-54607777D01*
X100728449Y-54442598D01*
X100799521Y-54263519D01*
X100843082Y-54068060D01*
X100858068Y-53853182D01*
X100841058Y-53621891D01*
X100791806Y-53413960D01*
X100711647Y-53225593D01*
X100600096Y-53053771D01*
X100454884Y-52896421D01*
X100287641Y-52764804D01*
X100102920Y-52662010D01*
X99898287Y-52587136D01*
X99670545Y-52540688D01*
X99415875Y-52524562D01*
X99143026Y-52544079D01*
X98894230Y-52600900D01*
X98665598Y-52693819D01*
X98453986Y-52823515D01*
X98266047Y-52985431D01*
X98107631Y-53175322D01*
X97977193Y-53396071D01*
X97874764Y-53651864D01*
X97904256Y-53656627D01*
X97940526Y-53667435D01*
X98086600Y-53721044D01*
X98227573Y-53809035D01*
X98348225Y-53918949D01*
X98426509Y-54027021D01*
X98454169Y-54099562D01*
X98464794Y-54168072D01*
X98451788Y-54233834D01*
X98399031Y-54292452D01*
X98373769Y-54137192D01*
X98321116Y-54022082D01*
X98243326Y-53937629D01*
X98141827Y-53878746D01*
X98007218Y-53840046D01*
X97830067Y-53825704D01*
X97823107Y-53860143D01*
X98050069Y-54124474D01*
X98207423Y-54311137D01*
X98215849Y-54319563D01*
X98224642Y-54332936D01*
X98279047Y-54399614D01*
X98337848Y-54475268D01*
X98549607Y-54741615D01*
X98671606Y-54888344D01*
X98679300Y-54892191D01*
X98683147Y-54900251D01*
X98687431Y-54904370D01*
X98695921Y-54324442D01*
X98717585Y-53869668D01*
X98756481Y-53451835D01*
X98807527Y-53121552D01*
X98965797Y-53222852D01*
X99052259Y-53272311D01*
X99060136Y-53275059D01*
X99062883Y-53277623D01*
X99255591Y-53388632D01*
X99292410Y-53410797D01*
X99299371Y-53413545D01*
X99314942Y-53422520D01*
X99271161Y-53500190D01*
X99179204Y-53456043D01*
X99122051Y-53443586D01*
X99073952Y-53455285D01*
X99040718Y-53489931D01*
X99019273Y-53551474D01*
X98993640Y-53702606D01*
X98983199Y-53794930D01*
X98972758Y-53903557D01*
X98926596Y-54626943D01*
X98905347Y-55321936D01*
X98867977Y-55282369D01*
X98857353Y-55269729D01*
X98689375Y-55055589D01*
X98517367Y-54841449D01*
X98349572Y-54627493D01*
X98227939Y-54480764D01*
X98043108Y-54262411D01*
X97959211Y-54159645D01*
X97900593Y-54090403D01*
X97856263Y-54035814D01*
X97803872Y-53970418D01*
X97765594Y-54260656D01*
X97738843Y-54555136D01*
X97717777Y-55140219D01*
X97717777Y-55213675D01*
X97723089Y-55344284D01*
X97684804Y-55308197D01*
X97657510Y-55282918D01*
X97464436Y-55100469D01*
X97220804Y-54850608D01*
X96765230Y-54349056D01*
X96439532Y-53935247D01*
X96401796Y-53878644D01*
X96379421Y-53845305D01*
X96551456Y-53845305D01*
X96726395Y-54114766D01*
X96961051Y-54422878D01*
X97141486Y-54632438D01*
X97325950Y-54833756D01*
X97409848Y-54917653D01*
X97483670Y-54988361D01*
X97483670Y-54930109D01*
X97483670Y-54888344D01*
X97483670Y-54846212D01*
X97493810Y-54550784D01*
X97515177Y-54272669D01*
X97547613Y-54010649D01*
X97582772Y-53824422D01*
X97202302Y-53851167D01*
X96939802Y-53861608D01*
X96872574Y-53861608D01*
X96805163Y-53861608D01*
X96679134Y-53853182D01*
X96551456Y-53845305D01*
X96379421Y-53845305D01*
X96365160Y-53824056D01*
X96096960Y-53757353D01*
X95861222Y-53669178D01*
X95654236Y-53560828D01*
X95472880Y-53432779D01*
X95309860Y-53275579D01*
X95202310Y-53120247D01*
X95140947Y-52964223D01*
X95133986Y-52908695D01*
X95346484Y-52908695D01*
X95346484Y-52935622D01*
X95350697Y-52962001D01*
X95382173Y-53103930D01*
X95454745Y-53245750D01*
X95559318Y-53371090D01*
X95692332Y-53474727D01*
X95788669Y-53531544D01*
X95898961Y-53579141D01*
X96022843Y-53616763D01*
X96197915Y-53654429D01*
X96238032Y-53662855D01*
X96264776Y-53668534D01*
X96151570Y-53450547D01*
X96109156Y-53338327D01*
X96080678Y-53230362D01*
X96614104Y-53230362D01*
X96614104Y-53317374D01*
X96480634Y-53328225D01*
X96427259Y-53343752D01*
X96398273Y-53374043D01*
X96387325Y-53429298D01*
X96406193Y-53545436D01*
X96469207Y-53688135D01*
X96597984Y-53694363D01*
X96692140Y-53696378D01*
X96926980Y-53692165D01*
X97216407Y-53675312D01*
X97371563Y-53666885D01*
X97507301Y-53655528D01*
X97165587Y-53294310D01*
X96859302Y-53019381D01*
X96584429Y-52817470D01*
X96357734Y-52686839D01*
X96152728Y-52600570D01*
X95965965Y-52552186D01*
X95793998Y-52536835D01*
X95661818Y-52549184D01*
X95555075Y-52583599D01*
X95468483Y-52638135D01*
X95400930Y-52712878D01*
X95360551Y-52801580D01*
X95346484Y-52908695D01*
X95133986Y-52908695D01*
X95120804Y-52803548D01*
X95137266Y-52679656D01*
X95184933Y-52574937D01*
X95265334Y-52484628D01*
X95367941Y-52417632D01*
X95490627Y-52376061D01*
X95638660Y-52361346D01*
X95851037Y-52380916D01*
G37*
M02*
