%TF.GenerationSoftware,KiCad,Pcbnew,9.0.7*%
%TF.CreationDate,2026-02-09T12:59:15-05:00*%
%TF.ProjectId,led-planets,6c65642d-706c-4616-9e65-74732e6b6963,rev?*%
%TF.SameCoordinates,Original*%
%TF.FileFunction,Paste,Top*%
%TF.FilePolarity,Positive*%
%FSLAX46Y46*%
G04 Gerber Fmt 4.6, Leading zero omitted, Abs format (unit mm)*
G04 Created by KiCad (PCBNEW 9.0.7) date 2026-02-09 12:59:15*
%MOMM*%
%LPD*%
G01*
G04 APERTURE LIST*
G04 Aperture macros list*
%AMRoundRect*
0 Rectangle with rounded corners*
0 $1 Rounding radius*
0 $2 $3 $4 $5 $6 $7 $8 $9 X,Y pos of 4 corners*
0 Add a 4 corners polygon primitive as box body*
4,1,4,$2,$3,$4,$5,$6,$7,$8,$9,$2,$3,0*
0 Add four circle primitives for the rounded corners*
1,1,$1+$1,$2,$3*
1,1,$1+$1,$4,$5*
1,1,$1+$1,$6,$7*
1,1,$1+$1,$8,$9*
0 Add four rect primitives between the rounded corners*
20,1,$1+$1,$2,$3,$4,$5,0*
20,1,$1+$1,$4,$5,$6,$7,0*
20,1,$1+$1,$6,$7,$8,$9,0*
20,1,$1+$1,$8,$9,$2,$3,0*%
G04 Aperture macros list end*
%ADD10RoundRect,0.237500X0.250000X0.237500X-0.250000X0.237500X-0.250000X-0.237500X0.250000X-0.237500X0*%
%ADD11RoundRect,0.237500X0.300000X0.237500X-0.300000X0.237500X-0.300000X-0.237500X0.300000X-0.237500X0*%
%ADD12RoundRect,0.150000X0.587500X0.150000X-0.587500X0.150000X-0.587500X-0.150000X0.587500X-0.150000X0*%
%ADD13RoundRect,0.150000X-0.700000X0.150000X-0.700000X-0.150000X0.700000X-0.150000X0.700000X0.150000X0*%
%ADD14RoundRect,0.250000X-1.100000X0.250000X-1.100000X-0.250000X1.100000X-0.250000X1.100000X0.250000X0*%
%ADD15RoundRect,0.237500X0.237500X-0.300000X0.237500X0.300000X-0.237500X0.300000X-0.237500X-0.300000X0*%
%ADD16R,4.699000X3.429000*%
%ADD17RoundRect,0.237500X-0.300000X-0.237500X0.300000X-0.237500X0.300000X0.237500X-0.300000X0.237500X0*%
%ADD18RoundRect,0.237500X-0.250000X-0.237500X0.250000X-0.237500X0.250000X0.237500X-0.250000X0.237500X0*%
G04 APERTURE END LIST*
D10*
%TO.C,R5*%
X81412500Y-76500000D03*
X79587500Y-76500000D03*
%TD*%
D11*
%TO.C,C8*%
X74862500Y-84000000D03*
X73137500Y-84000000D03*
%TD*%
D10*
%TO.C,R16*%
X57262500Y-82875000D03*
X55437500Y-82875000D03*
%TD*%
D12*
%TO.C,Q3*%
X65287500Y-71325000D03*
X65287500Y-69425000D03*
X63412500Y-70375000D03*
%TD*%
D10*
%TO.C,R4*%
X81412500Y-74000000D03*
X79587500Y-74000000D03*
%TD*%
D12*
%TO.C,Q4*%
X65287500Y-74825000D03*
X65287500Y-72925000D03*
X63412500Y-73875000D03*
%TD*%
D10*
%TO.C,R15*%
X57262500Y-80375000D03*
X55437500Y-80375000D03*
%TD*%
D12*
%TO.C,Q5*%
X65287500Y-78325000D03*
X65287500Y-76425000D03*
X63412500Y-77375000D03*
%TD*%
D10*
%TO.C,R6*%
X81412500Y-79000000D03*
X79587500Y-79000000D03*
%TD*%
%TO.C,R3*%
X81412500Y-71500000D03*
X79587500Y-71500000D03*
%TD*%
%TO.C,R7*%
X81412500Y-81500000D03*
X79587500Y-81500000D03*
%TD*%
%TO.C,R1*%
X81325000Y-66500000D03*
X79500000Y-66500000D03*
%TD*%
D11*
%TO.C,C1*%
X74862500Y-66500000D03*
X73137500Y-66500000D03*
%TD*%
D10*
%TO.C,R14*%
X57262500Y-71875000D03*
X55437500Y-71875000D03*
%TD*%
D13*
%TO.C,J1*%
X51350000Y-63125000D03*
X51350000Y-64375000D03*
X51350000Y-65625000D03*
X51350000Y-66875000D03*
X51350000Y-68125000D03*
X51350000Y-69375000D03*
X51350000Y-70625000D03*
X51350000Y-71875000D03*
D14*
X48150000Y-61275000D03*
X48150000Y-73725000D03*
%TD*%
D15*
%TO.C,C9*%
X88000000Y-89000000D03*
X88000000Y-87275000D03*
%TD*%
D10*
%TO.C,R13*%
X57262500Y-69375000D03*
X55437500Y-69375000D03*
%TD*%
D16*
%TO.C,TP1*%
X124200000Y-87800000D03*
%TD*%
%TO.C,TP3*%
X80300000Y-88300000D03*
%TD*%
D10*
%TO.C,R2*%
X81412500Y-69000000D03*
X79587500Y-69000000D03*
%TD*%
%TO.C,R12*%
X57262500Y-66875000D03*
X55437500Y-66875000D03*
%TD*%
D13*
%TO.C,J2*%
X51350000Y-79125000D03*
X51350000Y-80375000D03*
X51350000Y-81625000D03*
X51350000Y-82875000D03*
X51350000Y-84125000D03*
X51350000Y-85375000D03*
X51350000Y-86625000D03*
X51350000Y-87875000D03*
D14*
X48150000Y-77275000D03*
X48150000Y-89725000D03*
%TD*%
D12*
%TO.C,Q6*%
X65287500Y-81825000D03*
X65287500Y-79925000D03*
X63412500Y-80875000D03*
%TD*%
D11*
%TO.C,C5*%
X74862500Y-76500000D03*
X73137500Y-76500000D03*
%TD*%
%TO.C,C4*%
X74862500Y-74000000D03*
X73137500Y-74000000D03*
%TD*%
%TO.C,C3*%
X74862500Y-71500000D03*
X73137500Y-71500000D03*
%TD*%
D16*
%TO.C,TP2*%
X80300000Y-93500000D03*
%TD*%
D10*
%TO.C,R11*%
X57262500Y-64375000D03*
X55437500Y-64375000D03*
%TD*%
D11*
%TO.C,C7*%
X74862500Y-81500000D03*
X73137500Y-81500000D03*
%TD*%
D17*
%TO.C,C10*%
X79137500Y-56000000D03*
X80862500Y-56000000D03*
%TD*%
D12*
%TO.C,Q7*%
X65287500Y-85325000D03*
X65287500Y-83425000D03*
X63412500Y-84375000D03*
%TD*%
%TO.C,Q8*%
X65287500Y-88825000D03*
X65287500Y-86925000D03*
X63412500Y-87875000D03*
%TD*%
D11*
%TO.C,C2*%
X74862500Y-69000000D03*
X73137500Y-69000000D03*
%TD*%
D10*
%TO.C,R17*%
X57262500Y-85375000D03*
X55437500Y-85375000D03*
%TD*%
D18*
%TO.C,R9*%
X79087500Y-53000000D03*
X80912500Y-53000000D03*
%TD*%
D12*
%TO.C,Q2*%
X65287500Y-67825000D03*
X65287500Y-65925000D03*
X63412500Y-66875000D03*
%TD*%
%TO.C,Q1*%
X65287500Y-64325000D03*
X65287500Y-62425000D03*
X63412500Y-63375000D03*
%TD*%
D10*
%TO.C,R18*%
X57262500Y-87875000D03*
X55437500Y-87875000D03*
%TD*%
%TO.C,R8*%
X81412500Y-84000000D03*
X79587500Y-84000000D03*
%TD*%
D11*
%TO.C,C6*%
X74862500Y-79000000D03*
X73137500Y-79000000D03*
%TD*%
M02*
