%TF.GenerationSoftware,KiCad,Pcbnew,9.0.7*%
%TF.CreationDate,2026-02-09T12:59:15-05:00*%
%TF.ProjectId,led-planets,6c65642d-706c-4616-9e65-74732e6b6963,rev?*%
%TF.SameCoordinates,Original*%
%TF.FileFunction,Copper,L2,Bot*%
%TF.FilePolarity,Positive*%
%FSLAX46Y46*%
G04 Gerber Fmt 4.6, Leading zero omitted, Abs format (unit mm)*
G04 Created by KiCad (PCBNEW 9.0.7) date 2026-02-09 12:59:15*
%MOMM*%
%LPD*%
G01*
G04 APERTURE LIST*
%TA.AperFunction,ComponentPad*%
%ADD10R,1.700000X1.700000*%
%TD*%
%TA.AperFunction,ComponentPad*%
%ADD11C,1.700000*%
%TD*%
%TA.AperFunction,ComponentPad*%
%ADD12C,1.524000*%
%TD*%
%TA.AperFunction,ComponentPad*%
%ADD13C,1.600000*%
%TD*%
%TA.AperFunction,ViaPad*%
%ADD14C,0.600000*%
%TD*%
%TA.AperFunction,Conductor*%
%ADD15C,0.500000*%
%TD*%
G04 APERTURE END LIST*
D10*
%TO.P,J3,1,Pin_1*%
%TO.N,/TX*%
X129000000Y-76580000D03*
D11*
%TO.P,J3,2,Pin_2*%
%TO.N,/RX*%
X129000000Y-74040000D03*
%TO.P,J3,3,Pin_3*%
%TO.N,/OUT*%
X129000000Y-71500000D03*
%TO.P,J3,4,Pin_4*%
%TO.N,GND*%
X129000000Y-68960000D03*
%TO.P,J3,5,Pin_5*%
%TO.N,+5V*%
X129000000Y-66420000D03*
%TD*%
D12*
%TO.P,U2,1,+3.3V*%
%TO.N,+3.3V*%
X117700000Y-89375000D03*
%TO.P,U2,2,GND*%
%TO.N,GND*%
X117700000Y-86835000D03*
%TO.P,U2,3,GPIO15*%
%TO.N,unconnected-(U2-GPIO15-Pad3)*%
X117700000Y-84295000D03*
%TO.P,U2,4,GPIO2*%
%TO.N,unconnected-(U2-GPIO2-Pad4)*%
X117700000Y-81755000D03*
%TO.P,U2,5,GPIO4*%
%TO.N,unconnected-(U2-GPIO4-Pad5)*%
X117700000Y-79215000D03*
%TO.P,U2,6,GPIO16*%
%TO.N,/TX*%
X117700000Y-76675000D03*
%TO.P,U2,7,GPIO17*%
%TO.N,/RX*%
X117700000Y-74135000D03*
%TO.P,U2,8,GPIO5*%
%TO.N,/OUT*%
X117700000Y-71595000D03*
%TO.P,U2,9,GPIO18*%
%TO.N,unconnected-(U2-GPIO18-Pad9)*%
X117700000Y-69055000D03*
%TO.P,U2,10,GPIO19*%
%TO.N,unconnected-(U2-GPIO19-Pad10)*%
X117700000Y-66515000D03*
%TO.P,U2,11,GPIO21*%
%TO.N,unconnected-(U2-GPIO21-Pad11)*%
X117700000Y-63975000D03*
%TO.P,U2,12,GPIO3*%
%TO.N,unconnected-(U2-GPIO3-Pad12)*%
X117700000Y-61435000D03*
%TO.P,U2,13,GPIO1*%
%TO.N,unconnected-(U2-GPIO1-Pad13)*%
X117700000Y-58895000D03*
%TO.P,U2,14,GPIO22*%
%TO.N,unconnected-(U2-GPIO22-Pad14)*%
X117700000Y-56355000D03*
%TO.P,U2,15,GPIO23*%
%TO.N,unconnected-(U2-GPIO23-Pad15)*%
X117700000Y-53815000D03*
%TO.P,U2,16,EN*%
%TO.N,unconnected-(U2-EN-Pad16)*%
X92300000Y-53815000D03*
%TO.P,U2,17,GPIO36*%
%TO.N,unconnected-(U2-GPIO36-Pad17)*%
X92300000Y-56355000D03*
%TO.P,U2,18,GPIO39*%
%TO.N,unconnected-(U2-GPIO39-Pad18)*%
X92300000Y-58895000D03*
%TO.P,U2,19,GPIO34*%
%TO.N,/ADC_IN_PHOTO*%
X92300000Y-61435000D03*
%TO.P,U2,20,GPIO35*%
%TO.N,unconnected-(U2-GPIO35-Pad20)*%
X92300000Y-63975000D03*
%TO.P,U2,21,GPIO32*%
%TO.N,/MER_B*%
X92300000Y-66515000D03*
%TO.P,U2,22,GPIO33*%
%TO.N,/VEN_B*%
X92300000Y-69055000D03*
%TO.P,U2,23,GPIO25*%
%TO.N,/EAR_B*%
X92300000Y-71595000D03*
%TO.P,U2,24,GPIO26*%
%TO.N,/MAR_B*%
X92300000Y-74135000D03*
%TO.P,U2,25,GPIO27*%
%TO.N,/JUP_B*%
X92300000Y-76675000D03*
%TO.P,U2,26,GPIO14*%
%TO.N,/SAT_B*%
X92300000Y-79215000D03*
%TO.P,U2,27,GPIO12*%
%TO.N,/URA_B*%
X92300000Y-81755000D03*
%TO.P,U2,28,GPIO13*%
%TO.N,/NEP_B*%
X92300000Y-84295000D03*
%TO.P,U2,29,GND*%
%TO.N,GND*%
X92300000Y-86835000D03*
%TO.P,U2,30,VIN*%
%TO.N,+5V*%
X92300000Y-89375000D03*
%TD*%
D13*
%TO.P,R10,1*%
%TO.N,/ADC_IN_PHOTO*%
X75000000Y-54500000D03*
%TO.P,R10,2*%
%TO.N,GND*%
X72000000Y-54500000D03*
%TD*%
D14*
%TO.N,GND*%
X71500000Y-74000000D03*
X76200000Y-86835000D03*
X71500000Y-81500000D03*
X67000000Y-69400000D03*
X67000000Y-76400000D03*
X67000000Y-62400000D03*
X67000000Y-80000000D03*
X67000000Y-66000000D03*
X71500000Y-69000000D03*
X67000000Y-87000000D03*
X71500000Y-76500000D03*
X71500000Y-66500000D03*
X71500000Y-84000000D03*
X67000000Y-83400000D03*
X71500000Y-79000000D03*
X82500000Y-56000000D03*
X71500000Y-71500000D03*
X67000000Y-73000000D03*
%TD*%
D15*
%TO.N,GND*%
X71500000Y-84000000D02*
X71500000Y-86835000D01*
X71500000Y-86835000D02*
X67165000Y-86835000D01*
X67165000Y-86835000D02*
X67000000Y-87000000D01*
X76200000Y-86835000D02*
X71500000Y-86835000D01*
X92300000Y-86835000D02*
X76200000Y-86835000D01*
X95800000Y-53200000D02*
X95800000Y-67200000D01*
X73500000Y-56000000D02*
X82500000Y-56000000D01*
X94600000Y-52000000D02*
X95800000Y-53200000D01*
X115435000Y-86835000D02*
X117700000Y-86835000D01*
X67000000Y-62400000D02*
X67000000Y-87000000D01*
X72000000Y-54500000D02*
X73500000Y-56000000D01*
X95800000Y-67200000D02*
X115435000Y-86835000D01*
X85800000Y-56000000D02*
X89800000Y-52000000D01*
X71500000Y-84000000D02*
X71500000Y-66500000D01*
X82500000Y-56000000D02*
X85800000Y-56000000D01*
X89800000Y-52000000D02*
X94600000Y-52000000D01*
%TD*%
M02*
