%TF.GenerationSoftware,KiCad,Pcbnew,9.0.7*%
%TF.CreationDate,2026-02-09T12:59:15-05:00*%
%TF.ProjectId,led-planets,6c65642d-706c-4616-9e65-74732e6b6963,rev?*%
%TF.SameCoordinates,Original*%
%TF.FileFunction,Soldermask,Bot*%
%TF.FilePolarity,Negative*%
%FSLAX46Y46*%
G04 Gerber Fmt 4.6, Leading zero omitted, Abs format (unit mm)*
G04 Created by KiCad (PCBNEW 9.0.7) date 2026-02-09 12:59:15*
%MOMM*%
%LPD*%
G01*
G04 APERTURE LIST*
%ADD10C,3.200000*%
%ADD11R,1.700000X1.700000*%
%ADD12C,1.700000*%
%ADD13C,1.524000*%
%ADD14C,1.600000*%
G04 APERTURE END LIST*
D10*
%TO.C,H2*%
X130000000Y-52000000D03*
%TD*%
D11*
%TO.C,J3*%
X129000000Y-76580000D03*
D12*
X129000000Y-74040000D03*
X129000000Y-71500000D03*
X129000000Y-68960000D03*
X129000000Y-66420000D03*
%TD*%
D10*
%TO.C,H4*%
X130000000Y-95000000D03*
%TD*%
D13*
%TO.C,U2*%
X117700000Y-89375000D03*
X117700000Y-86835000D03*
X117700000Y-84295000D03*
X117700000Y-81755000D03*
X117700000Y-79215000D03*
X117700000Y-76675000D03*
X117700000Y-74135000D03*
X117700000Y-71595000D03*
X117700000Y-69055000D03*
X117700000Y-66515000D03*
X117700000Y-63975000D03*
X117700000Y-61435000D03*
X117700000Y-58895000D03*
X117700000Y-56355000D03*
X117700000Y-53815000D03*
X92300000Y-53815000D03*
X92300000Y-56355000D03*
X92300000Y-58895000D03*
X92300000Y-61435000D03*
X92300000Y-63975000D03*
X92300000Y-66515000D03*
X92300000Y-69055000D03*
X92300000Y-71595000D03*
X92300000Y-74135000D03*
X92300000Y-76675000D03*
X92300000Y-79215000D03*
X92300000Y-81755000D03*
X92300000Y-84295000D03*
X92300000Y-86835000D03*
X92300000Y-89375000D03*
%TD*%
D10*
%TO.C,H3*%
X50000000Y-95000000D03*
%TD*%
D14*
%TO.C,R10*%
X75000000Y-54500000D03*
X72000000Y-54500000D03*
%TD*%
D10*
%TO.C,H1*%
X50000000Y-52000000D03*
%TD*%
M02*
