%TF.GenerationSoftware,KiCad,Pcbnew,9.0.7*%
%TF.CreationDate,2026-02-09T12:59:15-05:00*%
%TF.ProjectId,led-planets,6c65642d-706c-4616-9e65-74732e6b6963,rev?*%
%TF.SameCoordinates,Original*%
%TF.FileFunction,Copper,L1,Top*%
%TF.FilePolarity,Positive*%
%FSLAX46Y46*%
G04 Gerber Fmt 4.6, Leading zero omitted, Abs format (unit mm)*
G04 Created by KiCad (PCBNEW 9.0.7) date 2026-02-09 12:59:15*
%MOMM*%
%LPD*%
G01*
G04 APERTURE LIST*
G04 Aperture macros list*
%AMRoundRect*
0 Rectangle with rounded corners*
0 $1 Rounding radius*
0 $2 $3 $4 $5 $6 $7 $8 $9 X,Y pos of 4 corners*
0 Add a 4 corners polygon primitive as box body*
4,1,4,$2,$3,$4,$5,$6,$7,$8,$9,$2,$3,0*
0 Add four circle primitives for the rounded corners*
1,1,$1+$1,$2,$3*
1,1,$1+$1,$4,$5*
1,1,$1+$1,$6,$7*
1,1,$1+$1,$8,$9*
0 Add four rect primitives between the rounded corners*
20,1,$1+$1,$2,$3,$4,$5,0*
20,1,$1+$1,$4,$5,$6,$7,0*
20,1,$1+$1,$6,$7,$8,$9,0*
20,1,$1+$1,$8,$9,$2,$3,0*%
G04 Aperture macros list end*
%TA.AperFunction,SMDPad,CuDef*%
%ADD10RoundRect,0.237500X0.250000X0.237500X-0.250000X0.237500X-0.250000X-0.237500X0.250000X-0.237500X0*%
%TD*%
%TA.AperFunction,SMDPad,CuDef*%
%ADD11RoundRect,0.237500X0.300000X0.237500X-0.300000X0.237500X-0.300000X-0.237500X0.300000X-0.237500X0*%
%TD*%
%TA.AperFunction,SMDPad,CuDef*%
%ADD12RoundRect,0.150000X0.587500X0.150000X-0.587500X0.150000X-0.587500X-0.150000X0.587500X-0.150000X0*%
%TD*%
%TA.AperFunction,ComponentPad*%
%ADD13R,1.700000X1.700000*%
%TD*%
%TA.AperFunction,ComponentPad*%
%ADD14C,1.700000*%
%TD*%
%TA.AperFunction,SMDPad,CuDef*%
%ADD15RoundRect,0.150000X-0.700000X0.150000X-0.700000X-0.150000X0.700000X-0.150000X0.700000X0.150000X0*%
%TD*%
%TA.AperFunction,SMDPad,CuDef*%
%ADD16RoundRect,0.250000X-1.100000X0.250000X-1.100000X-0.250000X1.100000X-0.250000X1.100000X0.250000X0*%
%TD*%
%TA.AperFunction,SMDPad,CuDef*%
%ADD17RoundRect,0.237500X0.237500X-0.300000X0.237500X0.300000X-0.237500X0.300000X-0.237500X-0.300000X0*%
%TD*%
%TA.AperFunction,SMDPad,CuDef*%
%ADD18R,4.699000X3.429000*%
%TD*%
%TA.AperFunction,ComponentPad*%
%ADD19C,1.524000*%
%TD*%
%TA.AperFunction,SMDPad,CuDef*%
%ADD20RoundRect,0.237500X-0.300000X-0.237500X0.300000X-0.237500X0.300000X0.237500X-0.300000X0.237500X0*%
%TD*%
%TA.AperFunction,ComponentPad*%
%ADD21C,1.600000*%
%TD*%
%TA.AperFunction,SMDPad,CuDef*%
%ADD22RoundRect,0.237500X-0.250000X-0.237500X0.250000X-0.237500X0.250000X0.237500X-0.250000X0.237500X0*%
%TD*%
%TA.AperFunction,ViaPad*%
%ADD23C,0.600000*%
%TD*%
%TA.AperFunction,Conductor*%
%ADD24C,0.500000*%
%TD*%
%TA.AperFunction,Conductor*%
%ADD25C,0.200000*%
%TD*%
G04 APERTURE END LIST*
D10*
%TO.P,R5,1*%
%TO.N,/JUP_B*%
X81412500Y-76500000D03*
%TO.P,R5,2*%
%TO.N,Net-(Q5-B)*%
X79587500Y-76500000D03*
%TD*%
D11*
%TO.P,C8,1*%
%TO.N,Net-(Q8-B)*%
X74862500Y-84000000D03*
%TO.P,C8,2*%
%TO.N,GND*%
X73137500Y-84000000D03*
%TD*%
D10*
%TO.P,R16,1*%
%TO.N,Net-(Q6-C)*%
X57262500Y-82875000D03*
%TO.P,R16,2*%
%TO.N,/SAT*%
X55437500Y-82875000D03*
%TD*%
D12*
%TO.P,Q3,1,B*%
%TO.N,Net-(Q3-B)*%
X65287500Y-71325000D03*
%TO.P,Q3,2,E*%
%TO.N,GND*%
X65287500Y-69425000D03*
%TO.P,Q3,3,C*%
%TO.N,Net-(Q3-C)*%
X63412500Y-70375000D03*
%TD*%
D10*
%TO.P,R4,1*%
%TO.N,/MAR_B*%
X81412500Y-74000000D03*
%TO.P,R4,2*%
%TO.N,Net-(Q4-B)*%
X79587500Y-74000000D03*
%TD*%
D12*
%TO.P,Q4,1,B*%
%TO.N,Net-(Q4-B)*%
X65287500Y-74825000D03*
%TO.P,Q4,2,E*%
%TO.N,GND*%
X65287500Y-72925000D03*
%TO.P,Q4,3,C*%
%TO.N,Net-(Q4-C)*%
X63412500Y-73875000D03*
%TD*%
D10*
%TO.P,R15,1*%
%TO.N,Net-(Q5-C)*%
X57262500Y-80375000D03*
%TO.P,R15,2*%
%TO.N,/JUP*%
X55437500Y-80375000D03*
%TD*%
D12*
%TO.P,Q5,1,B*%
%TO.N,Net-(Q5-B)*%
X65287500Y-78325000D03*
%TO.P,Q5,2,E*%
%TO.N,GND*%
X65287500Y-76425000D03*
%TO.P,Q5,3,C*%
%TO.N,Net-(Q5-C)*%
X63412500Y-77375000D03*
%TD*%
D13*
%TO.P,J3,1,Pin_1*%
%TO.N,/TX*%
X129000000Y-76580000D03*
D14*
%TO.P,J3,2,Pin_2*%
%TO.N,/RX*%
X129000000Y-74040000D03*
%TO.P,J3,3,Pin_3*%
%TO.N,/OUT*%
X129000000Y-71500000D03*
%TO.P,J3,4,Pin_4*%
%TO.N,GND*%
X129000000Y-68960000D03*
%TO.P,J3,5,Pin_5*%
%TO.N,+5V*%
X129000000Y-66420000D03*
%TD*%
D10*
%TO.P,R6,1*%
%TO.N,/SAT_B*%
X81412500Y-79000000D03*
%TO.P,R6,2*%
%TO.N,Net-(Q6-B)*%
X79587500Y-79000000D03*
%TD*%
%TO.P,R3,1*%
%TO.N,/EAR_B*%
X81412500Y-71500000D03*
%TO.P,R3,2*%
%TO.N,Net-(Q3-B)*%
X79587500Y-71500000D03*
%TD*%
%TO.P,R7,1*%
%TO.N,/URA_B*%
X81412500Y-81500000D03*
%TO.P,R7,2*%
%TO.N,Net-(Q7-B)*%
X79587500Y-81500000D03*
%TD*%
%TO.P,R1,1*%
%TO.N,/MER_B*%
X81325000Y-66500000D03*
%TO.P,R1,2*%
%TO.N,Net-(Q1-B)*%
X79500000Y-66500000D03*
%TD*%
D11*
%TO.P,C1,1*%
%TO.N,Net-(Q1-B)*%
X74862500Y-66500000D03*
%TO.P,C1,2*%
%TO.N,GND*%
X73137500Y-66500000D03*
%TD*%
D10*
%TO.P,R14,1*%
%TO.N,Net-(Q4-C)*%
X57262500Y-71875000D03*
%TO.P,R14,2*%
%TO.N,/MAR*%
X55437500Y-71875000D03*
%TD*%
D15*
%TO.P,J1,1,Pin_1*%
%TO.N,+5V*%
X51350000Y-63125000D03*
%TO.P,J1,2,Pin_2*%
%TO.N,/MER*%
X51350000Y-64375000D03*
%TO.P,J1,3,Pin_3*%
%TO.N,+5V*%
X51350000Y-65625000D03*
%TO.P,J1,4,Pin_4*%
%TO.N,/VEN*%
X51350000Y-66875000D03*
%TO.P,J1,5,Pin_5*%
%TO.N,+5V*%
X51350000Y-68125000D03*
%TO.P,J1,6,Pin_6*%
%TO.N,/EAR*%
X51350000Y-69375000D03*
%TO.P,J1,7,Pin_7*%
%TO.N,+5V*%
X51350000Y-70625000D03*
%TO.P,J1,8,Pin_8*%
%TO.N,/MAR*%
X51350000Y-71875000D03*
D16*
%TO.P,J1,MP*%
%TO.N,N/C*%
X48150000Y-61275000D03*
X48150000Y-73725000D03*
%TD*%
D17*
%TO.P,C9,1*%
%TO.N,+5V*%
X88000000Y-89000000D03*
%TO.P,C9,2*%
%TO.N,GND*%
X88000000Y-87275000D03*
%TD*%
D10*
%TO.P,R13,1*%
%TO.N,Net-(Q3-C)*%
X57262500Y-69375000D03*
%TO.P,R13,2*%
%TO.N,/EAR*%
X55437500Y-69375000D03*
%TD*%
D18*
%TO.P,TP1,1,1*%
%TO.N,+3.3V*%
X124200000Y-87800000D03*
%TD*%
%TO.P,TP3,1,1*%
%TO.N,GND*%
X80300000Y-88300000D03*
%TD*%
D10*
%TO.P,R2,1*%
%TO.N,/VEN_B*%
X81412500Y-69000000D03*
%TO.P,R2,2*%
%TO.N,Net-(Q2-B)*%
X79587500Y-69000000D03*
%TD*%
%TO.P,R12,1*%
%TO.N,Net-(Q2-C)*%
X57262500Y-66875000D03*
%TO.P,R12,2*%
%TO.N,/VEN*%
X55437500Y-66875000D03*
%TD*%
D15*
%TO.P,J2,1,Pin_1*%
%TO.N,+5V*%
X51350000Y-79125000D03*
%TO.P,J2,2,Pin_2*%
%TO.N,/JUP*%
X51350000Y-80375000D03*
%TO.P,J2,3,Pin_3*%
%TO.N,+5V*%
X51350000Y-81625000D03*
%TO.P,J2,4,Pin_4*%
%TO.N,/SAT*%
X51350000Y-82875000D03*
%TO.P,J2,5,Pin_5*%
%TO.N,+5V*%
X51350000Y-84125000D03*
%TO.P,J2,6,Pin_6*%
%TO.N,/URA*%
X51350000Y-85375000D03*
%TO.P,J2,7,Pin_7*%
%TO.N,+5V*%
X51350000Y-86625000D03*
%TO.P,J2,8,Pin_8*%
%TO.N,/NEP*%
X51350000Y-87875000D03*
D16*
%TO.P,J2,MP*%
%TO.N,N/C*%
X48150000Y-77275000D03*
X48150000Y-89725000D03*
%TD*%
D12*
%TO.P,Q6,1,B*%
%TO.N,Net-(Q6-B)*%
X65287500Y-81825000D03*
%TO.P,Q6,2,E*%
%TO.N,GND*%
X65287500Y-79925000D03*
%TO.P,Q6,3,C*%
%TO.N,Net-(Q6-C)*%
X63412500Y-80875000D03*
%TD*%
D11*
%TO.P,C5,1*%
%TO.N,Net-(Q5-B)*%
X74862500Y-76500000D03*
%TO.P,C5,2*%
%TO.N,GND*%
X73137500Y-76500000D03*
%TD*%
%TO.P,C4,1*%
%TO.N,Net-(Q4-B)*%
X74862500Y-74000000D03*
%TO.P,C4,2*%
%TO.N,GND*%
X73137500Y-74000000D03*
%TD*%
%TO.P,C3,1*%
%TO.N,Net-(Q3-B)*%
X74862500Y-71500000D03*
%TO.P,C3,2*%
%TO.N,GND*%
X73137500Y-71500000D03*
%TD*%
D18*
%TO.P,TP2,1,1*%
%TO.N,+5V*%
X80300000Y-93500000D03*
%TD*%
D10*
%TO.P,R11,1*%
%TO.N,Net-(Q1-C)*%
X57262500Y-64375000D03*
%TO.P,R11,2*%
%TO.N,/MER*%
X55437500Y-64375000D03*
%TD*%
D19*
%TO.P,U2,1,+3.3V*%
%TO.N,+3.3V*%
X117700000Y-89375000D03*
%TO.P,U2,2,GND*%
%TO.N,GND*%
X117700000Y-86835000D03*
%TO.P,U2,3,GPIO15*%
%TO.N,unconnected-(U2-GPIO15-Pad3)*%
X117700000Y-84295000D03*
%TO.P,U2,4,GPIO2*%
%TO.N,unconnected-(U2-GPIO2-Pad4)*%
X117700000Y-81755000D03*
%TO.P,U2,5,GPIO4*%
%TO.N,unconnected-(U2-GPIO4-Pad5)*%
X117700000Y-79215000D03*
%TO.P,U2,6,GPIO16*%
%TO.N,/TX*%
X117700000Y-76675000D03*
%TO.P,U2,7,GPIO17*%
%TO.N,/RX*%
X117700000Y-74135000D03*
%TO.P,U2,8,GPIO5*%
%TO.N,/OUT*%
X117700000Y-71595000D03*
%TO.P,U2,9,GPIO18*%
%TO.N,unconnected-(U2-GPIO18-Pad9)*%
X117700000Y-69055000D03*
%TO.P,U2,10,GPIO19*%
%TO.N,unconnected-(U2-GPIO19-Pad10)*%
X117700000Y-66515000D03*
%TO.P,U2,11,GPIO21*%
%TO.N,unconnected-(U2-GPIO21-Pad11)*%
X117700000Y-63975000D03*
%TO.P,U2,12,GPIO3*%
%TO.N,unconnected-(U2-GPIO3-Pad12)*%
X117700000Y-61435000D03*
%TO.P,U2,13,GPIO1*%
%TO.N,unconnected-(U2-GPIO1-Pad13)*%
X117700000Y-58895000D03*
%TO.P,U2,14,GPIO22*%
%TO.N,unconnected-(U2-GPIO22-Pad14)*%
X117700000Y-56355000D03*
%TO.P,U2,15,GPIO23*%
%TO.N,unconnected-(U2-GPIO23-Pad15)*%
X117700000Y-53815000D03*
%TO.P,U2,16,EN*%
%TO.N,unconnected-(U2-EN-Pad16)*%
X92300000Y-53815000D03*
%TO.P,U2,17,GPIO36*%
%TO.N,unconnected-(U2-GPIO36-Pad17)*%
X92300000Y-56355000D03*
%TO.P,U2,18,GPIO39*%
%TO.N,unconnected-(U2-GPIO39-Pad18)*%
X92300000Y-58895000D03*
%TO.P,U2,19,GPIO34*%
%TO.N,/ADC_IN_PHOTO*%
X92300000Y-61435000D03*
%TO.P,U2,20,GPIO35*%
%TO.N,unconnected-(U2-GPIO35-Pad20)*%
X92300000Y-63975000D03*
%TO.P,U2,21,GPIO32*%
%TO.N,/MER_B*%
X92300000Y-66515000D03*
%TO.P,U2,22,GPIO33*%
%TO.N,/VEN_B*%
X92300000Y-69055000D03*
%TO.P,U2,23,GPIO25*%
%TO.N,/EAR_B*%
X92300000Y-71595000D03*
%TO.P,U2,24,GPIO26*%
%TO.N,/MAR_B*%
X92300000Y-74135000D03*
%TO.P,U2,25,GPIO27*%
%TO.N,/JUP_B*%
X92300000Y-76675000D03*
%TO.P,U2,26,GPIO14*%
%TO.N,/SAT_B*%
X92300000Y-79215000D03*
%TO.P,U2,27,GPIO12*%
%TO.N,/URA_B*%
X92300000Y-81755000D03*
%TO.P,U2,28,GPIO13*%
%TO.N,/NEP_B*%
X92300000Y-84295000D03*
%TO.P,U2,29,GND*%
%TO.N,GND*%
X92300000Y-86835000D03*
%TO.P,U2,30,VIN*%
%TO.N,+5V*%
X92300000Y-89375000D03*
%TD*%
D11*
%TO.P,C7,1*%
%TO.N,Net-(Q7-B)*%
X74862500Y-81500000D03*
%TO.P,C7,2*%
%TO.N,GND*%
X73137500Y-81500000D03*
%TD*%
D20*
%TO.P,C10,1*%
%TO.N,/ADC_IN_PHOTO*%
X79137500Y-56000000D03*
%TO.P,C10,2*%
%TO.N,GND*%
X80862500Y-56000000D03*
%TD*%
D12*
%TO.P,Q7,1,B*%
%TO.N,Net-(Q7-B)*%
X65287500Y-85325000D03*
%TO.P,Q7,2,E*%
%TO.N,GND*%
X65287500Y-83425000D03*
%TO.P,Q7,3,C*%
%TO.N,Net-(Q7-C)*%
X63412500Y-84375000D03*
%TD*%
%TO.P,Q8,1,B*%
%TO.N,Net-(Q8-B)*%
X65287500Y-88825000D03*
%TO.P,Q8,2,E*%
%TO.N,GND*%
X65287500Y-86925000D03*
%TO.P,Q8,3,C*%
%TO.N,Net-(Q8-C)*%
X63412500Y-87875000D03*
%TD*%
D21*
%TO.P,R10,1*%
%TO.N,/ADC_IN_PHOTO*%
X75000000Y-54500000D03*
%TO.P,R10,2*%
%TO.N,GND*%
X72000000Y-54500000D03*
%TD*%
D11*
%TO.P,C2,1*%
%TO.N,Net-(Q2-B)*%
X74862500Y-69000000D03*
%TO.P,C2,2*%
%TO.N,GND*%
X73137500Y-69000000D03*
%TD*%
D10*
%TO.P,R17,1*%
%TO.N,Net-(Q7-C)*%
X57262500Y-85375000D03*
%TO.P,R17,2*%
%TO.N,/URA*%
X55437500Y-85375000D03*
%TD*%
D22*
%TO.P,R9,1*%
%TO.N,/ADC_IN_PHOTO*%
X79087500Y-53000000D03*
%TO.P,R9,2*%
%TO.N,+3.3V*%
X80912500Y-53000000D03*
%TD*%
D12*
%TO.P,Q2,1,B*%
%TO.N,Net-(Q2-B)*%
X65287500Y-67825000D03*
%TO.P,Q2,2,E*%
%TO.N,GND*%
X65287500Y-65925000D03*
%TO.P,Q2,3,C*%
%TO.N,Net-(Q2-C)*%
X63412500Y-66875000D03*
%TD*%
%TO.P,Q1,1,B*%
%TO.N,Net-(Q1-B)*%
X65287500Y-64325000D03*
%TO.P,Q1,2,E*%
%TO.N,GND*%
X65287500Y-62425000D03*
%TO.P,Q1,3,C*%
%TO.N,Net-(Q1-C)*%
X63412500Y-63375000D03*
%TD*%
D10*
%TO.P,R18,1*%
%TO.N,Net-(Q8-C)*%
X57262500Y-87875000D03*
%TO.P,R18,2*%
%TO.N,/NEP*%
X55437500Y-87875000D03*
%TD*%
%TO.P,R8,1*%
%TO.N,/NEP_B*%
X81412500Y-84000000D03*
%TO.P,R8,2*%
%TO.N,Net-(Q8-B)*%
X79587500Y-84000000D03*
%TD*%
D11*
%TO.P,C6,1*%
%TO.N,Net-(Q6-B)*%
X74862500Y-79000000D03*
%TO.P,C6,2*%
%TO.N,GND*%
X73137500Y-79000000D03*
%TD*%
D23*
%TO.N,GND*%
X71500000Y-74000000D03*
X76200000Y-86835000D03*
X71500000Y-81500000D03*
X67000000Y-69400000D03*
X67000000Y-76400000D03*
X67000000Y-62400000D03*
X67000000Y-80000000D03*
X67000000Y-66000000D03*
X71500000Y-69000000D03*
X67000000Y-87000000D03*
X71500000Y-76500000D03*
X71500000Y-66500000D03*
X71500000Y-84000000D03*
X67000000Y-83400000D03*
X71500000Y-79000000D03*
X82500000Y-56000000D03*
X71500000Y-71500000D03*
X67000000Y-73000000D03*
%TD*%
D24*
%TO.N,+5V*%
X49725000Y-86625000D02*
X49600000Y-86500000D01*
X49600000Y-86500000D02*
X49600000Y-84000000D01*
X51350000Y-86625000D02*
X49725000Y-86625000D01*
X51350000Y-84125000D02*
X49725000Y-84125000D01*
X49600000Y-84000000D02*
X49600000Y-81500000D01*
X49725000Y-84125000D02*
X49600000Y-84000000D01*
X49725000Y-81625000D02*
X49600000Y-81500000D01*
X51350000Y-81625000D02*
X49725000Y-81625000D01*
X49600000Y-81500000D02*
X49600000Y-79000000D01*
X49725000Y-79125000D02*
X49600000Y-79000000D01*
X51350000Y-79125000D02*
X49725000Y-79125000D01*
X49600000Y-79000000D02*
X49600000Y-78400000D01*
X49725000Y-70625000D02*
X49600000Y-70500000D01*
X51350000Y-70625000D02*
X49725000Y-70625000D01*
X49600000Y-70500000D02*
X49600000Y-68000000D01*
X49725000Y-68125000D02*
X49600000Y-68000000D01*
X49600000Y-68000000D02*
X49600000Y-65500000D01*
X51350000Y-68125000D02*
X49725000Y-68125000D01*
X49725000Y-65625000D02*
X49600000Y-65500000D01*
X49600000Y-65500000D02*
X49600000Y-63400000D01*
X51350000Y-65625000D02*
X49725000Y-65625000D01*
D25*
%TO.N,Net-(Q1-B)*%
X65287500Y-64325000D02*
X72687500Y-64325000D01*
X74862500Y-66500000D02*
X79500000Y-66500000D01*
X72687500Y-64325000D02*
X74862500Y-66500000D01*
%TO.N,/EAR*%
X51350000Y-69375000D02*
X55437500Y-69375000D01*
%TO.N,GND*%
X73137500Y-71500000D02*
X71500000Y-71500000D01*
X66975000Y-83425000D02*
X67000000Y-83400000D01*
D24*
X117700000Y-86835000D02*
X119465000Y-86835000D01*
X131200000Y-85000000D02*
X131200000Y-71160000D01*
X92300000Y-86835000D02*
X100035000Y-86835000D01*
D25*
X73137500Y-84000000D02*
X71500000Y-84000000D01*
D24*
X80300000Y-88300000D02*
X77665000Y-88300000D01*
D25*
X73137500Y-79000000D02*
X71500000Y-79000000D01*
X65287500Y-86925000D02*
X66925000Y-86925000D01*
X65287500Y-72925000D02*
X66925000Y-72925000D01*
D24*
X84100000Y-88300000D02*
X80300000Y-88300000D01*
X77665000Y-88300000D02*
X76200000Y-86835000D01*
D25*
X73137500Y-81500000D02*
X71500000Y-81500000D01*
X65287500Y-76425000D02*
X66975000Y-76425000D01*
X65287500Y-79925000D02*
X66925000Y-79925000D01*
X66975000Y-69425000D02*
X67000000Y-69400000D01*
X65287500Y-62425000D02*
X66975000Y-62425000D01*
X73137500Y-69000000D02*
X71500000Y-69000000D01*
D24*
X127400000Y-90800000D02*
X131200000Y-87000000D01*
D25*
X73137500Y-74000000D02*
X71500000Y-74000000D01*
D24*
X92265000Y-86800000D02*
X92300000Y-86835000D01*
X85125000Y-87275000D02*
X84100000Y-88300000D01*
D25*
X65287500Y-65925000D02*
X66925000Y-65925000D01*
X66925000Y-65925000D02*
X67000000Y-66000000D01*
X65287500Y-83425000D02*
X66975000Y-83425000D01*
X66925000Y-72925000D02*
X67000000Y-73000000D01*
X66925000Y-79925000D02*
X67000000Y-80000000D01*
X73137500Y-76500000D02*
X71500000Y-76500000D01*
D24*
X104000000Y-90800000D02*
X127400000Y-90800000D01*
D25*
X66925000Y-86925000D02*
X67000000Y-87000000D01*
X66975000Y-62425000D02*
X67000000Y-62400000D01*
D24*
X121300000Y-85000000D02*
X131200000Y-85000000D01*
X131200000Y-71160000D02*
X129000000Y-68960000D01*
D25*
X80862500Y-56000000D02*
X82500000Y-56000000D01*
D24*
X88000000Y-87275000D02*
X88475000Y-86800000D01*
X88000000Y-87275000D02*
X85125000Y-87275000D01*
D25*
X73137500Y-66500000D02*
X71500000Y-66500000D01*
X66975000Y-76425000D02*
X67000000Y-76400000D01*
D24*
X119465000Y-86835000D02*
X121300000Y-85000000D01*
D25*
X65287500Y-69425000D02*
X66975000Y-69425000D01*
D24*
X88475000Y-86800000D02*
X92265000Y-86800000D01*
X131200000Y-87000000D02*
X131200000Y-85000000D01*
X100035000Y-86835000D02*
X104000000Y-90800000D01*
D25*
%TO.N,Net-(Q2-B)*%
X73687500Y-67825000D02*
X74862500Y-69000000D01*
X65287500Y-67825000D02*
X73687500Y-67825000D01*
X79587500Y-69000000D02*
X74862500Y-69000000D01*
%TO.N,/MER*%
X51350000Y-64375000D02*
X55437500Y-64375000D01*
%TO.N,/VEN*%
X55437500Y-66875000D02*
X51350000Y-66875000D01*
%TO.N,/MAR*%
X55437500Y-71875000D02*
X51350000Y-71875000D01*
%TO.N,Net-(Q3-B)*%
X69750000Y-72500000D02*
X73862500Y-72500000D01*
X74862500Y-71500000D02*
X79587500Y-71500000D01*
X65287500Y-71325000D02*
X68575000Y-71325000D01*
X68575000Y-71325000D02*
X69750000Y-72500000D01*
X73862500Y-72500000D02*
X74862500Y-71500000D01*
%TO.N,/URA*%
X55437500Y-85375000D02*
X51350000Y-85375000D01*
%TO.N,Net-(Q4-B)*%
X69750000Y-75250000D02*
X73612500Y-75250000D01*
X79587500Y-74000000D02*
X74862500Y-74000000D01*
X73612500Y-75250000D02*
X74862500Y-74000000D01*
X65287500Y-74825000D02*
X69325000Y-74825000D01*
X69325000Y-74825000D02*
X69750000Y-75250000D01*
%TO.N,/JUP*%
X55437500Y-80375000D02*
X51350000Y-80375000D01*
%TO.N,/NEP*%
X55437500Y-87875000D02*
X51350000Y-87875000D01*
%TO.N,Net-(Q5-B)*%
X73612500Y-77750000D02*
X74862500Y-76500000D01*
X70000000Y-77750000D02*
X73612500Y-77750000D01*
X69425000Y-78325000D02*
X70000000Y-77750000D01*
X65287500Y-78325000D02*
X69425000Y-78325000D01*
X74862500Y-76500000D02*
X79587500Y-76500000D01*
%TO.N,/SAT*%
X51350000Y-82875000D02*
X55437500Y-82875000D01*
%TO.N,Net-(Q6-B)*%
X65287500Y-81825000D02*
X69175000Y-81825000D01*
X74862500Y-79000000D02*
X79587500Y-79000000D01*
X70750000Y-80250000D02*
X73612500Y-80250000D01*
X69175000Y-81825000D02*
X70750000Y-80250000D01*
X73612500Y-80250000D02*
X74862500Y-79000000D01*
%TO.N,Net-(Q7-B)*%
X79587500Y-81500000D02*
X74862500Y-81500000D01*
X73612500Y-82750000D02*
X74862500Y-81500000D01*
X65287500Y-85325000D02*
X68675000Y-85325000D01*
X71250000Y-82750000D02*
X73612500Y-82750000D01*
X68675000Y-85325000D02*
X71250000Y-82750000D01*
%TO.N,Net-(Q8-B)*%
X74862500Y-84000000D02*
X79587500Y-84000000D01*
X70037500Y-88825000D02*
X74862500Y-84000000D01*
X65287500Y-88825000D02*
X70037500Y-88825000D01*
D24*
%TO.N,+5V*%
X76600000Y-90400000D02*
X51600000Y-90400000D01*
X80300000Y-93500000D02*
X79700000Y-93500000D01*
X49600000Y-78400000D02*
X50400000Y-77600000D01*
X132200000Y-87400000D02*
X132200000Y-69600000D01*
X50400000Y-73200000D02*
X49600000Y-72400000D01*
X100375000Y-89375000D02*
X102800000Y-91800000D01*
X49600000Y-88400000D02*
X49600000Y-86500000D01*
X51600000Y-90400000D02*
X49600000Y-88400000D01*
X132200000Y-69600000D02*
X129020000Y-66420000D01*
X85500000Y-89000000D02*
X88000000Y-89000000D01*
X80300000Y-93500000D02*
X81000000Y-93500000D01*
X49600000Y-63400000D02*
X49875000Y-63125000D01*
X81000000Y-93500000D02*
X85500000Y-89000000D01*
X88400000Y-89400000D02*
X92275000Y-89400000D01*
X79700000Y-93500000D02*
X76600000Y-90400000D01*
X127800000Y-91800000D02*
X132200000Y-87400000D01*
X92300000Y-89375000D02*
X100375000Y-89375000D01*
X49875000Y-63125000D02*
X51350000Y-63125000D01*
X102800000Y-91800000D02*
X127800000Y-91800000D01*
X129020000Y-66420000D02*
X129000000Y-66420000D01*
X88000000Y-89000000D02*
X88400000Y-89400000D01*
X50400000Y-77600000D02*
X50400000Y-73200000D01*
X92275000Y-89400000D02*
X92300000Y-89375000D01*
X49600000Y-72400000D02*
X49600000Y-70500000D01*
D25*
%TO.N,Net-(Q1-C)*%
X58262500Y-63375000D02*
X57262500Y-64375000D01*
X63412500Y-63375000D02*
X58262500Y-63375000D01*
%TO.N,Net-(Q2-C)*%
X63412500Y-66875000D02*
X57262500Y-66875000D01*
%TO.N,Net-(Q3-C)*%
X63412500Y-70375000D02*
X58262500Y-70375000D01*
X58262500Y-70375000D02*
X57262500Y-69375000D01*
%TO.N,Net-(Q4-C)*%
X63412500Y-73875000D02*
X59262500Y-73875000D01*
X59262500Y-73875000D02*
X57262500Y-71875000D01*
%TO.N,Net-(Q5-C)*%
X60262500Y-77375000D02*
X57262500Y-80375000D01*
X63412500Y-77375000D02*
X60262500Y-77375000D01*
%TO.N,Net-(Q6-C)*%
X63412500Y-80875000D02*
X59262500Y-80875000D01*
X59262500Y-80875000D02*
X57262500Y-82875000D01*
%TO.N,Net-(Q7-C)*%
X58262500Y-84375000D02*
X57262500Y-85375000D01*
X63412500Y-84375000D02*
X58262500Y-84375000D01*
%TO.N,Net-(Q8-C)*%
X57262500Y-87875000D02*
X63412500Y-87875000D01*
%TO.N,/ADC_IN_PHOTO*%
X79137500Y-56000000D02*
X79087500Y-56000000D01*
X81435000Y-61435000D02*
X92300000Y-61435000D01*
X75000000Y-54500000D02*
X77587500Y-54500000D01*
X79137500Y-59137500D02*
X81435000Y-61435000D01*
X77587500Y-54500000D02*
X79087500Y-53000000D01*
X79087500Y-56000000D02*
X77587500Y-54500000D01*
X79137500Y-56000000D02*
X79137500Y-59137500D01*
%TO.N,/OUT*%
X128405000Y-71595000D02*
X117700000Y-71595000D01*
X129000000Y-71500000D02*
X128500000Y-71500000D01*
X128500000Y-71500000D02*
X128405000Y-71595000D01*
%TO.N,/RX*%
X128905000Y-74135000D02*
X129000000Y-74040000D01*
X117700000Y-74135000D02*
X128905000Y-74135000D01*
%TO.N,/TX*%
X129000000Y-76580000D02*
X117795000Y-76580000D01*
X117795000Y-76580000D02*
X117700000Y-76675000D01*
%TO.N,/MER_B*%
X81325000Y-66500000D02*
X92285000Y-66500000D01*
X92285000Y-66500000D02*
X92300000Y-66515000D01*
%TO.N,/VEN_B*%
X92300000Y-69055000D02*
X81467500Y-69055000D01*
X81467500Y-69055000D02*
X81412500Y-69000000D01*
%TO.N,/EAR_B*%
X81412500Y-71500000D02*
X92205000Y-71500000D01*
X92205000Y-71500000D02*
X92300000Y-71595000D01*
%TO.N,/MAR_B*%
X92300000Y-74135000D02*
X81547500Y-74135000D01*
X81547500Y-74135000D02*
X81412500Y-74000000D01*
%TO.N,/JUP_B*%
X92300000Y-76675000D02*
X81587500Y-76675000D01*
X81587500Y-76675000D02*
X81412500Y-76500000D01*
%TO.N,/SAT_B*%
X81412500Y-79000000D02*
X92085000Y-79000000D01*
X92085000Y-79000000D02*
X92300000Y-79215000D01*
%TO.N,/URA_B*%
X81667500Y-81755000D02*
X81412500Y-81500000D01*
X92300000Y-81755000D02*
X81667500Y-81755000D01*
%TO.N,/NEP_B*%
X81707500Y-84295000D02*
X81412500Y-84000000D01*
X92300000Y-84295000D02*
X81707500Y-84295000D01*
%TO.N,+3.3V*%
X80912500Y-53000000D02*
X82500000Y-53000000D01*
X83700000Y-51800000D02*
X82500000Y-53000000D01*
D24*
X117975000Y-89100000D02*
X117700000Y-89375000D01*
X122900000Y-89100000D02*
X117975000Y-89100000D01*
D25*
X96000000Y-53200000D02*
X94600000Y-51800000D01*
X96000000Y-67675000D02*
X96000000Y-53200000D01*
X94600000Y-51800000D02*
X83700000Y-51800000D01*
D24*
X124200000Y-87800000D02*
X122900000Y-89100000D01*
D25*
X117700000Y-89375000D02*
X96000000Y-67675000D01*
%TD*%
M02*
