%TF.GenerationSoftware,KiCad,Pcbnew,9.0.7*%
%TF.CreationDate,2026-02-09T12:59:15-05:00*%
%TF.ProjectId,led-planets,6c65642d-706c-4616-9e65-74732e6b6963,rev?*%
%TF.SameCoordinates,Original*%
%TF.FileFunction,Legend,Top*%
%TF.FilePolarity,Positive*%
%FSLAX46Y46*%
G04 Gerber Fmt 4.6, Leading zero omitted, Abs format (unit mm)*
G04 Created by KiCad (PCBNEW 9.0.7) date 2026-02-09 12:59:15*
%MOMM*%
%LPD*%
G01*
G04 APERTURE LIST*
%ADD10C,0.100000*%
%ADD11C,0.050000*%
%ADD12C,0.600000*%
%ADD13C,0.150000*%
%ADD14C,0.120000*%
G04 APERTURE END LIST*
D10*
X55785712Y-58671704D02*
X56261902Y-58671704D01*
X55690474Y-58957419D02*
X56023807Y-57957419D01*
X56023807Y-57957419D02*
X56357140Y-58957419D01*
X56690474Y-58957419D02*
X56690474Y-58290752D01*
X56690474Y-58481228D02*
X56738093Y-58385990D01*
X56738093Y-58385990D02*
X56785712Y-58338371D01*
X56785712Y-58338371D02*
X56880950Y-58290752D01*
X56880950Y-58290752D02*
X56976188Y-58290752D01*
X57166665Y-58290752D02*
X57547617Y-58290752D01*
X57309522Y-57957419D02*
X57309522Y-58814561D01*
X57309522Y-58814561D02*
X57357141Y-58909800D01*
X57357141Y-58909800D02*
X57452379Y-58957419D01*
X57452379Y-58957419D02*
X57547617Y-58957419D01*
X59214284Y-58862180D02*
X59166665Y-58909800D01*
X59166665Y-58909800D02*
X59023808Y-58957419D01*
X59023808Y-58957419D02*
X58928570Y-58957419D01*
X58928570Y-58957419D02*
X58785713Y-58909800D01*
X58785713Y-58909800D02*
X58690475Y-58814561D01*
X58690475Y-58814561D02*
X58642856Y-58719323D01*
X58642856Y-58719323D02*
X58595237Y-58528847D01*
X58595237Y-58528847D02*
X58595237Y-58385990D01*
X58595237Y-58385990D02*
X58642856Y-58195514D01*
X58642856Y-58195514D02*
X58690475Y-58100276D01*
X58690475Y-58100276D02*
X58785713Y-58005038D01*
X58785713Y-58005038D02*
X58928570Y-57957419D01*
X58928570Y-57957419D02*
X59023808Y-57957419D01*
X59023808Y-57957419D02*
X59166665Y-58005038D01*
X59166665Y-58005038D02*
X59214284Y-58052657D01*
X59785713Y-58957419D02*
X59690475Y-58909800D01*
X59690475Y-58909800D02*
X59642856Y-58862180D01*
X59642856Y-58862180D02*
X59595237Y-58766942D01*
X59595237Y-58766942D02*
X59595237Y-58481228D01*
X59595237Y-58481228D02*
X59642856Y-58385990D01*
X59642856Y-58385990D02*
X59690475Y-58338371D01*
X59690475Y-58338371D02*
X59785713Y-58290752D01*
X59785713Y-58290752D02*
X59928570Y-58290752D01*
X59928570Y-58290752D02*
X60023808Y-58338371D01*
X60023808Y-58338371D02*
X60071427Y-58385990D01*
X60071427Y-58385990D02*
X60119046Y-58481228D01*
X60119046Y-58481228D02*
X60119046Y-58766942D01*
X60119046Y-58766942D02*
X60071427Y-58862180D01*
X60071427Y-58862180D02*
X60023808Y-58909800D01*
X60023808Y-58909800D02*
X59928570Y-58957419D01*
X59928570Y-58957419D02*
X59785713Y-58957419D01*
X60547618Y-58290752D02*
X60547618Y-58957419D01*
X60547618Y-58385990D02*
X60595237Y-58338371D01*
X60595237Y-58338371D02*
X60690475Y-58290752D01*
X60690475Y-58290752D02*
X60833332Y-58290752D01*
X60833332Y-58290752D02*
X60928570Y-58338371D01*
X60928570Y-58338371D02*
X60976189Y-58433609D01*
X60976189Y-58433609D02*
X60976189Y-58957419D01*
X61309523Y-58290752D02*
X61690475Y-58290752D01*
X61452380Y-57957419D02*
X61452380Y-58814561D01*
X61452380Y-58814561D02*
X61499999Y-58909800D01*
X61499999Y-58909800D02*
X61595237Y-58957419D01*
X61595237Y-58957419D02*
X61690475Y-58957419D01*
X62023809Y-58957419D02*
X62023809Y-58290752D01*
X62023809Y-58481228D02*
X62071428Y-58385990D01*
X62071428Y-58385990D02*
X62119047Y-58338371D01*
X62119047Y-58338371D02*
X62214285Y-58290752D01*
X62214285Y-58290752D02*
X62309523Y-58290752D01*
X62785714Y-58957419D02*
X62690476Y-58909800D01*
X62690476Y-58909800D02*
X62642857Y-58862180D01*
X62642857Y-58862180D02*
X62595238Y-58766942D01*
X62595238Y-58766942D02*
X62595238Y-58481228D01*
X62595238Y-58481228D02*
X62642857Y-58385990D01*
X62642857Y-58385990D02*
X62690476Y-58338371D01*
X62690476Y-58338371D02*
X62785714Y-58290752D01*
X62785714Y-58290752D02*
X62928571Y-58290752D01*
X62928571Y-58290752D02*
X63023809Y-58338371D01*
X63023809Y-58338371D02*
X63071428Y-58385990D01*
X63071428Y-58385990D02*
X63119047Y-58481228D01*
X63119047Y-58481228D02*
X63119047Y-58766942D01*
X63119047Y-58766942D02*
X63071428Y-58862180D01*
X63071428Y-58862180D02*
X63023809Y-58909800D01*
X63023809Y-58909800D02*
X62928571Y-58957419D01*
X62928571Y-58957419D02*
X62785714Y-58957419D01*
X63690476Y-58957419D02*
X63595238Y-58909800D01*
X63595238Y-58909800D02*
X63547619Y-58814561D01*
X63547619Y-58814561D02*
X63547619Y-57957419D01*
X64214286Y-58957419D02*
X64119048Y-58909800D01*
X64119048Y-58909800D02*
X64071429Y-58814561D01*
X64071429Y-58814561D02*
X64071429Y-57957419D01*
X64976191Y-58909800D02*
X64880953Y-58957419D01*
X64880953Y-58957419D02*
X64690477Y-58957419D01*
X64690477Y-58957419D02*
X64595239Y-58909800D01*
X64595239Y-58909800D02*
X64547620Y-58814561D01*
X64547620Y-58814561D02*
X64547620Y-58433609D01*
X64547620Y-58433609D02*
X64595239Y-58338371D01*
X64595239Y-58338371D02*
X64690477Y-58290752D01*
X64690477Y-58290752D02*
X64880953Y-58290752D01*
X64880953Y-58290752D02*
X64976191Y-58338371D01*
X64976191Y-58338371D02*
X65023810Y-58433609D01*
X65023810Y-58433609D02*
X65023810Y-58528847D01*
X65023810Y-58528847D02*
X64547620Y-58624085D01*
X65452382Y-58957419D02*
X65452382Y-58290752D01*
X65452382Y-58481228D02*
X65500001Y-58385990D01*
X65500001Y-58385990D02*
X65547620Y-58338371D01*
X65547620Y-58338371D02*
X65642858Y-58290752D01*
X65642858Y-58290752D02*
X65738096Y-58290752D01*
X66690478Y-57957419D02*
X67023811Y-58957419D01*
X67023811Y-58957419D02*
X67357144Y-57957419D01*
X68214287Y-58957419D02*
X67642859Y-58957419D01*
X67928573Y-58957419D02*
X67928573Y-57957419D01*
X67928573Y-57957419D02*
X67833335Y-58100276D01*
X67833335Y-58100276D02*
X67738097Y-58195514D01*
X67738097Y-58195514D02*
X67642859Y-58243133D01*
X56119046Y-56957419D02*
X55642856Y-56957419D01*
X55642856Y-56957419D02*
X55642856Y-55957419D01*
X56452380Y-56957419D02*
X56452380Y-56290752D01*
X56452380Y-55957419D02*
X56404761Y-56005038D01*
X56404761Y-56005038D02*
X56452380Y-56052657D01*
X56452380Y-56052657D02*
X56499999Y-56005038D01*
X56499999Y-56005038D02*
X56452380Y-55957419D01*
X56452380Y-55957419D02*
X56452380Y-56052657D01*
X57357141Y-56290752D02*
X57357141Y-57100276D01*
X57357141Y-57100276D02*
X57309522Y-57195514D01*
X57309522Y-57195514D02*
X57261903Y-57243133D01*
X57261903Y-57243133D02*
X57166665Y-57290752D01*
X57166665Y-57290752D02*
X57023808Y-57290752D01*
X57023808Y-57290752D02*
X56928570Y-57243133D01*
X57357141Y-56909800D02*
X57261903Y-56957419D01*
X57261903Y-56957419D02*
X57071427Y-56957419D01*
X57071427Y-56957419D02*
X56976189Y-56909800D01*
X56976189Y-56909800D02*
X56928570Y-56862180D01*
X56928570Y-56862180D02*
X56880951Y-56766942D01*
X56880951Y-56766942D02*
X56880951Y-56481228D01*
X56880951Y-56481228D02*
X56928570Y-56385990D01*
X56928570Y-56385990D02*
X56976189Y-56338371D01*
X56976189Y-56338371D02*
X57071427Y-56290752D01*
X57071427Y-56290752D02*
X57261903Y-56290752D01*
X57261903Y-56290752D02*
X57357141Y-56338371D01*
X57833332Y-56957419D02*
X57833332Y-55957419D01*
X58261903Y-56957419D02*
X58261903Y-56433609D01*
X58261903Y-56433609D02*
X58214284Y-56338371D01*
X58214284Y-56338371D02*
X58119046Y-56290752D01*
X58119046Y-56290752D02*
X57976189Y-56290752D01*
X57976189Y-56290752D02*
X57880951Y-56338371D01*
X57880951Y-56338371D02*
X57833332Y-56385990D01*
X58595237Y-56290752D02*
X58976189Y-56290752D01*
X58738094Y-55957419D02*
X58738094Y-56814561D01*
X58738094Y-56814561D02*
X58785713Y-56909800D01*
X58785713Y-56909800D02*
X58880951Y-56957419D01*
X58880951Y-56957419D02*
X58976189Y-56957419D01*
X59309523Y-56576466D02*
X60071428Y-56576466D01*
X60547618Y-55957419D02*
X60547618Y-56766942D01*
X60547618Y-56766942D02*
X60595237Y-56862180D01*
X60595237Y-56862180D02*
X60642856Y-56909800D01*
X60642856Y-56909800D02*
X60738094Y-56957419D01*
X60738094Y-56957419D02*
X60928570Y-56957419D01*
X60928570Y-56957419D02*
X61023808Y-56909800D01*
X61023808Y-56909800D02*
X61071427Y-56862180D01*
X61071427Y-56862180D02*
X61119046Y-56766942D01*
X61119046Y-56766942D02*
X61119046Y-55957419D01*
X61595237Y-56290752D02*
X61595237Y-57290752D01*
X61595237Y-56338371D02*
X61690475Y-56290752D01*
X61690475Y-56290752D02*
X61880951Y-56290752D01*
X61880951Y-56290752D02*
X61976189Y-56338371D01*
X61976189Y-56338371D02*
X62023808Y-56385990D01*
X62023808Y-56385990D02*
X62071427Y-56481228D01*
X62071427Y-56481228D02*
X62071427Y-56766942D01*
X62071427Y-56766942D02*
X62023808Y-56862180D01*
X62023808Y-56862180D02*
X61976189Y-56909800D01*
X61976189Y-56909800D02*
X61880951Y-56957419D01*
X61880951Y-56957419D02*
X61690475Y-56957419D01*
X61690475Y-56957419D02*
X61595237Y-56909800D01*
X63261904Y-56957419D02*
X63261904Y-55957419D01*
X63261904Y-55957419D02*
X63642856Y-55957419D01*
X63642856Y-55957419D02*
X63738094Y-56005038D01*
X63738094Y-56005038D02*
X63785713Y-56052657D01*
X63785713Y-56052657D02*
X63833332Y-56147895D01*
X63833332Y-56147895D02*
X63833332Y-56290752D01*
X63833332Y-56290752D02*
X63785713Y-56385990D01*
X63785713Y-56385990D02*
X63738094Y-56433609D01*
X63738094Y-56433609D02*
X63642856Y-56481228D01*
X63642856Y-56481228D02*
X63261904Y-56481228D01*
X64404761Y-56957419D02*
X64309523Y-56909800D01*
X64309523Y-56909800D02*
X64261904Y-56814561D01*
X64261904Y-56814561D02*
X64261904Y-55957419D01*
X65214285Y-56957419D02*
X65214285Y-56433609D01*
X65214285Y-56433609D02*
X65166666Y-56338371D01*
X65166666Y-56338371D02*
X65071428Y-56290752D01*
X65071428Y-56290752D02*
X64880952Y-56290752D01*
X64880952Y-56290752D02*
X64785714Y-56338371D01*
X65214285Y-56909800D02*
X65119047Y-56957419D01*
X65119047Y-56957419D02*
X64880952Y-56957419D01*
X64880952Y-56957419D02*
X64785714Y-56909800D01*
X64785714Y-56909800D02*
X64738095Y-56814561D01*
X64738095Y-56814561D02*
X64738095Y-56719323D01*
X64738095Y-56719323D02*
X64785714Y-56624085D01*
X64785714Y-56624085D02*
X64880952Y-56576466D01*
X64880952Y-56576466D02*
X65119047Y-56576466D01*
X65119047Y-56576466D02*
X65214285Y-56528847D01*
X65690476Y-56290752D02*
X65690476Y-56957419D01*
X65690476Y-56385990D02*
X65738095Y-56338371D01*
X65738095Y-56338371D02*
X65833333Y-56290752D01*
X65833333Y-56290752D02*
X65976190Y-56290752D01*
X65976190Y-56290752D02*
X66071428Y-56338371D01*
X66071428Y-56338371D02*
X66119047Y-56433609D01*
X66119047Y-56433609D02*
X66119047Y-56957419D01*
X66976190Y-56909800D02*
X66880952Y-56957419D01*
X66880952Y-56957419D02*
X66690476Y-56957419D01*
X66690476Y-56957419D02*
X66595238Y-56909800D01*
X66595238Y-56909800D02*
X66547619Y-56814561D01*
X66547619Y-56814561D02*
X66547619Y-56433609D01*
X66547619Y-56433609D02*
X66595238Y-56338371D01*
X66595238Y-56338371D02*
X66690476Y-56290752D01*
X66690476Y-56290752D02*
X66880952Y-56290752D01*
X66880952Y-56290752D02*
X66976190Y-56338371D01*
X66976190Y-56338371D02*
X67023809Y-56433609D01*
X67023809Y-56433609D02*
X67023809Y-56528847D01*
X67023809Y-56528847D02*
X66547619Y-56624085D01*
X67309524Y-56290752D02*
X67690476Y-56290752D01*
X67452381Y-55957419D02*
X67452381Y-56814561D01*
X67452381Y-56814561D02*
X67500000Y-56909800D01*
X67500000Y-56909800D02*
X67595238Y-56957419D01*
X67595238Y-56957419D02*
X67690476Y-56957419D01*
X67976191Y-56909800D02*
X68071429Y-56957419D01*
X68071429Y-56957419D02*
X68261905Y-56957419D01*
X68261905Y-56957419D02*
X68357143Y-56909800D01*
X68357143Y-56909800D02*
X68404762Y-56814561D01*
X68404762Y-56814561D02*
X68404762Y-56766942D01*
X68404762Y-56766942D02*
X68357143Y-56671704D01*
X68357143Y-56671704D02*
X68261905Y-56624085D01*
X68261905Y-56624085D02*
X68119048Y-56624085D01*
X68119048Y-56624085D02*
X68023810Y-56576466D01*
X68023810Y-56576466D02*
X67976191Y-56481228D01*
X67976191Y-56481228D02*
X67976191Y-56433609D01*
X67976191Y-56433609D02*
X68023810Y-56338371D01*
X68023810Y-56338371D02*
X68119048Y-56290752D01*
X68119048Y-56290752D02*
X68261905Y-56290752D01*
X68261905Y-56290752D02*
X68357143Y-56338371D01*
D11*
X52890036Y-70436209D02*
X52651941Y-70436209D01*
X52651941Y-70436209D02*
X52628132Y-70674304D01*
X52628132Y-70674304D02*
X52651941Y-70650495D01*
X52651941Y-70650495D02*
X52699560Y-70626685D01*
X52699560Y-70626685D02*
X52818608Y-70626685D01*
X52818608Y-70626685D02*
X52866227Y-70650495D01*
X52866227Y-70650495D02*
X52890036Y-70674304D01*
X52890036Y-70674304D02*
X52913846Y-70721923D01*
X52913846Y-70721923D02*
X52913846Y-70840971D01*
X52913846Y-70840971D02*
X52890036Y-70888590D01*
X52890036Y-70888590D02*
X52866227Y-70912400D01*
X52866227Y-70912400D02*
X52818608Y-70936209D01*
X52818608Y-70936209D02*
X52699560Y-70936209D01*
X52699560Y-70936209D02*
X52651941Y-70912400D01*
X52651941Y-70912400D02*
X52628132Y-70888590D01*
X53056703Y-70436209D02*
X53223369Y-70936209D01*
X53223369Y-70936209D02*
X53390036Y-70436209D01*
X52651941Y-72186209D02*
X52651941Y-71686209D01*
X52651941Y-71686209D02*
X52818608Y-72043352D01*
X52818608Y-72043352D02*
X52985274Y-71686209D01*
X52985274Y-71686209D02*
X52985274Y-72186209D01*
X53199561Y-72043352D02*
X53437656Y-72043352D01*
X53151942Y-72186209D02*
X53318608Y-71686209D01*
X53318608Y-71686209D02*
X53485275Y-72186209D01*
X53937655Y-72186209D02*
X53770989Y-71948114D01*
X53651941Y-72186209D02*
X53651941Y-71686209D01*
X53651941Y-71686209D02*
X53842417Y-71686209D01*
X53842417Y-71686209D02*
X53890036Y-71710019D01*
X53890036Y-71710019D02*
X53913846Y-71733828D01*
X53913846Y-71733828D02*
X53937655Y-71781447D01*
X53937655Y-71781447D02*
X53937655Y-71852876D01*
X53937655Y-71852876D02*
X53913846Y-71900495D01*
X53913846Y-71900495D02*
X53890036Y-71924304D01*
X53890036Y-71924304D02*
X53842417Y-71948114D01*
X53842417Y-71948114D02*
X53651941Y-71948114D01*
X52890036Y-65436209D02*
X52651941Y-65436209D01*
X52651941Y-65436209D02*
X52628132Y-65674304D01*
X52628132Y-65674304D02*
X52651941Y-65650495D01*
X52651941Y-65650495D02*
X52699560Y-65626685D01*
X52699560Y-65626685D02*
X52818608Y-65626685D01*
X52818608Y-65626685D02*
X52866227Y-65650495D01*
X52866227Y-65650495D02*
X52890036Y-65674304D01*
X52890036Y-65674304D02*
X52913846Y-65721923D01*
X52913846Y-65721923D02*
X52913846Y-65840971D01*
X52913846Y-65840971D02*
X52890036Y-65888590D01*
X52890036Y-65888590D02*
X52866227Y-65912400D01*
X52866227Y-65912400D02*
X52818608Y-65936209D01*
X52818608Y-65936209D02*
X52699560Y-65936209D01*
X52699560Y-65936209D02*
X52651941Y-65912400D01*
X52651941Y-65912400D02*
X52628132Y-65888590D01*
X53056703Y-65436209D02*
X53223369Y-65936209D01*
X53223369Y-65936209D02*
X53390036Y-65436209D01*
D10*
X124448496Y-68560038D02*
X124353258Y-68512419D01*
X124353258Y-68512419D02*
X124210401Y-68512419D01*
X124210401Y-68512419D02*
X124067544Y-68560038D01*
X124067544Y-68560038D02*
X123972306Y-68655276D01*
X123972306Y-68655276D02*
X123924687Y-68750514D01*
X123924687Y-68750514D02*
X123877068Y-68940990D01*
X123877068Y-68940990D02*
X123877068Y-69083847D01*
X123877068Y-69083847D02*
X123924687Y-69274323D01*
X123924687Y-69274323D02*
X123972306Y-69369561D01*
X123972306Y-69369561D02*
X124067544Y-69464800D01*
X124067544Y-69464800D02*
X124210401Y-69512419D01*
X124210401Y-69512419D02*
X124305639Y-69512419D01*
X124305639Y-69512419D02*
X124448496Y-69464800D01*
X124448496Y-69464800D02*
X124496115Y-69417180D01*
X124496115Y-69417180D02*
X124496115Y-69083847D01*
X124496115Y-69083847D02*
X124305639Y-69083847D01*
X124924687Y-69512419D02*
X124924687Y-68512419D01*
X124924687Y-68512419D02*
X125496115Y-69512419D01*
X125496115Y-69512419D02*
X125496115Y-68512419D01*
X125972306Y-69512419D02*
X125972306Y-68512419D01*
X125972306Y-68512419D02*
X126210401Y-68512419D01*
X126210401Y-68512419D02*
X126353258Y-68560038D01*
X126353258Y-68560038D02*
X126448496Y-68655276D01*
X126448496Y-68655276D02*
X126496115Y-68750514D01*
X126496115Y-68750514D02*
X126543734Y-68940990D01*
X126543734Y-68940990D02*
X126543734Y-69083847D01*
X126543734Y-69083847D02*
X126496115Y-69274323D01*
X126496115Y-69274323D02*
X126448496Y-69369561D01*
X126448496Y-69369561D02*
X126353258Y-69464800D01*
X126353258Y-69464800D02*
X126210401Y-69512419D01*
X126210401Y-69512419D02*
X125972306Y-69512419D01*
D11*
X52794798Y-80186209D02*
X52794798Y-80543352D01*
X52794798Y-80543352D02*
X52770989Y-80614780D01*
X52770989Y-80614780D02*
X52723370Y-80662400D01*
X52723370Y-80662400D02*
X52651941Y-80686209D01*
X52651941Y-80686209D02*
X52604322Y-80686209D01*
X53032893Y-80186209D02*
X53032893Y-80590971D01*
X53032893Y-80590971D02*
X53056703Y-80638590D01*
X53056703Y-80638590D02*
X53080512Y-80662400D01*
X53080512Y-80662400D02*
X53128131Y-80686209D01*
X53128131Y-80686209D02*
X53223369Y-80686209D01*
X53223369Y-80686209D02*
X53270988Y-80662400D01*
X53270988Y-80662400D02*
X53294798Y-80638590D01*
X53294798Y-80638590D02*
X53318607Y-80590971D01*
X53318607Y-80590971D02*
X53318607Y-80186209D01*
X53556703Y-80686209D02*
X53556703Y-80186209D01*
X53556703Y-80186209D02*
X53747179Y-80186209D01*
X53747179Y-80186209D02*
X53794798Y-80210019D01*
X53794798Y-80210019D02*
X53818608Y-80233828D01*
X53818608Y-80233828D02*
X53842417Y-80281447D01*
X53842417Y-80281447D02*
X53842417Y-80352876D01*
X53842417Y-80352876D02*
X53818608Y-80400495D01*
X53818608Y-80400495D02*
X53794798Y-80424304D01*
X53794798Y-80424304D02*
X53747179Y-80448114D01*
X53747179Y-80448114D02*
X53556703Y-80448114D01*
X52651941Y-64686209D02*
X52651941Y-64186209D01*
X52651941Y-64186209D02*
X52818608Y-64543352D01*
X52818608Y-64543352D02*
X52985274Y-64186209D01*
X52985274Y-64186209D02*
X52985274Y-64686209D01*
X53223370Y-64424304D02*
X53390037Y-64424304D01*
X53461465Y-64686209D02*
X53223370Y-64686209D01*
X53223370Y-64686209D02*
X53223370Y-64186209D01*
X53223370Y-64186209D02*
X53461465Y-64186209D01*
X53961465Y-64686209D02*
X53794799Y-64448114D01*
X53675751Y-64686209D02*
X53675751Y-64186209D01*
X53675751Y-64186209D02*
X53866227Y-64186209D01*
X53866227Y-64186209D02*
X53913846Y-64210019D01*
X53913846Y-64210019D02*
X53937656Y-64233828D01*
X53937656Y-64233828D02*
X53961465Y-64281447D01*
X53961465Y-64281447D02*
X53961465Y-64352876D01*
X53961465Y-64352876D02*
X53937656Y-64400495D01*
X53937656Y-64400495D02*
X53913846Y-64424304D01*
X53913846Y-64424304D02*
X53866227Y-64448114D01*
X53866227Y-64448114D02*
X53675751Y-64448114D01*
X52890036Y-81436209D02*
X52651941Y-81436209D01*
X52651941Y-81436209D02*
X52628132Y-81674304D01*
X52628132Y-81674304D02*
X52651941Y-81650495D01*
X52651941Y-81650495D02*
X52699560Y-81626685D01*
X52699560Y-81626685D02*
X52818608Y-81626685D01*
X52818608Y-81626685D02*
X52866227Y-81650495D01*
X52866227Y-81650495D02*
X52890036Y-81674304D01*
X52890036Y-81674304D02*
X52913846Y-81721923D01*
X52913846Y-81721923D02*
X52913846Y-81840971D01*
X52913846Y-81840971D02*
X52890036Y-81888590D01*
X52890036Y-81888590D02*
X52866227Y-81912400D01*
X52866227Y-81912400D02*
X52818608Y-81936209D01*
X52818608Y-81936209D02*
X52699560Y-81936209D01*
X52699560Y-81936209D02*
X52651941Y-81912400D01*
X52651941Y-81912400D02*
X52628132Y-81888590D01*
X53056703Y-81436209D02*
X53223369Y-81936209D01*
X53223369Y-81936209D02*
X53390036Y-81436209D01*
D10*
X87803884Y-79572419D02*
X87803884Y-78572419D01*
X87803884Y-78572419D02*
X88041979Y-78572419D01*
X88041979Y-78572419D02*
X88184836Y-78620038D01*
X88184836Y-78620038D02*
X88280074Y-78715276D01*
X88280074Y-78715276D02*
X88327693Y-78810514D01*
X88327693Y-78810514D02*
X88375312Y-79000990D01*
X88375312Y-79000990D02*
X88375312Y-79143847D01*
X88375312Y-79143847D02*
X88327693Y-79334323D01*
X88327693Y-79334323D02*
X88280074Y-79429561D01*
X88280074Y-79429561D02*
X88184836Y-79524800D01*
X88184836Y-79524800D02*
X88041979Y-79572419D01*
X88041979Y-79572419D02*
X87803884Y-79572419D01*
X89327693Y-79572419D02*
X88756265Y-79572419D01*
X89041979Y-79572419D02*
X89041979Y-78572419D01*
X89041979Y-78572419D02*
X88946741Y-78715276D01*
X88946741Y-78715276D02*
X88851503Y-78810514D01*
X88851503Y-78810514D02*
X88756265Y-78858133D01*
X90184836Y-78905752D02*
X90184836Y-79572419D01*
X89946741Y-78524800D02*
X89708646Y-79239085D01*
X89708646Y-79239085D02*
X90327693Y-79239085D01*
X87803884Y-84652419D02*
X87803884Y-83652419D01*
X87803884Y-83652419D02*
X88041979Y-83652419D01*
X88041979Y-83652419D02*
X88184836Y-83700038D01*
X88184836Y-83700038D02*
X88280074Y-83795276D01*
X88280074Y-83795276D02*
X88327693Y-83890514D01*
X88327693Y-83890514D02*
X88375312Y-84080990D01*
X88375312Y-84080990D02*
X88375312Y-84223847D01*
X88375312Y-84223847D02*
X88327693Y-84414323D01*
X88327693Y-84414323D02*
X88280074Y-84509561D01*
X88280074Y-84509561D02*
X88184836Y-84604800D01*
X88184836Y-84604800D02*
X88041979Y-84652419D01*
X88041979Y-84652419D02*
X87803884Y-84652419D01*
X89327693Y-84652419D02*
X88756265Y-84652419D01*
X89041979Y-84652419D02*
X89041979Y-83652419D01*
X89041979Y-83652419D02*
X88946741Y-83795276D01*
X88946741Y-83795276D02*
X88851503Y-83890514D01*
X88851503Y-83890514D02*
X88756265Y-83938133D01*
X89661027Y-83652419D02*
X90280074Y-83652419D01*
X90280074Y-83652419D02*
X89946741Y-84033371D01*
X89946741Y-84033371D02*
X90089598Y-84033371D01*
X90089598Y-84033371D02*
X90184836Y-84080990D01*
X90184836Y-84080990D02*
X90232455Y-84128609D01*
X90232455Y-84128609D02*
X90280074Y-84223847D01*
X90280074Y-84223847D02*
X90280074Y-84461942D01*
X90280074Y-84461942D02*
X90232455Y-84557180D01*
X90232455Y-84557180D02*
X90184836Y-84604800D01*
X90184836Y-84604800D02*
X90089598Y-84652419D01*
X90089598Y-84652419D02*
X89803884Y-84652419D01*
X89803884Y-84652419D02*
X89708646Y-84604800D01*
X89708646Y-84604800D02*
X89661027Y-84557180D01*
X125591353Y-74592419D02*
X125258020Y-74116228D01*
X125019925Y-74592419D02*
X125019925Y-73592419D01*
X125019925Y-73592419D02*
X125400877Y-73592419D01*
X125400877Y-73592419D02*
X125496115Y-73640038D01*
X125496115Y-73640038D02*
X125543734Y-73687657D01*
X125543734Y-73687657D02*
X125591353Y-73782895D01*
X125591353Y-73782895D02*
X125591353Y-73925752D01*
X125591353Y-73925752D02*
X125543734Y-74020990D01*
X125543734Y-74020990D02*
X125496115Y-74068609D01*
X125496115Y-74068609D02*
X125400877Y-74116228D01*
X125400877Y-74116228D02*
X125019925Y-74116228D01*
X125924687Y-73592419D02*
X126591353Y-74592419D01*
X126591353Y-73592419D02*
X125924687Y-74592419D01*
D11*
X52728132Y-83112400D02*
X52799560Y-83136209D01*
X52799560Y-83136209D02*
X52918608Y-83136209D01*
X52918608Y-83136209D02*
X52966227Y-83112400D01*
X52966227Y-83112400D02*
X52990036Y-83088590D01*
X52990036Y-83088590D02*
X53013846Y-83040971D01*
X53013846Y-83040971D02*
X53013846Y-82993352D01*
X53013846Y-82993352D02*
X52990036Y-82945733D01*
X52990036Y-82945733D02*
X52966227Y-82921923D01*
X52966227Y-82921923D02*
X52918608Y-82898114D01*
X52918608Y-82898114D02*
X52823370Y-82874304D01*
X52823370Y-82874304D02*
X52775751Y-82850495D01*
X52775751Y-82850495D02*
X52751941Y-82826685D01*
X52751941Y-82826685D02*
X52728132Y-82779066D01*
X52728132Y-82779066D02*
X52728132Y-82731447D01*
X52728132Y-82731447D02*
X52751941Y-82683828D01*
X52751941Y-82683828D02*
X52775751Y-82660019D01*
X52775751Y-82660019D02*
X52823370Y-82636209D01*
X52823370Y-82636209D02*
X52942417Y-82636209D01*
X52942417Y-82636209D02*
X53013846Y-82660019D01*
X53204322Y-82993352D02*
X53442417Y-82993352D01*
X53156703Y-83136209D02*
X53323369Y-82636209D01*
X53323369Y-82636209D02*
X53490036Y-83136209D01*
X53585274Y-82636209D02*
X53870988Y-82636209D01*
X53728131Y-83136209D02*
X53728131Y-82636209D01*
D10*
X90001503Y-89153014D02*
X89644360Y-89153014D01*
X89644360Y-89153014D02*
X89608646Y-89510157D01*
X89608646Y-89510157D02*
X89644360Y-89474442D01*
X89644360Y-89474442D02*
X89715789Y-89438728D01*
X89715789Y-89438728D02*
X89894360Y-89438728D01*
X89894360Y-89438728D02*
X89965789Y-89474442D01*
X89965789Y-89474442D02*
X90001503Y-89510157D01*
X90001503Y-89510157D02*
X90037217Y-89581585D01*
X90037217Y-89581585D02*
X90037217Y-89760157D01*
X90037217Y-89760157D02*
X90001503Y-89831585D01*
X90001503Y-89831585D02*
X89965789Y-89867300D01*
X89965789Y-89867300D02*
X89894360Y-89903014D01*
X89894360Y-89903014D02*
X89715789Y-89903014D01*
X89715789Y-89903014D02*
X89644360Y-89867300D01*
X89644360Y-89867300D02*
X89608646Y-89831585D01*
X90251503Y-89153014D02*
X90501503Y-89903014D01*
X90501503Y-89903014D02*
X90751503Y-89153014D01*
X87803884Y-66872419D02*
X87803884Y-65872419D01*
X87803884Y-65872419D02*
X88041979Y-65872419D01*
X88041979Y-65872419D02*
X88184836Y-65920038D01*
X88184836Y-65920038D02*
X88280074Y-66015276D01*
X88280074Y-66015276D02*
X88327693Y-66110514D01*
X88327693Y-66110514D02*
X88375312Y-66300990D01*
X88375312Y-66300990D02*
X88375312Y-66443847D01*
X88375312Y-66443847D02*
X88327693Y-66634323D01*
X88327693Y-66634323D02*
X88280074Y-66729561D01*
X88280074Y-66729561D02*
X88184836Y-66824800D01*
X88184836Y-66824800D02*
X88041979Y-66872419D01*
X88041979Y-66872419D02*
X87803884Y-66872419D01*
X88708646Y-65872419D02*
X89327693Y-65872419D01*
X89327693Y-65872419D02*
X88994360Y-66253371D01*
X88994360Y-66253371D02*
X89137217Y-66253371D01*
X89137217Y-66253371D02*
X89232455Y-66300990D01*
X89232455Y-66300990D02*
X89280074Y-66348609D01*
X89280074Y-66348609D02*
X89327693Y-66443847D01*
X89327693Y-66443847D02*
X89327693Y-66681942D01*
X89327693Y-66681942D02*
X89280074Y-66777180D01*
X89280074Y-66777180D02*
X89232455Y-66824800D01*
X89232455Y-66824800D02*
X89137217Y-66872419D01*
X89137217Y-66872419D02*
X88851503Y-66872419D01*
X88851503Y-66872419D02*
X88756265Y-66824800D01*
X88756265Y-66824800D02*
X88708646Y-66777180D01*
X89708646Y-65967657D02*
X89756265Y-65920038D01*
X89756265Y-65920038D02*
X89851503Y-65872419D01*
X89851503Y-65872419D02*
X90089598Y-65872419D01*
X90089598Y-65872419D02*
X90184836Y-65920038D01*
X90184836Y-65920038D02*
X90232455Y-65967657D01*
X90232455Y-65967657D02*
X90280074Y-66062895D01*
X90280074Y-66062895D02*
X90280074Y-66158133D01*
X90280074Y-66158133D02*
X90232455Y-66300990D01*
X90232455Y-66300990D02*
X89661027Y-66872419D01*
X89661027Y-66872419D02*
X90280074Y-66872419D01*
D11*
X52890036Y-67936209D02*
X52651941Y-67936209D01*
X52651941Y-67936209D02*
X52628132Y-68174304D01*
X52628132Y-68174304D02*
X52651941Y-68150495D01*
X52651941Y-68150495D02*
X52699560Y-68126685D01*
X52699560Y-68126685D02*
X52818608Y-68126685D01*
X52818608Y-68126685D02*
X52866227Y-68150495D01*
X52866227Y-68150495D02*
X52890036Y-68174304D01*
X52890036Y-68174304D02*
X52913846Y-68221923D01*
X52913846Y-68221923D02*
X52913846Y-68340971D01*
X52913846Y-68340971D02*
X52890036Y-68388590D01*
X52890036Y-68388590D02*
X52866227Y-68412400D01*
X52866227Y-68412400D02*
X52818608Y-68436209D01*
X52818608Y-68436209D02*
X52699560Y-68436209D01*
X52699560Y-68436209D02*
X52651941Y-68412400D01*
X52651941Y-68412400D02*
X52628132Y-68388590D01*
X53056703Y-67936209D02*
X53223369Y-68436209D01*
X53223369Y-68436209D02*
X53390036Y-67936209D01*
D10*
X87803884Y-77032419D02*
X87803884Y-76032419D01*
X87803884Y-76032419D02*
X88041979Y-76032419D01*
X88041979Y-76032419D02*
X88184836Y-76080038D01*
X88184836Y-76080038D02*
X88280074Y-76175276D01*
X88280074Y-76175276D02*
X88327693Y-76270514D01*
X88327693Y-76270514D02*
X88375312Y-76460990D01*
X88375312Y-76460990D02*
X88375312Y-76603847D01*
X88375312Y-76603847D02*
X88327693Y-76794323D01*
X88327693Y-76794323D02*
X88280074Y-76889561D01*
X88280074Y-76889561D02*
X88184836Y-76984800D01*
X88184836Y-76984800D02*
X88041979Y-77032419D01*
X88041979Y-77032419D02*
X87803884Y-77032419D01*
X88756265Y-76127657D02*
X88803884Y-76080038D01*
X88803884Y-76080038D02*
X88899122Y-76032419D01*
X88899122Y-76032419D02*
X89137217Y-76032419D01*
X89137217Y-76032419D02*
X89232455Y-76080038D01*
X89232455Y-76080038D02*
X89280074Y-76127657D01*
X89280074Y-76127657D02*
X89327693Y-76222895D01*
X89327693Y-76222895D02*
X89327693Y-76318133D01*
X89327693Y-76318133D02*
X89280074Y-76460990D01*
X89280074Y-76460990D02*
X88708646Y-77032419D01*
X88708646Y-77032419D02*
X89327693Y-77032419D01*
X89661027Y-76032419D02*
X90327693Y-76032419D01*
X90327693Y-76032419D02*
X89899122Y-77032419D01*
D11*
X52890036Y-62936209D02*
X52651941Y-62936209D01*
X52651941Y-62936209D02*
X52628132Y-63174304D01*
X52628132Y-63174304D02*
X52651941Y-63150495D01*
X52651941Y-63150495D02*
X52699560Y-63126685D01*
X52699560Y-63126685D02*
X52818608Y-63126685D01*
X52818608Y-63126685D02*
X52866227Y-63150495D01*
X52866227Y-63150495D02*
X52890036Y-63174304D01*
X52890036Y-63174304D02*
X52913846Y-63221923D01*
X52913846Y-63221923D02*
X52913846Y-63340971D01*
X52913846Y-63340971D02*
X52890036Y-63388590D01*
X52890036Y-63388590D02*
X52866227Y-63412400D01*
X52866227Y-63412400D02*
X52818608Y-63436209D01*
X52818608Y-63436209D02*
X52699560Y-63436209D01*
X52699560Y-63436209D02*
X52651941Y-63412400D01*
X52651941Y-63412400D02*
X52628132Y-63388590D01*
X53056703Y-62936209D02*
X53223369Y-63436209D01*
X53223369Y-63436209D02*
X53390036Y-62936209D01*
D10*
X125638972Y-65972419D02*
X125162782Y-65972419D01*
X125162782Y-65972419D02*
X125115163Y-66448609D01*
X125115163Y-66448609D02*
X125162782Y-66400990D01*
X125162782Y-66400990D02*
X125258020Y-66353371D01*
X125258020Y-66353371D02*
X125496115Y-66353371D01*
X125496115Y-66353371D02*
X125591353Y-66400990D01*
X125591353Y-66400990D02*
X125638972Y-66448609D01*
X125638972Y-66448609D02*
X125686591Y-66543847D01*
X125686591Y-66543847D02*
X125686591Y-66781942D01*
X125686591Y-66781942D02*
X125638972Y-66877180D01*
X125638972Y-66877180D02*
X125591353Y-66924800D01*
X125591353Y-66924800D02*
X125496115Y-66972419D01*
X125496115Y-66972419D02*
X125258020Y-66972419D01*
X125258020Y-66972419D02*
X125162782Y-66924800D01*
X125162782Y-66924800D02*
X125115163Y-66877180D01*
X125972306Y-65972419D02*
X126305639Y-66972419D01*
X126305639Y-66972419D02*
X126638972Y-65972419D01*
X125115163Y-76132419D02*
X125686591Y-76132419D01*
X125400877Y-77132419D02*
X125400877Y-76132419D01*
X125924687Y-76132419D02*
X126591353Y-77132419D01*
X126591353Y-76132419D02*
X125924687Y-77132419D01*
D12*
G36*
X59425488Y-90925094D02*
G01*
X59454980Y-90925094D01*
X59477878Y-90925094D01*
X59496929Y-90925094D01*
X59512866Y-90923079D01*
X59537596Y-90920881D01*
X59504623Y-91083363D01*
X59477329Y-91230092D01*
X59379236Y-91667485D01*
X59284071Y-92013745D01*
X59174318Y-92338429D01*
X59048866Y-92646456D01*
X59034211Y-92675765D01*
X59023953Y-92700678D01*
X58868438Y-93009098D01*
X58693387Y-93306703D01*
X58498403Y-93594057D01*
X58284996Y-93868242D01*
X58070714Y-94106182D01*
X57855434Y-94310849D01*
X57643941Y-94476902D01*
X57415430Y-94611817D01*
X57174022Y-94714184D01*
X56933478Y-94778147D01*
X56779788Y-94803426D01*
X56625915Y-94811852D01*
X56431170Y-94800898D01*
X56238535Y-94768010D01*
X56046877Y-94712751D01*
X55862880Y-94636494D01*
X55694147Y-94541770D01*
X55539279Y-94428269D01*
X55422298Y-94313718D01*
X55327862Y-94188005D01*
X55254431Y-94049998D01*
X55202217Y-93902406D01*
X55170403Y-93744680D01*
X55159542Y-93575006D01*
X55174391Y-93391765D01*
X55217711Y-93224967D01*
X55288996Y-93071567D01*
X55389517Y-92929231D01*
X55522243Y-92796482D01*
X55711460Y-92663122D01*
X55923343Y-92566924D01*
X56162072Y-92507429D01*
X56433025Y-92486721D01*
X56666888Y-92500561D01*
X56919120Y-92543745D01*
X57192315Y-92619345D01*
X57458319Y-92718105D01*
X57731986Y-92844202D01*
X58014253Y-92999631D01*
X58163180Y-93094153D01*
X58319801Y-93197651D01*
X58078000Y-93355921D01*
X57875779Y-93217731D01*
X57655765Y-93089574D01*
X57427333Y-92975862D01*
X57198909Y-92880013D01*
X56942688Y-92789788D01*
X56694059Y-92723026D01*
X56449901Y-92679691D01*
X56244164Y-92666423D01*
X56036883Y-92681560D01*
X55855280Y-92724897D01*
X55695208Y-92794606D01*
X55553384Y-92890638D01*
X55432431Y-93012437D01*
X55348431Y-93146420D01*
X55297835Y-93295280D01*
X55280443Y-93463265D01*
X55282458Y-93517121D01*
X55288869Y-93570976D01*
X55315927Y-93709155D01*
X55365385Y-93848049D01*
X55439078Y-93988998D01*
X55530509Y-94119214D01*
X55636068Y-94233196D01*
X55756533Y-94332098D01*
X55883846Y-94407699D01*
X56055303Y-94479743D01*
X56239668Y-94535474D01*
X56429727Y-94573532D01*
X56574075Y-94592400D01*
X56714209Y-94598628D01*
X56986236Y-94578146D01*
X57245417Y-94517339D01*
X57494841Y-94415745D01*
X57737058Y-94271036D01*
X57973953Y-94079124D01*
X58177106Y-93868348D01*
X58373766Y-93615259D01*
X58563753Y-93314861D01*
X58746409Y-92961478D01*
X58920638Y-92548820D01*
X58960389Y-92431950D01*
X59000322Y-92314713D01*
X59052529Y-92129150D01*
X59092463Y-91951646D01*
X59167934Y-91568979D01*
X59193030Y-91446247D01*
X59193030Y-91444232D01*
X59193030Y-91442034D01*
X59203654Y-91390560D01*
X59222522Y-91296770D01*
X59239192Y-91224780D01*
X59243405Y-91181732D01*
X59248351Y-91183381D01*
X59247618Y-91178984D01*
X59249633Y-91154987D01*
X59254579Y-91126594D01*
X59197243Y-91134105D01*
X59149249Y-91138318D01*
X59115177Y-91142348D01*
X59077076Y-91142348D01*
X58884185Y-91138318D01*
X58749836Y-91151765D01*
X58638008Y-91189837D01*
X58544016Y-91251341D01*
X58470591Y-91334227D01*
X58426787Y-91431597D01*
X58411575Y-91548096D01*
X58417803Y-91627780D01*
X58436305Y-91703251D01*
X58473260Y-91781911D01*
X58532109Y-91869398D01*
X58716207Y-92070165D01*
X58815492Y-92175678D01*
X58868614Y-92269284D01*
X58881437Y-92314347D01*
X58885833Y-92363623D01*
X58881620Y-92416746D01*
X58873011Y-92473715D01*
X58826959Y-92596480D01*
X58754309Y-92715150D01*
X58662939Y-92814350D01*
X58571493Y-92871953D01*
X58530643Y-92884959D01*
X58489611Y-92889173D01*
X58391545Y-92869574D01*
X58315221Y-92811870D01*
X58266031Y-92725845D01*
X58248726Y-92614766D01*
X58248726Y-92595532D01*
X58256236Y-92555048D01*
X58331880Y-92647195D01*
X58393989Y-92702144D01*
X58459741Y-92736598D01*
X58523133Y-92747390D01*
X58601359Y-92733659D01*
X58659420Y-92694633D01*
X58696936Y-92634492D01*
X58710345Y-92552117D01*
X58708330Y-92513466D01*
X58698072Y-92479028D01*
X58675799Y-92430883D01*
X58637988Y-92379743D01*
X58510676Y-92250600D01*
X58470560Y-92212498D01*
X58434839Y-92174030D01*
X58353209Y-92068160D01*
X58301299Y-91965202D01*
X58271669Y-91853725D01*
X58261182Y-91721936D01*
X58276238Y-91562850D01*
X58320462Y-91417292D01*
X58394192Y-91282183D01*
X58500052Y-91155354D01*
X58627171Y-91049431D01*
X58762071Y-90975769D01*
X58906882Y-90931661D01*
X59064619Y-90916667D01*
X59150715Y-90916667D01*
X59253663Y-90920881D01*
X59276561Y-90920881D01*
X59295429Y-90920881D01*
X59326936Y-90920881D01*
X59358993Y-90920881D01*
X59398377Y-90925094D01*
X59425488Y-90925094D01*
G37*
G36*
X60553707Y-93416737D02*
G01*
X60597671Y-93480118D01*
X60479773Y-93556974D01*
X60333888Y-93627030D01*
X60174993Y-93685198D01*
X59991154Y-93738405D01*
X60010839Y-93621173D01*
X60061313Y-93447878D01*
X60132821Y-93260424D01*
X60241198Y-93021430D01*
X60098499Y-93191240D01*
X59943161Y-93340533D01*
X59742634Y-93511277D01*
X59559761Y-93635457D01*
X59378841Y-93721769D01*
X59254945Y-93745000D01*
X59192232Y-93732052D01*
X59147784Y-93694808D01*
X59120808Y-93637977D01*
X59110598Y-93554490D01*
X59125436Y-93407028D01*
X59165553Y-93259384D01*
X59249701Y-93078254D01*
X59369575Y-92897637D01*
X59529722Y-92716136D01*
X59735982Y-92532883D01*
X59957607Y-92374110D01*
X60182630Y-92246841D01*
X60412056Y-92149083D01*
X60647130Y-92079508D01*
X60832327Y-92045985D01*
X61017707Y-92033346D01*
X61071929Y-92047451D01*
X61090797Y-92089583D01*
X61077791Y-92141606D01*
X61044635Y-92217077D01*
X61040055Y-92232648D01*
X61029431Y-92251332D01*
X60920437Y-92236128D01*
X60824450Y-92225504D01*
X60790928Y-92225504D01*
X60757405Y-92225504D01*
X60569343Y-92235589D01*
X60400904Y-92264578D01*
X60249624Y-92311050D01*
X60105947Y-92377299D01*
X59961944Y-92467498D01*
X59816765Y-92584174D01*
X59783426Y-92611102D01*
X59750087Y-92642426D01*
X59651193Y-92745267D01*
X59568004Y-92848872D01*
X59436479Y-93063379D01*
X59373831Y-93237951D01*
X59353131Y-93408128D01*
X59361838Y-93476043D01*
X59385188Y-93523532D01*
X59422389Y-93555070D01*
X59468902Y-93565481D01*
X59536368Y-93550012D01*
X59638162Y-93490743D01*
X59740271Y-93408021D01*
X59850837Y-93298585D01*
X60020464Y-93097817D01*
X60164811Y-92875800D01*
X60233871Y-92748122D01*
X60290291Y-92628871D01*
X60342681Y-92476280D01*
X60388477Y-92302807D01*
X60436034Y-92341415D01*
X60464680Y-92382857D01*
X60480184Y-92433236D01*
X60486296Y-92509436D01*
X60474660Y-92611561D01*
X60437569Y-92723576D01*
X60379042Y-92834258D01*
X60291390Y-92956767D01*
X60318135Y-92954752D01*
X60353489Y-92948524D01*
X60420167Y-92934052D01*
X60533923Y-92897965D01*
X60521650Y-92925076D01*
X60515239Y-92939914D01*
X60491974Y-92992304D01*
X60439768Y-93120165D01*
X60339201Y-93360867D01*
X60318501Y-93453740D01*
X60333339Y-93489460D01*
X60366311Y-93502466D01*
X60434089Y-93479935D01*
X60553707Y-93416737D01*
G37*
G36*
X62140064Y-93430109D02*
G01*
X62179815Y-93495505D01*
X62042204Y-93583674D01*
X61905591Y-93651577D01*
X61759722Y-93703608D01*
X61582641Y-93746282D01*
X61584839Y-93710928D01*
X61591250Y-93678688D01*
X61641626Y-93487629D01*
X61738346Y-93228975D01*
X61847522Y-92981130D01*
X61982161Y-92707822D01*
X62028140Y-92623192D01*
X62070089Y-92534349D01*
X62116434Y-92449719D01*
X62168274Y-92338527D01*
X62182746Y-92283023D01*
X62171755Y-92246936D01*
X62142445Y-92233930D01*
X62088165Y-92250277D01*
X61973185Y-92324239D01*
X61852352Y-92422130D01*
X61714349Y-92549919D01*
X61605355Y-92664042D01*
X61500575Y-92782377D01*
X61353032Y-92972129D01*
X61215727Y-93184096D01*
X61091993Y-93409852D01*
X60975392Y-93656889D01*
X60956158Y-93658904D01*
X60940038Y-93664949D01*
X60839105Y-93696639D01*
X60678454Y-93760020D01*
X60712343Y-93717522D01*
X60722601Y-93690594D01*
X60741652Y-93645898D01*
X60760519Y-93601202D01*
X60903218Y-93273489D01*
X61096109Y-92805825D01*
X61230198Y-92455214D01*
X61256754Y-92359112D01*
X61263721Y-92300059D01*
X61250348Y-92251149D01*
X61210781Y-92233930D01*
X61204370Y-92233930D01*
X61198142Y-92233930D01*
X61155460Y-92242356D01*
X61050863Y-92273497D01*
X61036025Y-92194180D01*
X61081088Y-92182639D01*
X61116809Y-92172015D01*
X61259141Y-92126219D01*
X61393231Y-92075661D01*
X61487569Y-92038108D01*
X61591983Y-91993595D01*
X61598578Y-92021988D01*
X61598578Y-92039207D01*
X61583189Y-92143267D01*
X61518527Y-92351533D01*
X61427414Y-92582538D01*
X61294679Y-92874518D01*
X61660793Y-92482578D01*
X61944242Y-92229534D01*
X62140891Y-92093545D01*
X62286371Y-92026914D01*
X62394321Y-92008250D01*
X62438821Y-92015810D01*
X62471807Y-92037192D01*
X62493331Y-92070194D01*
X62500933Y-92114678D01*
X62490685Y-92188012D01*
X62452390Y-92300425D01*
X62231655Y-92751786D01*
X62172854Y-92866092D01*
X62110022Y-92996884D01*
X62101413Y-93012454D01*
X62093353Y-93026742D01*
X62023927Y-93170540D01*
X61963110Y-93301699D01*
X61921528Y-93395854D01*
X61909071Y-93455755D01*
X61922261Y-93494040D01*
X61957798Y-93509061D01*
X62004693Y-93498803D01*
X62068806Y-93475722D01*
X62101596Y-93457220D01*
X62140064Y-93430109D01*
G37*
G36*
X63772583Y-93430109D02*
G01*
X63812334Y-93495505D01*
X63674723Y-93583674D01*
X63538110Y-93651577D01*
X63392241Y-93703608D01*
X63215160Y-93746282D01*
X63217358Y-93710928D01*
X63223770Y-93678688D01*
X63274145Y-93487629D01*
X63370865Y-93228975D01*
X63480041Y-92981130D01*
X63614680Y-92707822D01*
X63660659Y-92623192D01*
X63702608Y-92534349D01*
X63748953Y-92449719D01*
X63800793Y-92338527D01*
X63815265Y-92283023D01*
X63804274Y-92246936D01*
X63774965Y-92233930D01*
X63720684Y-92250277D01*
X63605704Y-92324239D01*
X63484871Y-92422130D01*
X63346868Y-92549919D01*
X63237875Y-92664042D01*
X63133094Y-92782377D01*
X62985551Y-92972129D01*
X62848246Y-93184096D01*
X62724512Y-93409852D01*
X62607911Y-93656889D01*
X62588677Y-93658904D01*
X62572557Y-93664949D01*
X62471624Y-93696639D01*
X62310973Y-93760020D01*
X62344862Y-93717522D01*
X62355120Y-93690594D01*
X62374171Y-93645898D01*
X62393039Y-93601202D01*
X62535738Y-93273489D01*
X62728628Y-92805825D01*
X62862718Y-92455214D01*
X62889273Y-92359112D01*
X62896240Y-92300059D01*
X62882868Y-92251149D01*
X62843300Y-92233930D01*
X62836889Y-92233930D01*
X62830661Y-92233930D01*
X62787979Y-92242356D01*
X62683382Y-92273497D01*
X62668545Y-92194180D01*
X62713607Y-92182639D01*
X62749328Y-92172015D01*
X62891660Y-92126219D01*
X63025750Y-92075661D01*
X63120089Y-92038108D01*
X63224502Y-91993595D01*
X63231097Y-92021988D01*
X63231097Y-92039207D01*
X63215708Y-92143267D01*
X63151046Y-92351533D01*
X63059933Y-92582538D01*
X62927198Y-92874518D01*
X63293312Y-92482578D01*
X63576762Y-92229534D01*
X63773410Y-92093545D01*
X63918890Y-92026914D01*
X64026840Y-92008250D01*
X64071340Y-92015810D01*
X64104326Y-92037192D01*
X64125850Y-92070194D01*
X64133452Y-92114678D01*
X64123204Y-92188012D01*
X64084909Y-92300425D01*
X63864174Y-92751786D01*
X63805373Y-92866092D01*
X63742541Y-92996884D01*
X63733932Y-93012454D01*
X63725872Y-93026742D01*
X63656446Y-93170540D01*
X63595629Y-93301699D01*
X63554047Y-93395854D01*
X63541591Y-93455755D01*
X63554780Y-93494040D01*
X63590317Y-93509061D01*
X63637212Y-93498803D01*
X63701325Y-93475722D01*
X63734115Y-93457220D01*
X63772583Y-93430109D01*
G37*
G36*
X65159089Y-92821945D02*
G01*
X65184368Y-92871221D01*
X65190963Y-92900896D01*
X65195176Y-92918299D01*
X65195176Y-92935884D01*
X65185000Y-93009521D01*
X65150662Y-93099649D01*
X65098976Y-93189720D01*
X65025915Y-93288143D01*
X64956123Y-93361966D01*
X64878454Y-93431392D01*
X64691267Y-93583776D01*
X64528393Y-93684183D01*
X64366579Y-93749575D01*
X64240797Y-93768447D01*
X64138905Y-93749588D01*
X64062377Y-93695357D01*
X64013501Y-93611914D01*
X63995699Y-93494406D01*
X64016765Y-93294188D01*
X64075750Y-93085727D01*
X64165292Y-92884206D01*
X64286226Y-92684192D01*
X64432159Y-92500145D01*
X64598002Y-92341458D01*
X64728428Y-92244738D01*
X64863433Y-92160657D01*
X65099555Y-92059541D01*
X65211709Y-92030490D01*
X65306734Y-92021622D01*
X65378737Y-92030073D01*
X65428183Y-92052397D01*
X65460728Y-92090066D01*
X65472147Y-92145087D01*
X65446502Y-92245471D01*
X65374328Y-92361791D01*
X65275043Y-92469136D01*
X65154693Y-92563658D01*
X65051378Y-92622459D01*
X64935423Y-92672834D01*
X64781367Y-92727423D01*
X64660467Y-92748489D01*
X64611739Y-92741568D01*
X64575104Y-92722294D01*
X64546115Y-92689242D01*
X64517402Y-92630886D01*
X64600017Y-92638213D01*
X64652041Y-92640228D01*
X64658269Y-92640228D01*
X64664680Y-92640228D01*
X64675122Y-92640228D01*
X64689593Y-92640228D01*
X64811383Y-92623879D01*
X64926510Y-92586286D01*
X65036723Y-92526655D01*
X65133596Y-92448191D01*
X65188947Y-92373214D01*
X65212761Y-92299326D01*
X65212761Y-92289251D01*
X65212761Y-92278810D01*
X65204651Y-92240272D01*
X65181071Y-92212315D01*
X65145211Y-92195160D01*
X65092777Y-92188684D01*
X64970778Y-92211582D01*
X64844016Y-92275696D01*
X64712674Y-92377728D01*
X64589576Y-92513283D01*
X64459883Y-92705258D01*
X64359682Y-92909872D01*
X64311016Y-93035798D01*
X64275785Y-93158267D01*
X64253573Y-93279455D01*
X64246659Y-93385230D01*
X64258846Y-93475685D01*
X64291172Y-93536355D01*
X64343639Y-93575216D01*
X64417018Y-93588928D01*
X64526561Y-93570427D01*
X64640683Y-93518403D01*
X64778893Y-93412640D01*
X64922418Y-93251140D01*
X65046862Y-93058840D01*
X65159089Y-92821945D01*
G37*
G36*
X66427808Y-92033346D02*
G01*
X66392821Y-92108084D01*
X66103393Y-92108084D01*
X66027189Y-92278627D01*
X65878262Y-92615865D01*
X65792166Y-92808572D01*
X65680975Y-93059898D01*
X65559525Y-93341999D01*
X65530399Y-93468211D01*
X65536464Y-93504811D01*
X65553846Y-93533241D01*
X65580900Y-93552127D01*
X65616861Y-93558703D01*
X65709551Y-93535989D01*
X65836313Y-93479752D01*
X65873866Y-93456854D01*
X65916730Y-93429926D01*
X65951901Y-93490376D01*
X65836130Y-93567496D01*
X65715963Y-93632892D01*
X65546885Y-93698288D01*
X65407117Y-93721552D01*
X65339009Y-93712188D01*
X65289698Y-93686564D01*
X65256922Y-93645979D01*
X65245917Y-93594057D01*
X65260755Y-93506863D01*
X65300872Y-93386695D01*
X65345019Y-93281732D01*
X65418475Y-93113937D01*
X65561174Y-92787140D01*
X65632615Y-92627955D01*
X65773115Y-92307569D01*
X65838145Y-92146186D01*
X65846388Y-92129333D01*
X65850601Y-92116693D01*
X65854998Y-92108084D01*
X65586819Y-92108084D01*
X65621624Y-92033346D01*
X65749363Y-92028437D01*
X65820193Y-92017042D01*
X65875664Y-91986782D01*
X65931018Y-91918490D01*
X65987255Y-91816275D01*
X66049904Y-91662402D01*
X66079030Y-91668080D01*
X66095333Y-91668080D01*
X66143143Y-91666065D01*
X66191320Y-91659654D01*
X66239131Y-91653609D01*
X66294269Y-91641885D01*
X66292070Y-91658738D01*
X66290055Y-91662951D01*
X66287857Y-91671195D01*
X66285842Y-91679438D01*
X66258182Y-91741353D01*
X66214035Y-91848515D01*
X66192969Y-91894677D01*
X66161645Y-91971980D01*
X66150837Y-92004586D01*
X66144792Y-92016493D01*
X66138381Y-92033346D01*
X66427808Y-92033346D01*
G37*
G36*
X67295359Y-92033346D02*
G01*
X67260371Y-92108084D01*
X66970943Y-92108084D01*
X66894740Y-92278627D01*
X66745813Y-92615865D01*
X66659717Y-92808572D01*
X66548525Y-93059898D01*
X66427076Y-93341999D01*
X66397950Y-93468211D01*
X66404015Y-93504811D01*
X66421397Y-93533241D01*
X66448451Y-93552127D01*
X66484412Y-93558703D01*
X66577102Y-93535989D01*
X66703864Y-93479752D01*
X66741416Y-93456854D01*
X66784281Y-93429926D01*
X66819452Y-93490376D01*
X66703681Y-93567496D01*
X66583513Y-93632892D01*
X66414436Y-93698288D01*
X66274668Y-93721552D01*
X66206559Y-93712188D01*
X66157248Y-93686564D01*
X66124473Y-93645979D01*
X66113468Y-93594057D01*
X66128306Y-93506863D01*
X66168422Y-93386695D01*
X66212569Y-93281732D01*
X66286025Y-93113937D01*
X66428724Y-92787140D01*
X66500165Y-92627955D01*
X66640666Y-92307569D01*
X66705696Y-92146186D01*
X66713939Y-92129333D01*
X66718152Y-92116693D01*
X66722548Y-92108084D01*
X66454370Y-92108084D01*
X66489174Y-92033346D01*
X66616913Y-92028437D01*
X66687744Y-92017042D01*
X66743215Y-91986782D01*
X66798569Y-91918490D01*
X66854806Y-91816275D01*
X66917454Y-91662402D01*
X66946580Y-91668080D01*
X66962883Y-91668080D01*
X67010694Y-91666065D01*
X67058871Y-91659654D01*
X67106681Y-91653609D01*
X67161819Y-91641885D01*
X67159621Y-91658738D01*
X67157606Y-91662951D01*
X67155408Y-91671195D01*
X67153393Y-91679438D01*
X67125732Y-91741353D01*
X67081585Y-91848515D01*
X67060519Y-91894677D01*
X67029195Y-91971980D01*
X67018388Y-92004586D01*
X67012343Y-92016493D01*
X67005931Y-92033346D01*
X67295359Y-92033346D01*
G37*
G36*
X74009372Y-90876061D02*
G01*
X74132058Y-90917632D01*
X74234665Y-90984628D01*
X74315066Y-91074937D01*
X74362733Y-91179656D01*
X74379195Y-91303548D01*
X74359052Y-91464223D01*
X74297689Y-91620247D01*
X74190139Y-91775579D01*
X74027119Y-91932779D01*
X73845763Y-92060828D01*
X73638777Y-92169178D01*
X73403039Y-92257353D01*
X73134839Y-92324056D01*
X73098203Y-92378644D01*
X73060467Y-92435247D01*
X72734769Y-92849056D01*
X72279195Y-93350608D01*
X72035563Y-93600469D01*
X71842489Y-93782918D01*
X71815195Y-93808197D01*
X71776910Y-93844284D01*
X71782222Y-93713675D01*
X71782222Y-93640219D01*
X71761156Y-93055136D01*
X71734405Y-92760656D01*
X71696127Y-92470418D01*
X71643736Y-92535814D01*
X71599406Y-92590403D01*
X71540788Y-92659645D01*
X71456891Y-92762411D01*
X71272060Y-92980764D01*
X71150427Y-93127493D01*
X70982632Y-93341449D01*
X70810624Y-93555589D01*
X70642646Y-93769729D01*
X70632022Y-93782369D01*
X70594652Y-93821936D01*
X70573403Y-93126943D01*
X70527241Y-92403557D01*
X70516800Y-92294930D01*
X70506359Y-92202606D01*
X70480726Y-92051474D01*
X70459281Y-91989931D01*
X70426047Y-91955285D01*
X70377948Y-91943586D01*
X70320795Y-91956043D01*
X70228838Y-92000190D01*
X70185057Y-91922520D01*
X70200628Y-91913545D01*
X70207589Y-91910797D01*
X70244408Y-91888632D01*
X70437116Y-91777623D01*
X70439863Y-91775059D01*
X70447740Y-91772311D01*
X70534202Y-91722852D01*
X70692472Y-91621552D01*
X70743518Y-91951835D01*
X70782414Y-92369668D01*
X70804078Y-92824442D01*
X70812567Y-93404370D01*
X70816852Y-93400251D01*
X70820699Y-93392191D01*
X70828393Y-93388344D01*
X70950392Y-93241615D01*
X71162151Y-92975268D01*
X71220952Y-92899614D01*
X71275357Y-92832936D01*
X71284150Y-92819563D01*
X71292576Y-92811137D01*
X71449930Y-92624474D01*
X71676892Y-92360143D01*
X71669932Y-92325704D01*
X71492781Y-92340046D01*
X71358172Y-92378746D01*
X71256673Y-92437629D01*
X71178883Y-92522082D01*
X71126230Y-92637192D01*
X71100968Y-92792452D01*
X71048211Y-92733834D01*
X71035205Y-92668072D01*
X71045830Y-92599562D01*
X71073490Y-92527021D01*
X71151774Y-92418949D01*
X71255536Y-92324422D01*
X71917227Y-92324422D01*
X71952386Y-92510649D01*
X71984822Y-92772669D01*
X72006189Y-93050784D01*
X72016329Y-93346212D01*
X72016329Y-93388344D01*
X72016329Y-93430109D01*
X72016329Y-93488361D01*
X72090151Y-93417653D01*
X72174049Y-93333756D01*
X72358513Y-93132438D01*
X72538948Y-92922878D01*
X72773604Y-92614766D01*
X72948543Y-92345305D01*
X72820865Y-92353182D01*
X72694836Y-92361608D01*
X72627425Y-92361608D01*
X72560197Y-92361608D01*
X72297697Y-92351167D01*
X71917227Y-92324422D01*
X71255536Y-92324422D01*
X71272426Y-92309035D01*
X71413399Y-92221044D01*
X71559473Y-92167435D01*
X71595743Y-92156627D01*
X71602548Y-92155528D01*
X71992698Y-92155528D01*
X72128436Y-92166885D01*
X72283592Y-92175312D01*
X72573019Y-92192165D01*
X72807859Y-92196378D01*
X72902015Y-92194363D01*
X73030792Y-92188135D01*
X73093806Y-92045436D01*
X73112674Y-91929298D01*
X73101726Y-91874043D01*
X73072740Y-91843752D01*
X73019365Y-91828225D01*
X72885895Y-91817374D01*
X72885895Y-91730362D01*
X73419321Y-91730362D01*
X73390843Y-91838327D01*
X73348429Y-91950547D01*
X73235223Y-92168534D01*
X73261967Y-92162855D01*
X73302084Y-92154429D01*
X73477156Y-92116763D01*
X73601038Y-92079141D01*
X73711330Y-92031544D01*
X73807667Y-91974727D01*
X73940681Y-91871090D01*
X74045254Y-91745750D01*
X74117826Y-91603930D01*
X74149302Y-91462001D01*
X74153515Y-91435622D01*
X74153515Y-91408695D01*
X74139448Y-91301580D01*
X74099069Y-91212878D01*
X74031516Y-91138135D01*
X73944924Y-91083599D01*
X73838181Y-91049184D01*
X73706001Y-91036835D01*
X73534034Y-91052186D01*
X73347271Y-91100570D01*
X73142265Y-91186839D01*
X72915570Y-91317470D01*
X72640697Y-91519381D01*
X72334412Y-91794310D01*
X71992698Y-92155528D01*
X71602548Y-92155528D01*
X71625235Y-92151864D01*
X71522806Y-91896071D01*
X71392368Y-91675322D01*
X71233952Y-91485431D01*
X71046013Y-91323515D01*
X70834401Y-91193819D01*
X70605769Y-91100900D01*
X70356973Y-91044079D01*
X70084124Y-91024562D01*
X69829454Y-91040688D01*
X69601712Y-91087136D01*
X69397079Y-91162010D01*
X69212358Y-91264804D01*
X69045115Y-91396421D01*
X68899903Y-91553771D01*
X68788352Y-91725593D01*
X68708193Y-91913960D01*
X68658941Y-92121891D01*
X68641931Y-92353182D01*
X68656917Y-92568060D01*
X68700478Y-92763519D01*
X68771550Y-92942598D01*
X68870468Y-93107777D01*
X68998953Y-93260849D01*
X69149544Y-93392858D01*
X69311530Y-93494032D01*
X69486638Y-93566453D01*
X69677326Y-93610723D01*
X69886653Y-93625931D01*
X69978428Y-93621718D01*
X70088337Y-93603766D01*
X70099145Y-93652126D01*
X69891783Y-93704699D01*
X69647418Y-93721552D01*
X69438716Y-93706736D01*
X69249909Y-93663755D01*
X69077852Y-93593739D01*
X68920003Y-93496357D01*
X68774555Y-93369842D01*
X68650714Y-93222531D01*
X68554988Y-93062010D01*
X68485911Y-92886386D01*
X68443390Y-92693058D01*
X68428707Y-92478845D01*
X68449786Y-92207581D01*
X68511056Y-91962228D01*
X68611349Y-91738288D01*
X68751908Y-91532256D01*
X68936305Y-91341833D01*
X69145919Y-91183984D01*
X69376831Y-91060483D01*
X69631983Y-90970452D01*
X69915162Y-90914608D01*
X70230853Y-90895235D01*
X70551842Y-90917160D01*
X70832860Y-90979814D01*
X71080059Y-91080194D01*
X71298438Y-91217636D01*
X71453647Y-91354254D01*
X71588893Y-91512834D01*
X71705025Y-91695392D01*
X71802049Y-91904696D01*
X71879126Y-92144171D01*
X72148953Y-91858040D01*
X72405041Y-91606165D01*
X72671781Y-91375609D01*
X72924291Y-91193026D01*
X73164148Y-91052955D01*
X73418046Y-90942665D01*
X73648962Y-90880916D01*
X73861339Y-90861346D01*
X74009372Y-90876061D01*
G37*
D10*
X89237217Y-86588728D02*
X89165789Y-86553014D01*
X89165789Y-86553014D02*
X89058646Y-86553014D01*
X89058646Y-86553014D02*
X88951503Y-86588728D01*
X88951503Y-86588728D02*
X88880074Y-86660157D01*
X88880074Y-86660157D02*
X88844360Y-86731585D01*
X88844360Y-86731585D02*
X88808646Y-86874442D01*
X88808646Y-86874442D02*
X88808646Y-86981585D01*
X88808646Y-86981585D02*
X88844360Y-87124442D01*
X88844360Y-87124442D02*
X88880074Y-87195871D01*
X88880074Y-87195871D02*
X88951503Y-87267300D01*
X88951503Y-87267300D02*
X89058646Y-87303014D01*
X89058646Y-87303014D02*
X89130074Y-87303014D01*
X89130074Y-87303014D02*
X89237217Y-87267300D01*
X89237217Y-87267300D02*
X89272931Y-87231585D01*
X89272931Y-87231585D02*
X89272931Y-86981585D01*
X89272931Y-86981585D02*
X89130074Y-86981585D01*
X89594360Y-87303014D02*
X89594360Y-86553014D01*
X89594360Y-86553014D02*
X90022931Y-87303014D01*
X90022931Y-87303014D02*
X90022931Y-86553014D01*
X90380074Y-87303014D02*
X90380074Y-86553014D01*
X90380074Y-86553014D02*
X90558645Y-86553014D01*
X90558645Y-86553014D02*
X90665788Y-86588728D01*
X90665788Y-86588728D02*
X90737217Y-86660157D01*
X90737217Y-86660157D02*
X90772931Y-86731585D01*
X90772931Y-86731585D02*
X90808645Y-86874442D01*
X90808645Y-86874442D02*
X90808645Y-86981585D01*
X90808645Y-86981585D02*
X90772931Y-87124442D01*
X90772931Y-87124442D02*
X90737217Y-87195871D01*
X90737217Y-87195871D02*
X90665788Y-87267300D01*
X90665788Y-87267300D02*
X90558645Y-87303014D01*
X90558645Y-87303014D02*
X90380074Y-87303014D01*
X119803884Y-72072419D02*
X119803884Y-71072419D01*
X119803884Y-71072419D02*
X120041979Y-71072419D01*
X120041979Y-71072419D02*
X120184836Y-71120038D01*
X120184836Y-71120038D02*
X120280074Y-71215276D01*
X120280074Y-71215276D02*
X120327693Y-71310514D01*
X120327693Y-71310514D02*
X120375312Y-71500990D01*
X120375312Y-71500990D02*
X120375312Y-71643847D01*
X120375312Y-71643847D02*
X120327693Y-71834323D01*
X120327693Y-71834323D02*
X120280074Y-71929561D01*
X120280074Y-71929561D02*
X120184836Y-72024800D01*
X120184836Y-72024800D02*
X120041979Y-72072419D01*
X120041979Y-72072419D02*
X119803884Y-72072419D01*
X121280074Y-71072419D02*
X120803884Y-71072419D01*
X120803884Y-71072419D02*
X120756265Y-71548609D01*
X120756265Y-71548609D02*
X120803884Y-71500990D01*
X120803884Y-71500990D02*
X120899122Y-71453371D01*
X120899122Y-71453371D02*
X121137217Y-71453371D01*
X121137217Y-71453371D02*
X121232455Y-71500990D01*
X121232455Y-71500990D02*
X121280074Y-71548609D01*
X121280074Y-71548609D02*
X121327693Y-71643847D01*
X121327693Y-71643847D02*
X121327693Y-71881942D01*
X121327693Y-71881942D02*
X121280074Y-71977180D01*
X121280074Y-71977180D02*
X121232455Y-72024800D01*
X121232455Y-72024800D02*
X121137217Y-72072419D01*
X121137217Y-72072419D02*
X120899122Y-72072419D01*
X120899122Y-72072419D02*
X120803884Y-72024800D01*
X120803884Y-72024800D02*
X120756265Y-71977180D01*
X76038972Y-94372419D02*
X75562782Y-94372419D01*
X75562782Y-94372419D02*
X75515163Y-94848609D01*
X75515163Y-94848609D02*
X75562782Y-94800990D01*
X75562782Y-94800990D02*
X75658020Y-94753371D01*
X75658020Y-94753371D02*
X75896115Y-94753371D01*
X75896115Y-94753371D02*
X75991353Y-94800990D01*
X75991353Y-94800990D02*
X76038972Y-94848609D01*
X76038972Y-94848609D02*
X76086591Y-94943847D01*
X76086591Y-94943847D02*
X76086591Y-95181942D01*
X76086591Y-95181942D02*
X76038972Y-95277180D01*
X76038972Y-95277180D02*
X75991353Y-95324800D01*
X75991353Y-95324800D02*
X75896115Y-95372419D01*
X75896115Y-95372419D02*
X75658020Y-95372419D01*
X75658020Y-95372419D02*
X75562782Y-95324800D01*
X75562782Y-95324800D02*
X75515163Y-95277180D01*
X76372306Y-94372419D02*
X76705639Y-95372419D01*
X76705639Y-95372419D02*
X77038972Y-94372419D01*
D11*
X52890036Y-78936209D02*
X52651941Y-78936209D01*
X52651941Y-78936209D02*
X52628132Y-79174304D01*
X52628132Y-79174304D02*
X52651941Y-79150495D01*
X52651941Y-79150495D02*
X52699560Y-79126685D01*
X52699560Y-79126685D02*
X52818608Y-79126685D01*
X52818608Y-79126685D02*
X52866227Y-79150495D01*
X52866227Y-79150495D02*
X52890036Y-79174304D01*
X52890036Y-79174304D02*
X52913846Y-79221923D01*
X52913846Y-79221923D02*
X52913846Y-79340971D01*
X52913846Y-79340971D02*
X52890036Y-79388590D01*
X52890036Y-79388590D02*
X52866227Y-79412400D01*
X52866227Y-79412400D02*
X52818608Y-79436209D01*
X52818608Y-79436209D02*
X52699560Y-79436209D01*
X52699560Y-79436209D02*
X52651941Y-79412400D01*
X52651941Y-79412400D02*
X52628132Y-79388590D01*
X53056703Y-78936209D02*
X53223369Y-79436209D01*
X53223369Y-79436209D02*
X53390036Y-78936209D01*
D10*
X119637217Y-86388728D02*
X119565789Y-86353014D01*
X119565789Y-86353014D02*
X119458646Y-86353014D01*
X119458646Y-86353014D02*
X119351503Y-86388728D01*
X119351503Y-86388728D02*
X119280074Y-86460157D01*
X119280074Y-86460157D02*
X119244360Y-86531585D01*
X119244360Y-86531585D02*
X119208646Y-86674442D01*
X119208646Y-86674442D02*
X119208646Y-86781585D01*
X119208646Y-86781585D02*
X119244360Y-86924442D01*
X119244360Y-86924442D02*
X119280074Y-86995871D01*
X119280074Y-86995871D02*
X119351503Y-87067300D01*
X119351503Y-87067300D02*
X119458646Y-87103014D01*
X119458646Y-87103014D02*
X119530074Y-87103014D01*
X119530074Y-87103014D02*
X119637217Y-87067300D01*
X119637217Y-87067300D02*
X119672931Y-87031585D01*
X119672931Y-87031585D02*
X119672931Y-86781585D01*
X119672931Y-86781585D02*
X119530074Y-86781585D01*
X119994360Y-87103014D02*
X119994360Y-86353014D01*
X119994360Y-86353014D02*
X120422931Y-87103014D01*
X120422931Y-87103014D02*
X120422931Y-86353014D01*
X120780074Y-87103014D02*
X120780074Y-86353014D01*
X120780074Y-86353014D02*
X120958645Y-86353014D01*
X120958645Y-86353014D02*
X121065788Y-86388728D01*
X121065788Y-86388728D02*
X121137217Y-86460157D01*
X121137217Y-86460157D02*
X121172931Y-86531585D01*
X121172931Y-86531585D02*
X121208645Y-86674442D01*
X121208645Y-86674442D02*
X121208645Y-86781585D01*
X121208645Y-86781585D02*
X121172931Y-86924442D01*
X121172931Y-86924442D02*
X121137217Y-86995871D01*
X121137217Y-86995871D02*
X121065788Y-87067300D01*
X121065788Y-87067300D02*
X120958645Y-87103014D01*
X120958645Y-87103014D02*
X120780074Y-87103014D01*
X120375312Y-77072419D02*
X120041979Y-76596228D01*
X119803884Y-77072419D02*
X119803884Y-76072419D01*
X119803884Y-76072419D02*
X120184836Y-76072419D01*
X120184836Y-76072419D02*
X120280074Y-76120038D01*
X120280074Y-76120038D02*
X120327693Y-76167657D01*
X120327693Y-76167657D02*
X120375312Y-76262895D01*
X120375312Y-76262895D02*
X120375312Y-76405752D01*
X120375312Y-76405752D02*
X120327693Y-76500990D01*
X120327693Y-76500990D02*
X120280074Y-76548609D01*
X120280074Y-76548609D02*
X120184836Y-76596228D01*
X120184836Y-76596228D02*
X119803884Y-76596228D01*
X120708646Y-76072419D02*
X121375312Y-77072419D01*
X121375312Y-76072419D02*
X120708646Y-77072419D01*
X121708646Y-76167657D02*
X121756265Y-76120038D01*
X121756265Y-76120038D02*
X121851503Y-76072419D01*
X121851503Y-76072419D02*
X122089598Y-76072419D01*
X122089598Y-76072419D02*
X122184836Y-76120038D01*
X122184836Y-76120038D02*
X122232455Y-76167657D01*
X122232455Y-76167657D02*
X122280074Y-76262895D01*
X122280074Y-76262895D02*
X122280074Y-76358133D01*
X122280074Y-76358133D02*
X122232455Y-76500990D01*
X122232455Y-76500990D02*
X121661027Y-77072419D01*
X121661027Y-77072419D02*
X122280074Y-77072419D01*
X119172931Y-88953014D02*
X119637217Y-88953014D01*
X119637217Y-88953014D02*
X119387217Y-89238728D01*
X119387217Y-89238728D02*
X119494360Y-89238728D01*
X119494360Y-89238728D02*
X119565789Y-89274442D01*
X119565789Y-89274442D02*
X119601503Y-89310157D01*
X119601503Y-89310157D02*
X119637217Y-89381585D01*
X119637217Y-89381585D02*
X119637217Y-89560157D01*
X119637217Y-89560157D02*
X119601503Y-89631585D01*
X119601503Y-89631585D02*
X119565789Y-89667300D01*
X119565789Y-89667300D02*
X119494360Y-89703014D01*
X119494360Y-89703014D02*
X119280074Y-89703014D01*
X119280074Y-89703014D02*
X119208646Y-89667300D01*
X119208646Y-89667300D02*
X119172931Y-89631585D01*
X119958646Y-89631585D02*
X119994360Y-89667300D01*
X119994360Y-89667300D02*
X119958646Y-89703014D01*
X119958646Y-89703014D02*
X119922932Y-89667300D01*
X119922932Y-89667300D02*
X119958646Y-89631585D01*
X119958646Y-89631585D02*
X119958646Y-89703014D01*
X120244360Y-88953014D02*
X120708646Y-88953014D01*
X120708646Y-88953014D02*
X120458646Y-89238728D01*
X120458646Y-89238728D02*
X120565789Y-89238728D01*
X120565789Y-89238728D02*
X120637218Y-89274442D01*
X120637218Y-89274442D02*
X120672932Y-89310157D01*
X120672932Y-89310157D02*
X120708646Y-89381585D01*
X120708646Y-89381585D02*
X120708646Y-89560157D01*
X120708646Y-89560157D02*
X120672932Y-89631585D01*
X120672932Y-89631585D02*
X120637218Y-89667300D01*
X120637218Y-89667300D02*
X120565789Y-89703014D01*
X120565789Y-89703014D02*
X120351503Y-89703014D01*
X120351503Y-89703014D02*
X120280075Y-89667300D01*
X120280075Y-89667300D02*
X120244360Y-89631585D01*
X120922932Y-88953014D02*
X121172932Y-89703014D01*
X121172932Y-89703014D02*
X121422932Y-88953014D01*
X127338973Y-87872419D02*
X127958020Y-87872419D01*
X127958020Y-87872419D02*
X127624687Y-88253371D01*
X127624687Y-88253371D02*
X127767544Y-88253371D01*
X127767544Y-88253371D02*
X127862782Y-88300990D01*
X127862782Y-88300990D02*
X127910401Y-88348609D01*
X127910401Y-88348609D02*
X127958020Y-88443847D01*
X127958020Y-88443847D02*
X127958020Y-88681942D01*
X127958020Y-88681942D02*
X127910401Y-88777180D01*
X127910401Y-88777180D02*
X127862782Y-88824800D01*
X127862782Y-88824800D02*
X127767544Y-88872419D01*
X127767544Y-88872419D02*
X127481830Y-88872419D01*
X127481830Y-88872419D02*
X127386592Y-88824800D01*
X127386592Y-88824800D02*
X127338973Y-88777180D01*
X128386592Y-88777180D02*
X128434211Y-88824800D01*
X128434211Y-88824800D02*
X128386592Y-88872419D01*
X128386592Y-88872419D02*
X128338973Y-88824800D01*
X128338973Y-88824800D02*
X128386592Y-88777180D01*
X128386592Y-88777180D02*
X128386592Y-88872419D01*
X128767544Y-87872419D02*
X129386591Y-87872419D01*
X129386591Y-87872419D02*
X129053258Y-88253371D01*
X129053258Y-88253371D02*
X129196115Y-88253371D01*
X129196115Y-88253371D02*
X129291353Y-88300990D01*
X129291353Y-88300990D02*
X129338972Y-88348609D01*
X129338972Y-88348609D02*
X129386591Y-88443847D01*
X129386591Y-88443847D02*
X129386591Y-88681942D01*
X129386591Y-88681942D02*
X129338972Y-88777180D01*
X129338972Y-88777180D02*
X129291353Y-88824800D01*
X129291353Y-88824800D02*
X129196115Y-88872419D01*
X129196115Y-88872419D02*
X128910401Y-88872419D01*
X128910401Y-88872419D02*
X128815163Y-88824800D01*
X128815163Y-88824800D02*
X128767544Y-88777180D01*
X129672306Y-87872419D02*
X130005639Y-88872419D01*
X130005639Y-88872419D02*
X130338972Y-87872419D01*
D11*
X52890036Y-83936209D02*
X52651941Y-83936209D01*
X52651941Y-83936209D02*
X52628132Y-84174304D01*
X52628132Y-84174304D02*
X52651941Y-84150495D01*
X52651941Y-84150495D02*
X52699560Y-84126685D01*
X52699560Y-84126685D02*
X52818608Y-84126685D01*
X52818608Y-84126685D02*
X52866227Y-84150495D01*
X52866227Y-84150495D02*
X52890036Y-84174304D01*
X52890036Y-84174304D02*
X52913846Y-84221923D01*
X52913846Y-84221923D02*
X52913846Y-84340971D01*
X52913846Y-84340971D02*
X52890036Y-84388590D01*
X52890036Y-84388590D02*
X52866227Y-84412400D01*
X52866227Y-84412400D02*
X52818608Y-84436209D01*
X52818608Y-84436209D02*
X52699560Y-84436209D01*
X52699560Y-84436209D02*
X52651941Y-84412400D01*
X52651941Y-84412400D02*
X52628132Y-84388590D01*
X53056703Y-83936209D02*
X53223369Y-84436209D01*
X53223369Y-84436209D02*
X53390036Y-83936209D01*
D10*
X87803884Y-69412419D02*
X87803884Y-68412419D01*
X87803884Y-68412419D02*
X88041979Y-68412419D01*
X88041979Y-68412419D02*
X88184836Y-68460038D01*
X88184836Y-68460038D02*
X88280074Y-68555276D01*
X88280074Y-68555276D02*
X88327693Y-68650514D01*
X88327693Y-68650514D02*
X88375312Y-68840990D01*
X88375312Y-68840990D02*
X88375312Y-68983847D01*
X88375312Y-68983847D02*
X88327693Y-69174323D01*
X88327693Y-69174323D02*
X88280074Y-69269561D01*
X88280074Y-69269561D02*
X88184836Y-69364800D01*
X88184836Y-69364800D02*
X88041979Y-69412419D01*
X88041979Y-69412419D02*
X87803884Y-69412419D01*
X88708646Y-68412419D02*
X89327693Y-68412419D01*
X89327693Y-68412419D02*
X88994360Y-68793371D01*
X88994360Y-68793371D02*
X89137217Y-68793371D01*
X89137217Y-68793371D02*
X89232455Y-68840990D01*
X89232455Y-68840990D02*
X89280074Y-68888609D01*
X89280074Y-68888609D02*
X89327693Y-68983847D01*
X89327693Y-68983847D02*
X89327693Y-69221942D01*
X89327693Y-69221942D02*
X89280074Y-69317180D01*
X89280074Y-69317180D02*
X89232455Y-69364800D01*
X89232455Y-69364800D02*
X89137217Y-69412419D01*
X89137217Y-69412419D02*
X88851503Y-69412419D01*
X88851503Y-69412419D02*
X88756265Y-69364800D01*
X88756265Y-69364800D02*
X88708646Y-69317180D01*
X89661027Y-68412419D02*
X90280074Y-68412419D01*
X90280074Y-68412419D02*
X89946741Y-68793371D01*
X89946741Y-68793371D02*
X90089598Y-68793371D01*
X90089598Y-68793371D02*
X90184836Y-68840990D01*
X90184836Y-68840990D02*
X90232455Y-68888609D01*
X90232455Y-68888609D02*
X90280074Y-68983847D01*
X90280074Y-68983847D02*
X90280074Y-69221942D01*
X90280074Y-69221942D02*
X90232455Y-69317180D01*
X90232455Y-69317180D02*
X90184836Y-69364800D01*
X90184836Y-69364800D02*
X90089598Y-69412419D01*
X90089598Y-69412419D02*
X89803884Y-69412419D01*
X89803884Y-69412419D02*
X89708646Y-69364800D01*
X89708646Y-69364800D02*
X89661027Y-69317180D01*
D11*
X52751941Y-85036209D02*
X52751941Y-85440971D01*
X52751941Y-85440971D02*
X52775751Y-85488590D01*
X52775751Y-85488590D02*
X52799560Y-85512400D01*
X52799560Y-85512400D02*
X52847179Y-85536209D01*
X52847179Y-85536209D02*
X52942417Y-85536209D01*
X52942417Y-85536209D02*
X52990036Y-85512400D01*
X52990036Y-85512400D02*
X53013846Y-85488590D01*
X53013846Y-85488590D02*
X53037655Y-85440971D01*
X53037655Y-85440971D02*
X53037655Y-85036209D01*
X53561465Y-85536209D02*
X53394799Y-85298114D01*
X53275751Y-85536209D02*
X53275751Y-85036209D01*
X53275751Y-85036209D02*
X53466227Y-85036209D01*
X53466227Y-85036209D02*
X53513846Y-85060019D01*
X53513846Y-85060019D02*
X53537656Y-85083828D01*
X53537656Y-85083828D02*
X53561465Y-85131447D01*
X53561465Y-85131447D02*
X53561465Y-85202876D01*
X53561465Y-85202876D02*
X53537656Y-85250495D01*
X53537656Y-85250495D02*
X53513846Y-85274304D01*
X53513846Y-85274304D02*
X53466227Y-85298114D01*
X53466227Y-85298114D02*
X53275751Y-85298114D01*
X53751942Y-85393352D02*
X53990037Y-85393352D01*
X53704323Y-85536209D02*
X53870989Y-85036209D01*
X53870989Y-85036209D02*
X54037656Y-85536209D01*
D10*
X124305639Y-71052419D02*
X124496115Y-71052419D01*
X124496115Y-71052419D02*
X124591353Y-71100038D01*
X124591353Y-71100038D02*
X124686591Y-71195276D01*
X124686591Y-71195276D02*
X124734210Y-71385752D01*
X124734210Y-71385752D02*
X124734210Y-71719085D01*
X124734210Y-71719085D02*
X124686591Y-71909561D01*
X124686591Y-71909561D02*
X124591353Y-72004800D01*
X124591353Y-72004800D02*
X124496115Y-72052419D01*
X124496115Y-72052419D02*
X124305639Y-72052419D01*
X124305639Y-72052419D02*
X124210401Y-72004800D01*
X124210401Y-72004800D02*
X124115163Y-71909561D01*
X124115163Y-71909561D02*
X124067544Y-71719085D01*
X124067544Y-71719085D02*
X124067544Y-71385752D01*
X124067544Y-71385752D02*
X124115163Y-71195276D01*
X124115163Y-71195276D02*
X124210401Y-71100038D01*
X124210401Y-71100038D02*
X124305639Y-71052419D01*
X125162782Y-71052419D02*
X125162782Y-71861942D01*
X125162782Y-71861942D02*
X125210401Y-71957180D01*
X125210401Y-71957180D02*
X125258020Y-72004800D01*
X125258020Y-72004800D02*
X125353258Y-72052419D01*
X125353258Y-72052419D02*
X125543734Y-72052419D01*
X125543734Y-72052419D02*
X125638972Y-72004800D01*
X125638972Y-72004800D02*
X125686591Y-71957180D01*
X125686591Y-71957180D02*
X125734210Y-71861942D01*
X125734210Y-71861942D02*
X125734210Y-71052419D01*
X126067544Y-71052419D02*
X126638972Y-71052419D01*
X126353258Y-72052419D02*
X126353258Y-71052419D01*
X119661027Y-73472419D02*
X120232455Y-73472419D01*
X119946741Y-74472419D02*
X119946741Y-73472419D01*
X120470551Y-73472419D02*
X121137217Y-74472419D01*
X121137217Y-73472419D02*
X120470551Y-74472419D01*
X121470551Y-73567657D02*
X121518170Y-73520038D01*
X121518170Y-73520038D02*
X121613408Y-73472419D01*
X121613408Y-73472419D02*
X121851503Y-73472419D01*
X121851503Y-73472419D02*
X121946741Y-73520038D01*
X121946741Y-73520038D02*
X121994360Y-73567657D01*
X121994360Y-73567657D02*
X122041979Y-73662895D01*
X122041979Y-73662895D02*
X122041979Y-73758133D01*
X122041979Y-73758133D02*
X121994360Y-73900990D01*
X121994360Y-73900990D02*
X121422932Y-74472419D01*
X121422932Y-74472419D02*
X122041979Y-74472419D01*
X87803884Y-71952419D02*
X87803884Y-70952419D01*
X87803884Y-70952419D02*
X88041979Y-70952419D01*
X88041979Y-70952419D02*
X88184836Y-71000038D01*
X88184836Y-71000038D02*
X88280074Y-71095276D01*
X88280074Y-71095276D02*
X88327693Y-71190514D01*
X88327693Y-71190514D02*
X88375312Y-71380990D01*
X88375312Y-71380990D02*
X88375312Y-71523847D01*
X88375312Y-71523847D02*
X88327693Y-71714323D01*
X88327693Y-71714323D02*
X88280074Y-71809561D01*
X88280074Y-71809561D02*
X88184836Y-71904800D01*
X88184836Y-71904800D02*
X88041979Y-71952419D01*
X88041979Y-71952419D02*
X87803884Y-71952419D01*
X88756265Y-71047657D02*
X88803884Y-71000038D01*
X88803884Y-71000038D02*
X88899122Y-70952419D01*
X88899122Y-70952419D02*
X89137217Y-70952419D01*
X89137217Y-70952419D02*
X89232455Y-71000038D01*
X89232455Y-71000038D02*
X89280074Y-71047657D01*
X89280074Y-71047657D02*
X89327693Y-71142895D01*
X89327693Y-71142895D02*
X89327693Y-71238133D01*
X89327693Y-71238133D02*
X89280074Y-71380990D01*
X89280074Y-71380990D02*
X88708646Y-71952419D01*
X88708646Y-71952419D02*
X89327693Y-71952419D01*
X90232455Y-70952419D02*
X89756265Y-70952419D01*
X89756265Y-70952419D02*
X89708646Y-71428609D01*
X89708646Y-71428609D02*
X89756265Y-71380990D01*
X89756265Y-71380990D02*
X89851503Y-71333371D01*
X89851503Y-71333371D02*
X90089598Y-71333371D01*
X90089598Y-71333371D02*
X90184836Y-71380990D01*
X90184836Y-71380990D02*
X90232455Y-71428609D01*
X90232455Y-71428609D02*
X90280074Y-71523847D01*
X90280074Y-71523847D02*
X90280074Y-71761942D01*
X90280074Y-71761942D02*
X90232455Y-71857180D01*
X90232455Y-71857180D02*
X90184836Y-71904800D01*
X90184836Y-71904800D02*
X90089598Y-71952419D01*
X90089598Y-71952419D02*
X89851503Y-71952419D01*
X89851503Y-71952419D02*
X89756265Y-71904800D01*
X89756265Y-71904800D02*
X89708646Y-71857180D01*
X98166666Y-73433609D02*
X98499999Y-73433609D01*
X98642856Y-73957419D02*
X98166666Y-73957419D01*
X98166666Y-73957419D02*
X98166666Y-72957419D01*
X98166666Y-72957419D02*
X98642856Y-72957419D01*
X99023809Y-73909800D02*
X99166666Y-73957419D01*
X99166666Y-73957419D02*
X99404761Y-73957419D01*
X99404761Y-73957419D02*
X99499999Y-73909800D01*
X99499999Y-73909800D02*
X99547618Y-73862180D01*
X99547618Y-73862180D02*
X99595237Y-73766942D01*
X99595237Y-73766942D02*
X99595237Y-73671704D01*
X99595237Y-73671704D02*
X99547618Y-73576466D01*
X99547618Y-73576466D02*
X99499999Y-73528847D01*
X99499999Y-73528847D02*
X99404761Y-73481228D01*
X99404761Y-73481228D02*
X99214285Y-73433609D01*
X99214285Y-73433609D02*
X99119047Y-73385990D01*
X99119047Y-73385990D02*
X99071428Y-73338371D01*
X99071428Y-73338371D02*
X99023809Y-73243133D01*
X99023809Y-73243133D02*
X99023809Y-73147895D01*
X99023809Y-73147895D02*
X99071428Y-73052657D01*
X99071428Y-73052657D02*
X99119047Y-73005038D01*
X99119047Y-73005038D02*
X99214285Y-72957419D01*
X99214285Y-72957419D02*
X99452380Y-72957419D01*
X99452380Y-72957419D02*
X99595237Y-73005038D01*
X100023809Y-73957419D02*
X100023809Y-72957419D01*
X100023809Y-72957419D02*
X100404761Y-72957419D01*
X100404761Y-72957419D02*
X100499999Y-73005038D01*
X100499999Y-73005038D02*
X100547618Y-73052657D01*
X100547618Y-73052657D02*
X100595237Y-73147895D01*
X100595237Y-73147895D02*
X100595237Y-73290752D01*
X100595237Y-73290752D02*
X100547618Y-73385990D01*
X100547618Y-73385990D02*
X100499999Y-73433609D01*
X100499999Y-73433609D02*
X100404761Y-73481228D01*
X100404761Y-73481228D02*
X100023809Y-73481228D01*
X100928571Y-72957419D02*
X101547618Y-72957419D01*
X101547618Y-72957419D02*
X101214285Y-73338371D01*
X101214285Y-73338371D02*
X101357142Y-73338371D01*
X101357142Y-73338371D02*
X101452380Y-73385990D01*
X101452380Y-73385990D02*
X101499999Y-73433609D01*
X101499999Y-73433609D02*
X101547618Y-73528847D01*
X101547618Y-73528847D02*
X101547618Y-73766942D01*
X101547618Y-73766942D02*
X101499999Y-73862180D01*
X101499999Y-73862180D02*
X101452380Y-73909800D01*
X101452380Y-73909800D02*
X101357142Y-73957419D01*
X101357142Y-73957419D02*
X101071428Y-73957419D01*
X101071428Y-73957419D02*
X100976190Y-73909800D01*
X100976190Y-73909800D02*
X100928571Y-73862180D01*
X101928571Y-73052657D02*
X101976190Y-73005038D01*
X101976190Y-73005038D02*
X102071428Y-72957419D01*
X102071428Y-72957419D02*
X102309523Y-72957419D01*
X102309523Y-72957419D02*
X102404761Y-73005038D01*
X102404761Y-73005038D02*
X102452380Y-73052657D01*
X102452380Y-73052657D02*
X102499999Y-73147895D01*
X102499999Y-73147895D02*
X102499999Y-73243133D01*
X102499999Y-73243133D02*
X102452380Y-73385990D01*
X102452380Y-73385990D02*
X101880952Y-73957419D01*
X101880952Y-73957419D02*
X102499999Y-73957419D01*
X103690476Y-73957419D02*
X103690476Y-72957419D01*
X103690476Y-72957419D02*
X103928571Y-72957419D01*
X103928571Y-72957419D02*
X104071428Y-73005038D01*
X104071428Y-73005038D02*
X104166666Y-73100276D01*
X104166666Y-73100276D02*
X104214285Y-73195514D01*
X104214285Y-73195514D02*
X104261904Y-73385990D01*
X104261904Y-73385990D02*
X104261904Y-73528847D01*
X104261904Y-73528847D02*
X104214285Y-73719323D01*
X104214285Y-73719323D02*
X104166666Y-73814561D01*
X104166666Y-73814561D02*
X104071428Y-73909800D01*
X104071428Y-73909800D02*
X103928571Y-73957419D01*
X103928571Y-73957419D02*
X103690476Y-73957419D01*
X105071428Y-73909800D02*
X104976190Y-73957419D01*
X104976190Y-73957419D02*
X104785714Y-73957419D01*
X104785714Y-73957419D02*
X104690476Y-73909800D01*
X104690476Y-73909800D02*
X104642857Y-73814561D01*
X104642857Y-73814561D02*
X104642857Y-73433609D01*
X104642857Y-73433609D02*
X104690476Y-73338371D01*
X104690476Y-73338371D02*
X104785714Y-73290752D01*
X104785714Y-73290752D02*
X104976190Y-73290752D01*
X104976190Y-73290752D02*
X105071428Y-73338371D01*
X105071428Y-73338371D02*
X105119047Y-73433609D01*
X105119047Y-73433609D02*
X105119047Y-73528847D01*
X105119047Y-73528847D02*
X104642857Y-73624085D01*
X105452381Y-73290752D02*
X105690476Y-73957419D01*
X105690476Y-73957419D02*
X105928571Y-73290752D01*
X107071429Y-73957419D02*
X107071429Y-72957419D01*
X107071429Y-72957419D02*
X107404762Y-73671704D01*
X107404762Y-73671704D02*
X107738095Y-72957419D01*
X107738095Y-72957419D02*
X107738095Y-73957419D01*
X108357143Y-73957419D02*
X108261905Y-73909800D01*
X108261905Y-73909800D02*
X108214286Y-73862180D01*
X108214286Y-73862180D02*
X108166667Y-73766942D01*
X108166667Y-73766942D02*
X108166667Y-73481228D01*
X108166667Y-73481228D02*
X108214286Y-73385990D01*
X108214286Y-73385990D02*
X108261905Y-73338371D01*
X108261905Y-73338371D02*
X108357143Y-73290752D01*
X108357143Y-73290752D02*
X108500000Y-73290752D01*
X108500000Y-73290752D02*
X108595238Y-73338371D01*
X108595238Y-73338371D02*
X108642857Y-73385990D01*
X108642857Y-73385990D02*
X108690476Y-73481228D01*
X108690476Y-73481228D02*
X108690476Y-73766942D01*
X108690476Y-73766942D02*
X108642857Y-73862180D01*
X108642857Y-73862180D02*
X108595238Y-73909800D01*
X108595238Y-73909800D02*
X108500000Y-73957419D01*
X108500000Y-73957419D02*
X108357143Y-73957419D01*
X109547619Y-73957419D02*
X109547619Y-72957419D01*
X109547619Y-73909800D02*
X109452381Y-73957419D01*
X109452381Y-73957419D02*
X109261905Y-73957419D01*
X109261905Y-73957419D02*
X109166667Y-73909800D01*
X109166667Y-73909800D02*
X109119048Y-73862180D01*
X109119048Y-73862180D02*
X109071429Y-73766942D01*
X109071429Y-73766942D02*
X109071429Y-73481228D01*
X109071429Y-73481228D02*
X109119048Y-73385990D01*
X109119048Y-73385990D02*
X109166667Y-73338371D01*
X109166667Y-73338371D02*
X109261905Y-73290752D01*
X109261905Y-73290752D02*
X109452381Y-73290752D01*
X109452381Y-73290752D02*
X109547619Y-73338371D01*
X110452381Y-73290752D02*
X110452381Y-73957419D01*
X110023810Y-73290752D02*
X110023810Y-73814561D01*
X110023810Y-73814561D02*
X110071429Y-73909800D01*
X110071429Y-73909800D02*
X110166667Y-73957419D01*
X110166667Y-73957419D02*
X110309524Y-73957419D01*
X110309524Y-73957419D02*
X110404762Y-73909800D01*
X110404762Y-73909800D02*
X110452381Y-73862180D01*
X111071429Y-73957419D02*
X110976191Y-73909800D01*
X110976191Y-73909800D02*
X110928572Y-73814561D01*
X110928572Y-73814561D02*
X110928572Y-72957419D01*
X111833334Y-73909800D02*
X111738096Y-73957419D01*
X111738096Y-73957419D02*
X111547620Y-73957419D01*
X111547620Y-73957419D02*
X111452382Y-73909800D01*
X111452382Y-73909800D02*
X111404763Y-73814561D01*
X111404763Y-73814561D02*
X111404763Y-73433609D01*
X111404763Y-73433609D02*
X111452382Y-73338371D01*
X111452382Y-73338371D02*
X111547620Y-73290752D01*
X111547620Y-73290752D02*
X111738096Y-73290752D01*
X111738096Y-73290752D02*
X111833334Y-73338371D01*
X111833334Y-73338371D02*
X111880953Y-73433609D01*
X111880953Y-73433609D02*
X111880953Y-73528847D01*
X111880953Y-73528847D02*
X111404763Y-73624085D01*
D11*
X52890036Y-86436209D02*
X52651941Y-86436209D01*
X52651941Y-86436209D02*
X52628132Y-86674304D01*
X52628132Y-86674304D02*
X52651941Y-86650495D01*
X52651941Y-86650495D02*
X52699560Y-86626685D01*
X52699560Y-86626685D02*
X52818608Y-86626685D01*
X52818608Y-86626685D02*
X52866227Y-86650495D01*
X52866227Y-86650495D02*
X52890036Y-86674304D01*
X52890036Y-86674304D02*
X52913846Y-86721923D01*
X52913846Y-86721923D02*
X52913846Y-86840971D01*
X52913846Y-86840971D02*
X52890036Y-86888590D01*
X52890036Y-86888590D02*
X52866227Y-86912400D01*
X52866227Y-86912400D02*
X52818608Y-86936209D01*
X52818608Y-86936209D02*
X52699560Y-86936209D01*
X52699560Y-86936209D02*
X52651941Y-86912400D01*
X52651941Y-86912400D02*
X52628132Y-86888590D01*
X53056703Y-86436209D02*
X53223369Y-86936209D01*
X53223369Y-86936209D02*
X53390036Y-86436209D01*
D10*
X87803884Y-82112419D02*
X87803884Y-81112419D01*
X87803884Y-81112419D02*
X88041979Y-81112419D01*
X88041979Y-81112419D02*
X88184836Y-81160038D01*
X88184836Y-81160038D02*
X88280074Y-81255276D01*
X88280074Y-81255276D02*
X88327693Y-81350514D01*
X88327693Y-81350514D02*
X88375312Y-81540990D01*
X88375312Y-81540990D02*
X88375312Y-81683847D01*
X88375312Y-81683847D02*
X88327693Y-81874323D01*
X88327693Y-81874323D02*
X88280074Y-81969561D01*
X88280074Y-81969561D02*
X88184836Y-82064800D01*
X88184836Y-82064800D02*
X88041979Y-82112419D01*
X88041979Y-82112419D02*
X87803884Y-82112419D01*
X89327693Y-82112419D02*
X88756265Y-82112419D01*
X89041979Y-82112419D02*
X89041979Y-81112419D01*
X89041979Y-81112419D02*
X88946741Y-81255276D01*
X88946741Y-81255276D02*
X88851503Y-81350514D01*
X88851503Y-81350514D02*
X88756265Y-81398133D01*
X89708646Y-81207657D02*
X89756265Y-81160038D01*
X89756265Y-81160038D02*
X89851503Y-81112419D01*
X89851503Y-81112419D02*
X90089598Y-81112419D01*
X90089598Y-81112419D02*
X90184836Y-81160038D01*
X90184836Y-81160038D02*
X90232455Y-81207657D01*
X90232455Y-81207657D02*
X90280074Y-81302895D01*
X90280074Y-81302895D02*
X90280074Y-81398133D01*
X90280074Y-81398133D02*
X90232455Y-81540990D01*
X90232455Y-81540990D02*
X89661027Y-82112419D01*
X89661027Y-82112419D02*
X90280074Y-82112419D01*
X87803884Y-74492419D02*
X87803884Y-73492419D01*
X87803884Y-73492419D02*
X88041979Y-73492419D01*
X88041979Y-73492419D02*
X88184836Y-73540038D01*
X88184836Y-73540038D02*
X88280074Y-73635276D01*
X88280074Y-73635276D02*
X88327693Y-73730514D01*
X88327693Y-73730514D02*
X88375312Y-73920990D01*
X88375312Y-73920990D02*
X88375312Y-74063847D01*
X88375312Y-74063847D02*
X88327693Y-74254323D01*
X88327693Y-74254323D02*
X88280074Y-74349561D01*
X88280074Y-74349561D02*
X88184836Y-74444800D01*
X88184836Y-74444800D02*
X88041979Y-74492419D01*
X88041979Y-74492419D02*
X87803884Y-74492419D01*
X88756265Y-73587657D02*
X88803884Y-73540038D01*
X88803884Y-73540038D02*
X88899122Y-73492419D01*
X88899122Y-73492419D02*
X89137217Y-73492419D01*
X89137217Y-73492419D02*
X89232455Y-73540038D01*
X89232455Y-73540038D02*
X89280074Y-73587657D01*
X89280074Y-73587657D02*
X89327693Y-73682895D01*
X89327693Y-73682895D02*
X89327693Y-73778133D01*
X89327693Y-73778133D02*
X89280074Y-73920990D01*
X89280074Y-73920990D02*
X88708646Y-74492419D01*
X88708646Y-74492419D02*
X89327693Y-74492419D01*
X90184836Y-73492419D02*
X89994360Y-73492419D01*
X89994360Y-73492419D02*
X89899122Y-73540038D01*
X89899122Y-73540038D02*
X89851503Y-73587657D01*
X89851503Y-73587657D02*
X89756265Y-73730514D01*
X89756265Y-73730514D02*
X89708646Y-73920990D01*
X89708646Y-73920990D02*
X89708646Y-74301942D01*
X89708646Y-74301942D02*
X89756265Y-74397180D01*
X89756265Y-74397180D02*
X89803884Y-74444800D01*
X89803884Y-74444800D02*
X89899122Y-74492419D01*
X89899122Y-74492419D02*
X90089598Y-74492419D01*
X90089598Y-74492419D02*
X90184836Y-74444800D01*
X90184836Y-74444800D02*
X90232455Y-74397180D01*
X90232455Y-74397180D02*
X90280074Y-74301942D01*
X90280074Y-74301942D02*
X90280074Y-74063847D01*
X90280074Y-74063847D02*
X90232455Y-73968609D01*
X90232455Y-73968609D02*
X90184836Y-73920990D01*
X90184836Y-73920990D02*
X90089598Y-73873371D01*
X90089598Y-73873371D02*
X89899122Y-73873371D01*
X89899122Y-73873371D02*
X89803884Y-73920990D01*
X89803884Y-73920990D02*
X89756265Y-73968609D01*
X89756265Y-73968609D02*
X89708646Y-74063847D01*
X75048496Y-89220038D02*
X74953258Y-89172419D01*
X74953258Y-89172419D02*
X74810401Y-89172419D01*
X74810401Y-89172419D02*
X74667544Y-89220038D01*
X74667544Y-89220038D02*
X74572306Y-89315276D01*
X74572306Y-89315276D02*
X74524687Y-89410514D01*
X74524687Y-89410514D02*
X74477068Y-89600990D01*
X74477068Y-89600990D02*
X74477068Y-89743847D01*
X74477068Y-89743847D02*
X74524687Y-89934323D01*
X74524687Y-89934323D02*
X74572306Y-90029561D01*
X74572306Y-90029561D02*
X74667544Y-90124800D01*
X74667544Y-90124800D02*
X74810401Y-90172419D01*
X74810401Y-90172419D02*
X74905639Y-90172419D01*
X74905639Y-90172419D02*
X75048496Y-90124800D01*
X75048496Y-90124800D02*
X75096115Y-90077180D01*
X75096115Y-90077180D02*
X75096115Y-89743847D01*
X75096115Y-89743847D02*
X74905639Y-89743847D01*
X75524687Y-90172419D02*
X75524687Y-89172419D01*
X75524687Y-89172419D02*
X76096115Y-90172419D01*
X76096115Y-90172419D02*
X76096115Y-89172419D01*
X76572306Y-90172419D02*
X76572306Y-89172419D01*
X76572306Y-89172419D02*
X76810401Y-89172419D01*
X76810401Y-89172419D02*
X76953258Y-89220038D01*
X76953258Y-89220038D02*
X77048496Y-89315276D01*
X77048496Y-89315276D02*
X77096115Y-89410514D01*
X77096115Y-89410514D02*
X77143734Y-89600990D01*
X77143734Y-89600990D02*
X77143734Y-89743847D01*
X77143734Y-89743847D02*
X77096115Y-89934323D01*
X77096115Y-89934323D02*
X77048496Y-90029561D01*
X77048496Y-90029561D02*
X76953258Y-90124800D01*
X76953258Y-90124800D02*
X76810401Y-90172419D01*
X76810401Y-90172419D02*
X76572306Y-90172419D01*
D11*
X52751941Y-88136209D02*
X52751941Y-87636209D01*
X52751941Y-87636209D02*
X53037655Y-88136209D01*
X53037655Y-88136209D02*
X53037655Y-87636209D01*
X53275751Y-87874304D02*
X53442418Y-87874304D01*
X53513846Y-88136209D02*
X53275751Y-88136209D01*
X53275751Y-88136209D02*
X53275751Y-87636209D01*
X53275751Y-87636209D02*
X53513846Y-87636209D01*
X53728132Y-88136209D02*
X53728132Y-87636209D01*
X53728132Y-87636209D02*
X53918608Y-87636209D01*
X53918608Y-87636209D02*
X53966227Y-87660019D01*
X53966227Y-87660019D02*
X53990037Y-87683828D01*
X53990037Y-87683828D02*
X54013846Y-87731447D01*
X54013846Y-87731447D02*
X54013846Y-87802876D01*
X54013846Y-87802876D02*
X53990037Y-87850495D01*
X53990037Y-87850495D02*
X53966227Y-87874304D01*
X53966227Y-87874304D02*
X53918608Y-87898114D01*
X53918608Y-87898114D02*
X53728132Y-87898114D01*
D10*
X85256265Y-61586704D02*
X85732455Y-61586704D01*
X85161027Y-61872419D02*
X85494360Y-60872419D01*
X85494360Y-60872419D02*
X85827693Y-61872419D01*
X86161027Y-61872419D02*
X86161027Y-60872419D01*
X86161027Y-60872419D02*
X86399122Y-60872419D01*
X86399122Y-60872419D02*
X86541979Y-60920038D01*
X86541979Y-60920038D02*
X86637217Y-61015276D01*
X86637217Y-61015276D02*
X86684836Y-61110514D01*
X86684836Y-61110514D02*
X86732455Y-61300990D01*
X86732455Y-61300990D02*
X86732455Y-61443847D01*
X86732455Y-61443847D02*
X86684836Y-61634323D01*
X86684836Y-61634323D02*
X86637217Y-61729561D01*
X86637217Y-61729561D02*
X86541979Y-61824800D01*
X86541979Y-61824800D02*
X86399122Y-61872419D01*
X86399122Y-61872419D02*
X86161027Y-61872419D01*
X87732455Y-61777180D02*
X87684836Y-61824800D01*
X87684836Y-61824800D02*
X87541979Y-61872419D01*
X87541979Y-61872419D02*
X87446741Y-61872419D01*
X87446741Y-61872419D02*
X87303884Y-61824800D01*
X87303884Y-61824800D02*
X87208646Y-61729561D01*
X87208646Y-61729561D02*
X87161027Y-61634323D01*
X87161027Y-61634323D02*
X87113408Y-61443847D01*
X87113408Y-61443847D02*
X87113408Y-61300990D01*
X87113408Y-61300990D02*
X87161027Y-61110514D01*
X87161027Y-61110514D02*
X87208646Y-61015276D01*
X87208646Y-61015276D02*
X87303884Y-60920038D01*
X87303884Y-60920038D02*
X87446741Y-60872419D01*
X87446741Y-60872419D02*
X87541979Y-60872419D01*
X87541979Y-60872419D02*
X87684836Y-60920038D01*
X87684836Y-60920038D02*
X87732455Y-60967657D01*
X88827694Y-60872419D02*
X89446741Y-60872419D01*
X89446741Y-60872419D02*
X89113408Y-61253371D01*
X89113408Y-61253371D02*
X89256265Y-61253371D01*
X89256265Y-61253371D02*
X89351503Y-61300990D01*
X89351503Y-61300990D02*
X89399122Y-61348609D01*
X89399122Y-61348609D02*
X89446741Y-61443847D01*
X89446741Y-61443847D02*
X89446741Y-61681942D01*
X89446741Y-61681942D02*
X89399122Y-61777180D01*
X89399122Y-61777180D02*
X89351503Y-61824800D01*
X89351503Y-61824800D02*
X89256265Y-61872419D01*
X89256265Y-61872419D02*
X88970551Y-61872419D01*
X88970551Y-61872419D02*
X88875313Y-61824800D01*
X88875313Y-61824800D02*
X88827694Y-61777180D01*
X90303884Y-61205752D02*
X90303884Y-61872419D01*
X90065789Y-60824800D02*
X89827694Y-61539085D01*
X89827694Y-61539085D02*
X90446741Y-61539085D01*
D11*
X52651941Y-69424304D02*
X52818608Y-69424304D01*
X52890036Y-69686209D02*
X52651941Y-69686209D01*
X52651941Y-69686209D02*
X52651941Y-69186209D01*
X52651941Y-69186209D02*
X52890036Y-69186209D01*
X53080513Y-69543352D02*
X53318608Y-69543352D01*
X53032894Y-69686209D02*
X53199560Y-69186209D01*
X53199560Y-69186209D02*
X53366227Y-69686209D01*
X53818607Y-69686209D02*
X53651941Y-69448114D01*
X53532893Y-69686209D02*
X53532893Y-69186209D01*
X53532893Y-69186209D02*
X53723369Y-69186209D01*
X53723369Y-69186209D02*
X53770988Y-69210019D01*
X53770988Y-69210019D02*
X53794798Y-69233828D01*
X53794798Y-69233828D02*
X53818607Y-69281447D01*
X53818607Y-69281447D02*
X53818607Y-69352876D01*
X53818607Y-69352876D02*
X53794798Y-69400495D01*
X53794798Y-69400495D02*
X53770988Y-69424304D01*
X53770988Y-69424304D02*
X53723369Y-69448114D01*
X53723369Y-69448114D02*
X53532893Y-69448114D01*
X52580513Y-66686209D02*
X52747179Y-67186209D01*
X52747179Y-67186209D02*
X52913846Y-66686209D01*
X53080512Y-66924304D02*
X53247179Y-66924304D01*
X53318607Y-67186209D02*
X53080512Y-67186209D01*
X53080512Y-67186209D02*
X53080512Y-66686209D01*
X53080512Y-66686209D02*
X53318607Y-66686209D01*
X53532893Y-67186209D02*
X53532893Y-66686209D01*
X53532893Y-66686209D02*
X53818607Y-67186209D01*
X53818607Y-67186209D02*
X53818607Y-66686209D01*
D13*
X83333333Y-76954819D02*
X83000000Y-76478628D01*
X82761905Y-76954819D02*
X82761905Y-75954819D01*
X82761905Y-75954819D02*
X83142857Y-75954819D01*
X83142857Y-75954819D02*
X83238095Y-76002438D01*
X83238095Y-76002438D02*
X83285714Y-76050057D01*
X83285714Y-76050057D02*
X83333333Y-76145295D01*
X83333333Y-76145295D02*
X83333333Y-76288152D01*
X83333333Y-76288152D02*
X83285714Y-76383390D01*
X83285714Y-76383390D02*
X83238095Y-76431009D01*
X83238095Y-76431009D02*
X83142857Y-76478628D01*
X83142857Y-76478628D02*
X82761905Y-76478628D01*
X84238095Y-75954819D02*
X83761905Y-75954819D01*
X83761905Y-75954819D02*
X83714286Y-76431009D01*
X83714286Y-76431009D02*
X83761905Y-76383390D01*
X83761905Y-76383390D02*
X83857143Y-76335771D01*
X83857143Y-76335771D02*
X84095238Y-76335771D01*
X84095238Y-76335771D02*
X84190476Y-76383390D01*
X84190476Y-76383390D02*
X84238095Y-76431009D01*
X84238095Y-76431009D02*
X84285714Y-76526247D01*
X84285714Y-76526247D02*
X84285714Y-76764342D01*
X84285714Y-76764342D02*
X84238095Y-76859580D01*
X84238095Y-76859580D02*
X84190476Y-76907200D01*
X84190476Y-76907200D02*
X84095238Y-76954819D01*
X84095238Y-76954819D02*
X83857143Y-76954819D01*
X83857143Y-76954819D02*
X83761905Y-76907200D01*
X83761905Y-76907200D02*
X83714286Y-76859580D01*
X76733333Y-84359580D02*
X76685714Y-84407200D01*
X76685714Y-84407200D02*
X76542857Y-84454819D01*
X76542857Y-84454819D02*
X76447619Y-84454819D01*
X76447619Y-84454819D02*
X76304762Y-84407200D01*
X76304762Y-84407200D02*
X76209524Y-84311961D01*
X76209524Y-84311961D02*
X76161905Y-84216723D01*
X76161905Y-84216723D02*
X76114286Y-84026247D01*
X76114286Y-84026247D02*
X76114286Y-83883390D01*
X76114286Y-83883390D02*
X76161905Y-83692914D01*
X76161905Y-83692914D02*
X76209524Y-83597676D01*
X76209524Y-83597676D02*
X76304762Y-83502438D01*
X76304762Y-83502438D02*
X76447619Y-83454819D01*
X76447619Y-83454819D02*
X76542857Y-83454819D01*
X76542857Y-83454819D02*
X76685714Y-83502438D01*
X76685714Y-83502438D02*
X76733333Y-83550057D01*
X77304762Y-83883390D02*
X77209524Y-83835771D01*
X77209524Y-83835771D02*
X77161905Y-83788152D01*
X77161905Y-83788152D02*
X77114286Y-83692914D01*
X77114286Y-83692914D02*
X77114286Y-83645295D01*
X77114286Y-83645295D02*
X77161905Y-83550057D01*
X77161905Y-83550057D02*
X77209524Y-83502438D01*
X77209524Y-83502438D02*
X77304762Y-83454819D01*
X77304762Y-83454819D02*
X77495238Y-83454819D01*
X77495238Y-83454819D02*
X77590476Y-83502438D01*
X77590476Y-83502438D02*
X77638095Y-83550057D01*
X77638095Y-83550057D02*
X77685714Y-83645295D01*
X77685714Y-83645295D02*
X77685714Y-83692914D01*
X77685714Y-83692914D02*
X77638095Y-83788152D01*
X77638095Y-83788152D02*
X77590476Y-83835771D01*
X77590476Y-83835771D02*
X77495238Y-83883390D01*
X77495238Y-83883390D02*
X77304762Y-83883390D01*
X77304762Y-83883390D02*
X77209524Y-83931009D01*
X77209524Y-83931009D02*
X77161905Y-83978628D01*
X77161905Y-83978628D02*
X77114286Y-84073866D01*
X77114286Y-84073866D02*
X77114286Y-84264342D01*
X77114286Y-84264342D02*
X77161905Y-84359580D01*
X77161905Y-84359580D02*
X77209524Y-84407200D01*
X77209524Y-84407200D02*
X77304762Y-84454819D01*
X77304762Y-84454819D02*
X77495238Y-84454819D01*
X77495238Y-84454819D02*
X77590476Y-84407200D01*
X77590476Y-84407200D02*
X77638095Y-84359580D01*
X77638095Y-84359580D02*
X77685714Y-84264342D01*
X77685714Y-84264342D02*
X77685714Y-84073866D01*
X77685714Y-84073866D02*
X77638095Y-83978628D01*
X77638095Y-83978628D02*
X77590476Y-83931009D01*
X77590476Y-83931009D02*
X77495238Y-83883390D01*
X58957142Y-83354819D02*
X58623809Y-82878628D01*
X58385714Y-83354819D02*
X58385714Y-82354819D01*
X58385714Y-82354819D02*
X58766666Y-82354819D01*
X58766666Y-82354819D02*
X58861904Y-82402438D01*
X58861904Y-82402438D02*
X58909523Y-82450057D01*
X58909523Y-82450057D02*
X58957142Y-82545295D01*
X58957142Y-82545295D02*
X58957142Y-82688152D01*
X58957142Y-82688152D02*
X58909523Y-82783390D01*
X58909523Y-82783390D02*
X58861904Y-82831009D01*
X58861904Y-82831009D02*
X58766666Y-82878628D01*
X58766666Y-82878628D02*
X58385714Y-82878628D01*
X59909523Y-83354819D02*
X59338095Y-83354819D01*
X59623809Y-83354819D02*
X59623809Y-82354819D01*
X59623809Y-82354819D02*
X59528571Y-82497676D01*
X59528571Y-82497676D02*
X59433333Y-82592914D01*
X59433333Y-82592914D02*
X59338095Y-82640533D01*
X60766666Y-82354819D02*
X60576190Y-82354819D01*
X60576190Y-82354819D02*
X60480952Y-82402438D01*
X60480952Y-82402438D02*
X60433333Y-82450057D01*
X60433333Y-82450057D02*
X60338095Y-82592914D01*
X60338095Y-82592914D02*
X60290476Y-82783390D01*
X60290476Y-82783390D02*
X60290476Y-83164342D01*
X60290476Y-83164342D02*
X60338095Y-83259580D01*
X60338095Y-83259580D02*
X60385714Y-83307200D01*
X60385714Y-83307200D02*
X60480952Y-83354819D01*
X60480952Y-83354819D02*
X60671428Y-83354819D01*
X60671428Y-83354819D02*
X60766666Y-83307200D01*
X60766666Y-83307200D02*
X60814285Y-83259580D01*
X60814285Y-83259580D02*
X60861904Y-83164342D01*
X60861904Y-83164342D02*
X60861904Y-82926247D01*
X60861904Y-82926247D02*
X60814285Y-82831009D01*
X60814285Y-82831009D02*
X60766666Y-82783390D01*
X60766666Y-82783390D02*
X60671428Y-82735771D01*
X60671428Y-82735771D02*
X60480952Y-82735771D01*
X60480952Y-82735771D02*
X60385714Y-82783390D01*
X60385714Y-82783390D02*
X60338095Y-82831009D01*
X60338095Y-82831009D02*
X60290476Y-82926247D01*
X67304761Y-71650057D02*
X67209523Y-71602438D01*
X67209523Y-71602438D02*
X67114285Y-71507200D01*
X67114285Y-71507200D02*
X66971428Y-71364342D01*
X66971428Y-71364342D02*
X66876190Y-71316723D01*
X66876190Y-71316723D02*
X66780952Y-71316723D01*
X66828571Y-71554819D02*
X66733333Y-71507200D01*
X66733333Y-71507200D02*
X66638095Y-71411961D01*
X66638095Y-71411961D02*
X66590476Y-71221485D01*
X66590476Y-71221485D02*
X66590476Y-70888152D01*
X66590476Y-70888152D02*
X66638095Y-70697676D01*
X66638095Y-70697676D02*
X66733333Y-70602438D01*
X66733333Y-70602438D02*
X66828571Y-70554819D01*
X66828571Y-70554819D02*
X67019047Y-70554819D01*
X67019047Y-70554819D02*
X67114285Y-70602438D01*
X67114285Y-70602438D02*
X67209523Y-70697676D01*
X67209523Y-70697676D02*
X67257142Y-70888152D01*
X67257142Y-70888152D02*
X67257142Y-71221485D01*
X67257142Y-71221485D02*
X67209523Y-71411961D01*
X67209523Y-71411961D02*
X67114285Y-71507200D01*
X67114285Y-71507200D02*
X67019047Y-71554819D01*
X67019047Y-71554819D02*
X66828571Y-71554819D01*
X67590476Y-70554819D02*
X68209523Y-70554819D01*
X68209523Y-70554819D02*
X67876190Y-70935771D01*
X67876190Y-70935771D02*
X68019047Y-70935771D01*
X68019047Y-70935771D02*
X68114285Y-70983390D01*
X68114285Y-70983390D02*
X68161904Y-71031009D01*
X68161904Y-71031009D02*
X68209523Y-71126247D01*
X68209523Y-71126247D02*
X68209523Y-71364342D01*
X68209523Y-71364342D02*
X68161904Y-71459580D01*
X68161904Y-71459580D02*
X68114285Y-71507200D01*
X68114285Y-71507200D02*
X68019047Y-71554819D01*
X68019047Y-71554819D02*
X67733333Y-71554819D01*
X67733333Y-71554819D02*
X67638095Y-71507200D01*
X67638095Y-71507200D02*
X67590476Y-71459580D01*
X83333333Y-74454819D02*
X83000000Y-73978628D01*
X82761905Y-74454819D02*
X82761905Y-73454819D01*
X82761905Y-73454819D02*
X83142857Y-73454819D01*
X83142857Y-73454819D02*
X83238095Y-73502438D01*
X83238095Y-73502438D02*
X83285714Y-73550057D01*
X83285714Y-73550057D02*
X83333333Y-73645295D01*
X83333333Y-73645295D02*
X83333333Y-73788152D01*
X83333333Y-73788152D02*
X83285714Y-73883390D01*
X83285714Y-73883390D02*
X83238095Y-73931009D01*
X83238095Y-73931009D02*
X83142857Y-73978628D01*
X83142857Y-73978628D02*
X82761905Y-73978628D01*
X84190476Y-73788152D02*
X84190476Y-74454819D01*
X83952381Y-73407200D02*
X83714286Y-74121485D01*
X83714286Y-74121485D02*
X84333333Y-74121485D01*
X67304761Y-75150057D02*
X67209523Y-75102438D01*
X67209523Y-75102438D02*
X67114285Y-75007200D01*
X67114285Y-75007200D02*
X66971428Y-74864342D01*
X66971428Y-74864342D02*
X66876190Y-74816723D01*
X66876190Y-74816723D02*
X66780952Y-74816723D01*
X66828571Y-75054819D02*
X66733333Y-75007200D01*
X66733333Y-75007200D02*
X66638095Y-74911961D01*
X66638095Y-74911961D02*
X66590476Y-74721485D01*
X66590476Y-74721485D02*
X66590476Y-74388152D01*
X66590476Y-74388152D02*
X66638095Y-74197676D01*
X66638095Y-74197676D02*
X66733333Y-74102438D01*
X66733333Y-74102438D02*
X66828571Y-74054819D01*
X66828571Y-74054819D02*
X67019047Y-74054819D01*
X67019047Y-74054819D02*
X67114285Y-74102438D01*
X67114285Y-74102438D02*
X67209523Y-74197676D01*
X67209523Y-74197676D02*
X67257142Y-74388152D01*
X67257142Y-74388152D02*
X67257142Y-74721485D01*
X67257142Y-74721485D02*
X67209523Y-74911961D01*
X67209523Y-74911961D02*
X67114285Y-75007200D01*
X67114285Y-75007200D02*
X67019047Y-75054819D01*
X67019047Y-75054819D02*
X66828571Y-75054819D01*
X68114285Y-74388152D02*
X68114285Y-75054819D01*
X67876190Y-74007200D02*
X67638095Y-74721485D01*
X67638095Y-74721485D02*
X68257142Y-74721485D01*
X58957142Y-80854819D02*
X58623809Y-80378628D01*
X58385714Y-80854819D02*
X58385714Y-79854819D01*
X58385714Y-79854819D02*
X58766666Y-79854819D01*
X58766666Y-79854819D02*
X58861904Y-79902438D01*
X58861904Y-79902438D02*
X58909523Y-79950057D01*
X58909523Y-79950057D02*
X58957142Y-80045295D01*
X58957142Y-80045295D02*
X58957142Y-80188152D01*
X58957142Y-80188152D02*
X58909523Y-80283390D01*
X58909523Y-80283390D02*
X58861904Y-80331009D01*
X58861904Y-80331009D02*
X58766666Y-80378628D01*
X58766666Y-80378628D02*
X58385714Y-80378628D01*
X59909523Y-80854819D02*
X59338095Y-80854819D01*
X59623809Y-80854819D02*
X59623809Y-79854819D01*
X59623809Y-79854819D02*
X59528571Y-79997676D01*
X59528571Y-79997676D02*
X59433333Y-80092914D01*
X59433333Y-80092914D02*
X59338095Y-80140533D01*
X60814285Y-79854819D02*
X60338095Y-79854819D01*
X60338095Y-79854819D02*
X60290476Y-80331009D01*
X60290476Y-80331009D02*
X60338095Y-80283390D01*
X60338095Y-80283390D02*
X60433333Y-80235771D01*
X60433333Y-80235771D02*
X60671428Y-80235771D01*
X60671428Y-80235771D02*
X60766666Y-80283390D01*
X60766666Y-80283390D02*
X60814285Y-80331009D01*
X60814285Y-80331009D02*
X60861904Y-80426247D01*
X60861904Y-80426247D02*
X60861904Y-80664342D01*
X60861904Y-80664342D02*
X60814285Y-80759580D01*
X60814285Y-80759580D02*
X60766666Y-80807200D01*
X60766666Y-80807200D02*
X60671428Y-80854819D01*
X60671428Y-80854819D02*
X60433333Y-80854819D01*
X60433333Y-80854819D02*
X60338095Y-80807200D01*
X60338095Y-80807200D02*
X60290476Y-80759580D01*
X67304761Y-78650057D02*
X67209523Y-78602438D01*
X67209523Y-78602438D02*
X67114285Y-78507200D01*
X67114285Y-78507200D02*
X66971428Y-78364342D01*
X66971428Y-78364342D02*
X66876190Y-78316723D01*
X66876190Y-78316723D02*
X66780952Y-78316723D01*
X66828571Y-78554819D02*
X66733333Y-78507200D01*
X66733333Y-78507200D02*
X66638095Y-78411961D01*
X66638095Y-78411961D02*
X66590476Y-78221485D01*
X66590476Y-78221485D02*
X66590476Y-77888152D01*
X66590476Y-77888152D02*
X66638095Y-77697676D01*
X66638095Y-77697676D02*
X66733333Y-77602438D01*
X66733333Y-77602438D02*
X66828571Y-77554819D01*
X66828571Y-77554819D02*
X67019047Y-77554819D01*
X67019047Y-77554819D02*
X67114285Y-77602438D01*
X67114285Y-77602438D02*
X67209523Y-77697676D01*
X67209523Y-77697676D02*
X67257142Y-77888152D01*
X67257142Y-77888152D02*
X67257142Y-78221485D01*
X67257142Y-78221485D02*
X67209523Y-78411961D01*
X67209523Y-78411961D02*
X67114285Y-78507200D01*
X67114285Y-78507200D02*
X67019047Y-78554819D01*
X67019047Y-78554819D02*
X66828571Y-78554819D01*
X68161904Y-77554819D02*
X67685714Y-77554819D01*
X67685714Y-77554819D02*
X67638095Y-78031009D01*
X67638095Y-78031009D02*
X67685714Y-77983390D01*
X67685714Y-77983390D02*
X67780952Y-77935771D01*
X67780952Y-77935771D02*
X68019047Y-77935771D01*
X68019047Y-77935771D02*
X68114285Y-77983390D01*
X68114285Y-77983390D02*
X68161904Y-78031009D01*
X68161904Y-78031009D02*
X68209523Y-78126247D01*
X68209523Y-78126247D02*
X68209523Y-78364342D01*
X68209523Y-78364342D02*
X68161904Y-78459580D01*
X68161904Y-78459580D02*
X68114285Y-78507200D01*
X68114285Y-78507200D02*
X68019047Y-78554819D01*
X68019047Y-78554819D02*
X67780952Y-78554819D01*
X67780952Y-78554819D02*
X67685714Y-78507200D01*
X67685714Y-78507200D02*
X67638095Y-78459580D01*
X128666666Y-78804819D02*
X128666666Y-79519104D01*
X128666666Y-79519104D02*
X128619047Y-79661961D01*
X128619047Y-79661961D02*
X128523809Y-79757200D01*
X128523809Y-79757200D02*
X128380952Y-79804819D01*
X128380952Y-79804819D02*
X128285714Y-79804819D01*
X129047619Y-78804819D02*
X129666666Y-78804819D01*
X129666666Y-78804819D02*
X129333333Y-79185771D01*
X129333333Y-79185771D02*
X129476190Y-79185771D01*
X129476190Y-79185771D02*
X129571428Y-79233390D01*
X129571428Y-79233390D02*
X129619047Y-79281009D01*
X129619047Y-79281009D02*
X129666666Y-79376247D01*
X129666666Y-79376247D02*
X129666666Y-79614342D01*
X129666666Y-79614342D02*
X129619047Y-79709580D01*
X129619047Y-79709580D02*
X129571428Y-79757200D01*
X129571428Y-79757200D02*
X129476190Y-79804819D01*
X129476190Y-79804819D02*
X129190476Y-79804819D01*
X129190476Y-79804819D02*
X129095238Y-79757200D01*
X129095238Y-79757200D02*
X129047619Y-79709580D01*
X83333333Y-79454819D02*
X83000000Y-78978628D01*
X82761905Y-79454819D02*
X82761905Y-78454819D01*
X82761905Y-78454819D02*
X83142857Y-78454819D01*
X83142857Y-78454819D02*
X83238095Y-78502438D01*
X83238095Y-78502438D02*
X83285714Y-78550057D01*
X83285714Y-78550057D02*
X83333333Y-78645295D01*
X83333333Y-78645295D02*
X83333333Y-78788152D01*
X83333333Y-78788152D02*
X83285714Y-78883390D01*
X83285714Y-78883390D02*
X83238095Y-78931009D01*
X83238095Y-78931009D02*
X83142857Y-78978628D01*
X83142857Y-78978628D02*
X82761905Y-78978628D01*
X84190476Y-78454819D02*
X84000000Y-78454819D01*
X84000000Y-78454819D02*
X83904762Y-78502438D01*
X83904762Y-78502438D02*
X83857143Y-78550057D01*
X83857143Y-78550057D02*
X83761905Y-78692914D01*
X83761905Y-78692914D02*
X83714286Y-78883390D01*
X83714286Y-78883390D02*
X83714286Y-79264342D01*
X83714286Y-79264342D02*
X83761905Y-79359580D01*
X83761905Y-79359580D02*
X83809524Y-79407200D01*
X83809524Y-79407200D02*
X83904762Y-79454819D01*
X83904762Y-79454819D02*
X84095238Y-79454819D01*
X84095238Y-79454819D02*
X84190476Y-79407200D01*
X84190476Y-79407200D02*
X84238095Y-79359580D01*
X84238095Y-79359580D02*
X84285714Y-79264342D01*
X84285714Y-79264342D02*
X84285714Y-79026247D01*
X84285714Y-79026247D02*
X84238095Y-78931009D01*
X84238095Y-78931009D02*
X84190476Y-78883390D01*
X84190476Y-78883390D02*
X84095238Y-78835771D01*
X84095238Y-78835771D02*
X83904762Y-78835771D01*
X83904762Y-78835771D02*
X83809524Y-78883390D01*
X83809524Y-78883390D02*
X83761905Y-78931009D01*
X83761905Y-78931009D02*
X83714286Y-79026247D01*
X83333333Y-71954819D02*
X83000000Y-71478628D01*
X82761905Y-71954819D02*
X82761905Y-70954819D01*
X82761905Y-70954819D02*
X83142857Y-70954819D01*
X83142857Y-70954819D02*
X83238095Y-71002438D01*
X83238095Y-71002438D02*
X83285714Y-71050057D01*
X83285714Y-71050057D02*
X83333333Y-71145295D01*
X83333333Y-71145295D02*
X83333333Y-71288152D01*
X83333333Y-71288152D02*
X83285714Y-71383390D01*
X83285714Y-71383390D02*
X83238095Y-71431009D01*
X83238095Y-71431009D02*
X83142857Y-71478628D01*
X83142857Y-71478628D02*
X82761905Y-71478628D01*
X83666667Y-70954819D02*
X84285714Y-70954819D01*
X84285714Y-70954819D02*
X83952381Y-71335771D01*
X83952381Y-71335771D02*
X84095238Y-71335771D01*
X84095238Y-71335771D02*
X84190476Y-71383390D01*
X84190476Y-71383390D02*
X84238095Y-71431009D01*
X84238095Y-71431009D02*
X84285714Y-71526247D01*
X84285714Y-71526247D02*
X84285714Y-71764342D01*
X84285714Y-71764342D02*
X84238095Y-71859580D01*
X84238095Y-71859580D02*
X84190476Y-71907200D01*
X84190476Y-71907200D02*
X84095238Y-71954819D01*
X84095238Y-71954819D02*
X83809524Y-71954819D01*
X83809524Y-71954819D02*
X83714286Y-71907200D01*
X83714286Y-71907200D02*
X83666667Y-71859580D01*
X83333333Y-81954819D02*
X83000000Y-81478628D01*
X82761905Y-81954819D02*
X82761905Y-80954819D01*
X82761905Y-80954819D02*
X83142857Y-80954819D01*
X83142857Y-80954819D02*
X83238095Y-81002438D01*
X83238095Y-81002438D02*
X83285714Y-81050057D01*
X83285714Y-81050057D02*
X83333333Y-81145295D01*
X83333333Y-81145295D02*
X83333333Y-81288152D01*
X83333333Y-81288152D02*
X83285714Y-81383390D01*
X83285714Y-81383390D02*
X83238095Y-81431009D01*
X83238095Y-81431009D02*
X83142857Y-81478628D01*
X83142857Y-81478628D02*
X82761905Y-81478628D01*
X83666667Y-80954819D02*
X84333333Y-80954819D01*
X84333333Y-80954819D02*
X83904762Y-81954819D01*
X83245833Y-66954819D02*
X82912500Y-66478628D01*
X82674405Y-66954819D02*
X82674405Y-65954819D01*
X82674405Y-65954819D02*
X83055357Y-65954819D01*
X83055357Y-65954819D02*
X83150595Y-66002438D01*
X83150595Y-66002438D02*
X83198214Y-66050057D01*
X83198214Y-66050057D02*
X83245833Y-66145295D01*
X83245833Y-66145295D02*
X83245833Y-66288152D01*
X83245833Y-66288152D02*
X83198214Y-66383390D01*
X83198214Y-66383390D02*
X83150595Y-66431009D01*
X83150595Y-66431009D02*
X83055357Y-66478628D01*
X83055357Y-66478628D02*
X82674405Y-66478628D01*
X84198214Y-66954819D02*
X83626786Y-66954819D01*
X83912500Y-66954819D02*
X83912500Y-65954819D01*
X83912500Y-65954819D02*
X83817262Y-66097676D01*
X83817262Y-66097676D02*
X83722024Y-66192914D01*
X83722024Y-66192914D02*
X83626786Y-66240533D01*
X76733333Y-66859580D02*
X76685714Y-66907200D01*
X76685714Y-66907200D02*
X76542857Y-66954819D01*
X76542857Y-66954819D02*
X76447619Y-66954819D01*
X76447619Y-66954819D02*
X76304762Y-66907200D01*
X76304762Y-66907200D02*
X76209524Y-66811961D01*
X76209524Y-66811961D02*
X76161905Y-66716723D01*
X76161905Y-66716723D02*
X76114286Y-66526247D01*
X76114286Y-66526247D02*
X76114286Y-66383390D01*
X76114286Y-66383390D02*
X76161905Y-66192914D01*
X76161905Y-66192914D02*
X76209524Y-66097676D01*
X76209524Y-66097676D02*
X76304762Y-66002438D01*
X76304762Y-66002438D02*
X76447619Y-65954819D01*
X76447619Y-65954819D02*
X76542857Y-65954819D01*
X76542857Y-65954819D02*
X76685714Y-66002438D01*
X76685714Y-66002438D02*
X76733333Y-66050057D01*
X77685714Y-66954819D02*
X77114286Y-66954819D01*
X77400000Y-66954819D02*
X77400000Y-65954819D01*
X77400000Y-65954819D02*
X77304762Y-66097676D01*
X77304762Y-66097676D02*
X77209524Y-66192914D01*
X77209524Y-66192914D02*
X77114286Y-66240533D01*
X58957142Y-72354819D02*
X58623809Y-71878628D01*
X58385714Y-72354819D02*
X58385714Y-71354819D01*
X58385714Y-71354819D02*
X58766666Y-71354819D01*
X58766666Y-71354819D02*
X58861904Y-71402438D01*
X58861904Y-71402438D02*
X58909523Y-71450057D01*
X58909523Y-71450057D02*
X58957142Y-71545295D01*
X58957142Y-71545295D02*
X58957142Y-71688152D01*
X58957142Y-71688152D02*
X58909523Y-71783390D01*
X58909523Y-71783390D02*
X58861904Y-71831009D01*
X58861904Y-71831009D02*
X58766666Y-71878628D01*
X58766666Y-71878628D02*
X58385714Y-71878628D01*
X59909523Y-72354819D02*
X59338095Y-72354819D01*
X59623809Y-72354819D02*
X59623809Y-71354819D01*
X59623809Y-71354819D02*
X59528571Y-71497676D01*
X59528571Y-71497676D02*
X59433333Y-71592914D01*
X59433333Y-71592914D02*
X59338095Y-71640533D01*
X60766666Y-71688152D02*
X60766666Y-72354819D01*
X60528571Y-71307200D02*
X60290476Y-72021485D01*
X60290476Y-72021485D02*
X60909523Y-72021485D01*
X52066666Y-61054819D02*
X52066666Y-61769104D01*
X52066666Y-61769104D02*
X52019047Y-61911961D01*
X52019047Y-61911961D02*
X51923809Y-62007200D01*
X51923809Y-62007200D02*
X51780952Y-62054819D01*
X51780952Y-62054819D02*
X51685714Y-62054819D01*
X53066666Y-62054819D02*
X52495238Y-62054819D01*
X52780952Y-62054819D02*
X52780952Y-61054819D01*
X52780952Y-61054819D02*
X52685714Y-61197676D01*
X52685714Y-61197676D02*
X52590476Y-61292914D01*
X52590476Y-61292914D02*
X52495238Y-61340533D01*
X87833333Y-91059580D02*
X87785714Y-91107200D01*
X87785714Y-91107200D02*
X87642857Y-91154819D01*
X87642857Y-91154819D02*
X87547619Y-91154819D01*
X87547619Y-91154819D02*
X87404762Y-91107200D01*
X87404762Y-91107200D02*
X87309524Y-91011961D01*
X87309524Y-91011961D02*
X87261905Y-90916723D01*
X87261905Y-90916723D02*
X87214286Y-90726247D01*
X87214286Y-90726247D02*
X87214286Y-90583390D01*
X87214286Y-90583390D02*
X87261905Y-90392914D01*
X87261905Y-90392914D02*
X87309524Y-90297676D01*
X87309524Y-90297676D02*
X87404762Y-90202438D01*
X87404762Y-90202438D02*
X87547619Y-90154819D01*
X87547619Y-90154819D02*
X87642857Y-90154819D01*
X87642857Y-90154819D02*
X87785714Y-90202438D01*
X87785714Y-90202438D02*
X87833333Y-90250057D01*
X88309524Y-91154819D02*
X88500000Y-91154819D01*
X88500000Y-91154819D02*
X88595238Y-91107200D01*
X88595238Y-91107200D02*
X88642857Y-91059580D01*
X88642857Y-91059580D02*
X88738095Y-90916723D01*
X88738095Y-90916723D02*
X88785714Y-90726247D01*
X88785714Y-90726247D02*
X88785714Y-90345295D01*
X88785714Y-90345295D02*
X88738095Y-90250057D01*
X88738095Y-90250057D02*
X88690476Y-90202438D01*
X88690476Y-90202438D02*
X88595238Y-90154819D01*
X88595238Y-90154819D02*
X88404762Y-90154819D01*
X88404762Y-90154819D02*
X88309524Y-90202438D01*
X88309524Y-90202438D02*
X88261905Y-90250057D01*
X88261905Y-90250057D02*
X88214286Y-90345295D01*
X88214286Y-90345295D02*
X88214286Y-90583390D01*
X88214286Y-90583390D02*
X88261905Y-90678628D01*
X88261905Y-90678628D02*
X88309524Y-90726247D01*
X88309524Y-90726247D02*
X88404762Y-90773866D01*
X88404762Y-90773866D02*
X88595238Y-90773866D01*
X88595238Y-90773866D02*
X88690476Y-90726247D01*
X88690476Y-90726247D02*
X88738095Y-90678628D01*
X88738095Y-90678628D02*
X88785714Y-90583390D01*
X58957142Y-69854819D02*
X58623809Y-69378628D01*
X58385714Y-69854819D02*
X58385714Y-68854819D01*
X58385714Y-68854819D02*
X58766666Y-68854819D01*
X58766666Y-68854819D02*
X58861904Y-68902438D01*
X58861904Y-68902438D02*
X58909523Y-68950057D01*
X58909523Y-68950057D02*
X58957142Y-69045295D01*
X58957142Y-69045295D02*
X58957142Y-69188152D01*
X58957142Y-69188152D02*
X58909523Y-69283390D01*
X58909523Y-69283390D02*
X58861904Y-69331009D01*
X58861904Y-69331009D02*
X58766666Y-69378628D01*
X58766666Y-69378628D02*
X58385714Y-69378628D01*
X59909523Y-69854819D02*
X59338095Y-69854819D01*
X59623809Y-69854819D02*
X59623809Y-68854819D01*
X59623809Y-68854819D02*
X59528571Y-68997676D01*
X59528571Y-68997676D02*
X59433333Y-69092914D01*
X59433333Y-69092914D02*
X59338095Y-69140533D01*
X60242857Y-68854819D02*
X60861904Y-68854819D01*
X60861904Y-68854819D02*
X60528571Y-69235771D01*
X60528571Y-69235771D02*
X60671428Y-69235771D01*
X60671428Y-69235771D02*
X60766666Y-69283390D01*
X60766666Y-69283390D02*
X60814285Y-69331009D01*
X60814285Y-69331009D02*
X60861904Y-69426247D01*
X60861904Y-69426247D02*
X60861904Y-69664342D01*
X60861904Y-69664342D02*
X60814285Y-69759580D01*
X60814285Y-69759580D02*
X60766666Y-69807200D01*
X60766666Y-69807200D02*
X60671428Y-69854819D01*
X60671428Y-69854819D02*
X60385714Y-69854819D01*
X60385714Y-69854819D02*
X60290476Y-69807200D01*
X60290476Y-69807200D02*
X60242857Y-69759580D01*
X127438095Y-86154819D02*
X128009523Y-86154819D01*
X127723809Y-87154819D02*
X127723809Y-86154819D01*
X128342857Y-87154819D02*
X128342857Y-86154819D01*
X128342857Y-86154819D02*
X128723809Y-86154819D01*
X128723809Y-86154819D02*
X128819047Y-86202438D01*
X128819047Y-86202438D02*
X128866666Y-86250057D01*
X128866666Y-86250057D02*
X128914285Y-86345295D01*
X128914285Y-86345295D02*
X128914285Y-86488152D01*
X128914285Y-86488152D02*
X128866666Y-86583390D01*
X128866666Y-86583390D02*
X128819047Y-86631009D01*
X128819047Y-86631009D02*
X128723809Y-86678628D01*
X128723809Y-86678628D02*
X128342857Y-86678628D01*
X129866666Y-87154819D02*
X129295238Y-87154819D01*
X129580952Y-87154819D02*
X129580952Y-86154819D01*
X129580952Y-86154819D02*
X129485714Y-86297676D01*
X129485714Y-86297676D02*
X129390476Y-86392914D01*
X129390476Y-86392914D02*
X129295238Y-86440533D01*
X74638095Y-87754819D02*
X75209523Y-87754819D01*
X74923809Y-88754819D02*
X74923809Y-87754819D01*
X75542857Y-88754819D02*
X75542857Y-87754819D01*
X75542857Y-87754819D02*
X75923809Y-87754819D01*
X75923809Y-87754819D02*
X76019047Y-87802438D01*
X76019047Y-87802438D02*
X76066666Y-87850057D01*
X76066666Y-87850057D02*
X76114285Y-87945295D01*
X76114285Y-87945295D02*
X76114285Y-88088152D01*
X76114285Y-88088152D02*
X76066666Y-88183390D01*
X76066666Y-88183390D02*
X76019047Y-88231009D01*
X76019047Y-88231009D02*
X75923809Y-88278628D01*
X75923809Y-88278628D02*
X75542857Y-88278628D01*
X76447619Y-87754819D02*
X77066666Y-87754819D01*
X77066666Y-87754819D02*
X76733333Y-88135771D01*
X76733333Y-88135771D02*
X76876190Y-88135771D01*
X76876190Y-88135771D02*
X76971428Y-88183390D01*
X76971428Y-88183390D02*
X77019047Y-88231009D01*
X77019047Y-88231009D02*
X77066666Y-88326247D01*
X77066666Y-88326247D02*
X77066666Y-88564342D01*
X77066666Y-88564342D02*
X77019047Y-88659580D01*
X77019047Y-88659580D02*
X76971428Y-88707200D01*
X76971428Y-88707200D02*
X76876190Y-88754819D01*
X76876190Y-88754819D02*
X76590476Y-88754819D01*
X76590476Y-88754819D02*
X76495238Y-88707200D01*
X76495238Y-88707200D02*
X76447619Y-88659580D01*
X83333333Y-69454819D02*
X83000000Y-68978628D01*
X82761905Y-69454819D02*
X82761905Y-68454819D01*
X82761905Y-68454819D02*
X83142857Y-68454819D01*
X83142857Y-68454819D02*
X83238095Y-68502438D01*
X83238095Y-68502438D02*
X83285714Y-68550057D01*
X83285714Y-68550057D02*
X83333333Y-68645295D01*
X83333333Y-68645295D02*
X83333333Y-68788152D01*
X83333333Y-68788152D02*
X83285714Y-68883390D01*
X83285714Y-68883390D02*
X83238095Y-68931009D01*
X83238095Y-68931009D02*
X83142857Y-68978628D01*
X83142857Y-68978628D02*
X82761905Y-68978628D01*
X83714286Y-68550057D02*
X83761905Y-68502438D01*
X83761905Y-68502438D02*
X83857143Y-68454819D01*
X83857143Y-68454819D02*
X84095238Y-68454819D01*
X84095238Y-68454819D02*
X84190476Y-68502438D01*
X84190476Y-68502438D02*
X84238095Y-68550057D01*
X84238095Y-68550057D02*
X84285714Y-68645295D01*
X84285714Y-68645295D02*
X84285714Y-68740533D01*
X84285714Y-68740533D02*
X84238095Y-68883390D01*
X84238095Y-68883390D02*
X83666667Y-69454819D01*
X83666667Y-69454819D02*
X84285714Y-69454819D01*
X58957142Y-67354819D02*
X58623809Y-66878628D01*
X58385714Y-67354819D02*
X58385714Y-66354819D01*
X58385714Y-66354819D02*
X58766666Y-66354819D01*
X58766666Y-66354819D02*
X58861904Y-66402438D01*
X58861904Y-66402438D02*
X58909523Y-66450057D01*
X58909523Y-66450057D02*
X58957142Y-66545295D01*
X58957142Y-66545295D02*
X58957142Y-66688152D01*
X58957142Y-66688152D02*
X58909523Y-66783390D01*
X58909523Y-66783390D02*
X58861904Y-66831009D01*
X58861904Y-66831009D02*
X58766666Y-66878628D01*
X58766666Y-66878628D02*
X58385714Y-66878628D01*
X59909523Y-67354819D02*
X59338095Y-67354819D01*
X59623809Y-67354819D02*
X59623809Y-66354819D01*
X59623809Y-66354819D02*
X59528571Y-66497676D01*
X59528571Y-66497676D02*
X59433333Y-66592914D01*
X59433333Y-66592914D02*
X59338095Y-66640533D01*
X60290476Y-66450057D02*
X60338095Y-66402438D01*
X60338095Y-66402438D02*
X60433333Y-66354819D01*
X60433333Y-66354819D02*
X60671428Y-66354819D01*
X60671428Y-66354819D02*
X60766666Y-66402438D01*
X60766666Y-66402438D02*
X60814285Y-66450057D01*
X60814285Y-66450057D02*
X60861904Y-66545295D01*
X60861904Y-66545295D02*
X60861904Y-66640533D01*
X60861904Y-66640533D02*
X60814285Y-66783390D01*
X60814285Y-66783390D02*
X60242857Y-67354819D01*
X60242857Y-67354819D02*
X60861904Y-67354819D01*
X52166666Y-76954819D02*
X52166666Y-77669104D01*
X52166666Y-77669104D02*
X52119047Y-77811961D01*
X52119047Y-77811961D02*
X52023809Y-77907200D01*
X52023809Y-77907200D02*
X51880952Y-77954819D01*
X51880952Y-77954819D02*
X51785714Y-77954819D01*
X52595238Y-77050057D02*
X52642857Y-77002438D01*
X52642857Y-77002438D02*
X52738095Y-76954819D01*
X52738095Y-76954819D02*
X52976190Y-76954819D01*
X52976190Y-76954819D02*
X53071428Y-77002438D01*
X53071428Y-77002438D02*
X53119047Y-77050057D01*
X53119047Y-77050057D02*
X53166666Y-77145295D01*
X53166666Y-77145295D02*
X53166666Y-77240533D01*
X53166666Y-77240533D02*
X53119047Y-77383390D01*
X53119047Y-77383390D02*
X52547619Y-77954819D01*
X52547619Y-77954819D02*
X53166666Y-77954819D01*
X67304761Y-82150057D02*
X67209523Y-82102438D01*
X67209523Y-82102438D02*
X67114285Y-82007200D01*
X67114285Y-82007200D02*
X66971428Y-81864342D01*
X66971428Y-81864342D02*
X66876190Y-81816723D01*
X66876190Y-81816723D02*
X66780952Y-81816723D01*
X66828571Y-82054819D02*
X66733333Y-82007200D01*
X66733333Y-82007200D02*
X66638095Y-81911961D01*
X66638095Y-81911961D02*
X66590476Y-81721485D01*
X66590476Y-81721485D02*
X66590476Y-81388152D01*
X66590476Y-81388152D02*
X66638095Y-81197676D01*
X66638095Y-81197676D02*
X66733333Y-81102438D01*
X66733333Y-81102438D02*
X66828571Y-81054819D01*
X66828571Y-81054819D02*
X67019047Y-81054819D01*
X67019047Y-81054819D02*
X67114285Y-81102438D01*
X67114285Y-81102438D02*
X67209523Y-81197676D01*
X67209523Y-81197676D02*
X67257142Y-81388152D01*
X67257142Y-81388152D02*
X67257142Y-81721485D01*
X67257142Y-81721485D02*
X67209523Y-81911961D01*
X67209523Y-81911961D02*
X67114285Y-82007200D01*
X67114285Y-82007200D02*
X67019047Y-82054819D01*
X67019047Y-82054819D02*
X66828571Y-82054819D01*
X68114285Y-81054819D02*
X67923809Y-81054819D01*
X67923809Y-81054819D02*
X67828571Y-81102438D01*
X67828571Y-81102438D02*
X67780952Y-81150057D01*
X67780952Y-81150057D02*
X67685714Y-81292914D01*
X67685714Y-81292914D02*
X67638095Y-81483390D01*
X67638095Y-81483390D02*
X67638095Y-81864342D01*
X67638095Y-81864342D02*
X67685714Y-81959580D01*
X67685714Y-81959580D02*
X67733333Y-82007200D01*
X67733333Y-82007200D02*
X67828571Y-82054819D01*
X67828571Y-82054819D02*
X68019047Y-82054819D01*
X68019047Y-82054819D02*
X68114285Y-82007200D01*
X68114285Y-82007200D02*
X68161904Y-81959580D01*
X68161904Y-81959580D02*
X68209523Y-81864342D01*
X68209523Y-81864342D02*
X68209523Y-81626247D01*
X68209523Y-81626247D02*
X68161904Y-81531009D01*
X68161904Y-81531009D02*
X68114285Y-81483390D01*
X68114285Y-81483390D02*
X68019047Y-81435771D01*
X68019047Y-81435771D02*
X67828571Y-81435771D01*
X67828571Y-81435771D02*
X67733333Y-81483390D01*
X67733333Y-81483390D02*
X67685714Y-81531009D01*
X67685714Y-81531009D02*
X67638095Y-81626247D01*
X76733333Y-76859580D02*
X76685714Y-76907200D01*
X76685714Y-76907200D02*
X76542857Y-76954819D01*
X76542857Y-76954819D02*
X76447619Y-76954819D01*
X76447619Y-76954819D02*
X76304762Y-76907200D01*
X76304762Y-76907200D02*
X76209524Y-76811961D01*
X76209524Y-76811961D02*
X76161905Y-76716723D01*
X76161905Y-76716723D02*
X76114286Y-76526247D01*
X76114286Y-76526247D02*
X76114286Y-76383390D01*
X76114286Y-76383390D02*
X76161905Y-76192914D01*
X76161905Y-76192914D02*
X76209524Y-76097676D01*
X76209524Y-76097676D02*
X76304762Y-76002438D01*
X76304762Y-76002438D02*
X76447619Y-75954819D01*
X76447619Y-75954819D02*
X76542857Y-75954819D01*
X76542857Y-75954819D02*
X76685714Y-76002438D01*
X76685714Y-76002438D02*
X76733333Y-76050057D01*
X77638095Y-75954819D02*
X77161905Y-75954819D01*
X77161905Y-75954819D02*
X77114286Y-76431009D01*
X77114286Y-76431009D02*
X77161905Y-76383390D01*
X77161905Y-76383390D02*
X77257143Y-76335771D01*
X77257143Y-76335771D02*
X77495238Y-76335771D01*
X77495238Y-76335771D02*
X77590476Y-76383390D01*
X77590476Y-76383390D02*
X77638095Y-76431009D01*
X77638095Y-76431009D02*
X77685714Y-76526247D01*
X77685714Y-76526247D02*
X77685714Y-76764342D01*
X77685714Y-76764342D02*
X77638095Y-76859580D01*
X77638095Y-76859580D02*
X77590476Y-76907200D01*
X77590476Y-76907200D02*
X77495238Y-76954819D01*
X77495238Y-76954819D02*
X77257143Y-76954819D01*
X77257143Y-76954819D02*
X77161905Y-76907200D01*
X77161905Y-76907200D02*
X77114286Y-76859580D01*
X76733333Y-74359580D02*
X76685714Y-74407200D01*
X76685714Y-74407200D02*
X76542857Y-74454819D01*
X76542857Y-74454819D02*
X76447619Y-74454819D01*
X76447619Y-74454819D02*
X76304762Y-74407200D01*
X76304762Y-74407200D02*
X76209524Y-74311961D01*
X76209524Y-74311961D02*
X76161905Y-74216723D01*
X76161905Y-74216723D02*
X76114286Y-74026247D01*
X76114286Y-74026247D02*
X76114286Y-73883390D01*
X76114286Y-73883390D02*
X76161905Y-73692914D01*
X76161905Y-73692914D02*
X76209524Y-73597676D01*
X76209524Y-73597676D02*
X76304762Y-73502438D01*
X76304762Y-73502438D02*
X76447619Y-73454819D01*
X76447619Y-73454819D02*
X76542857Y-73454819D01*
X76542857Y-73454819D02*
X76685714Y-73502438D01*
X76685714Y-73502438D02*
X76733333Y-73550057D01*
X77590476Y-73788152D02*
X77590476Y-74454819D01*
X77352381Y-73407200D02*
X77114286Y-74121485D01*
X77114286Y-74121485D02*
X77733333Y-74121485D01*
X76733333Y-71859580D02*
X76685714Y-71907200D01*
X76685714Y-71907200D02*
X76542857Y-71954819D01*
X76542857Y-71954819D02*
X76447619Y-71954819D01*
X76447619Y-71954819D02*
X76304762Y-71907200D01*
X76304762Y-71907200D02*
X76209524Y-71811961D01*
X76209524Y-71811961D02*
X76161905Y-71716723D01*
X76161905Y-71716723D02*
X76114286Y-71526247D01*
X76114286Y-71526247D02*
X76114286Y-71383390D01*
X76114286Y-71383390D02*
X76161905Y-71192914D01*
X76161905Y-71192914D02*
X76209524Y-71097676D01*
X76209524Y-71097676D02*
X76304762Y-71002438D01*
X76304762Y-71002438D02*
X76447619Y-70954819D01*
X76447619Y-70954819D02*
X76542857Y-70954819D01*
X76542857Y-70954819D02*
X76685714Y-71002438D01*
X76685714Y-71002438D02*
X76733333Y-71050057D01*
X77066667Y-70954819D02*
X77685714Y-70954819D01*
X77685714Y-70954819D02*
X77352381Y-71335771D01*
X77352381Y-71335771D02*
X77495238Y-71335771D01*
X77495238Y-71335771D02*
X77590476Y-71383390D01*
X77590476Y-71383390D02*
X77638095Y-71431009D01*
X77638095Y-71431009D02*
X77685714Y-71526247D01*
X77685714Y-71526247D02*
X77685714Y-71764342D01*
X77685714Y-71764342D02*
X77638095Y-71859580D01*
X77638095Y-71859580D02*
X77590476Y-71907200D01*
X77590476Y-71907200D02*
X77495238Y-71954819D01*
X77495238Y-71954819D02*
X77209524Y-71954819D01*
X77209524Y-71954819D02*
X77114286Y-71907200D01*
X77114286Y-71907200D02*
X77066667Y-71859580D01*
X74638095Y-92954819D02*
X75209523Y-92954819D01*
X74923809Y-93954819D02*
X74923809Y-92954819D01*
X75542857Y-93954819D02*
X75542857Y-92954819D01*
X75542857Y-92954819D02*
X75923809Y-92954819D01*
X75923809Y-92954819D02*
X76019047Y-93002438D01*
X76019047Y-93002438D02*
X76066666Y-93050057D01*
X76066666Y-93050057D02*
X76114285Y-93145295D01*
X76114285Y-93145295D02*
X76114285Y-93288152D01*
X76114285Y-93288152D02*
X76066666Y-93383390D01*
X76066666Y-93383390D02*
X76019047Y-93431009D01*
X76019047Y-93431009D02*
X75923809Y-93478628D01*
X75923809Y-93478628D02*
X75542857Y-93478628D01*
X76495238Y-93050057D02*
X76542857Y-93002438D01*
X76542857Y-93002438D02*
X76638095Y-92954819D01*
X76638095Y-92954819D02*
X76876190Y-92954819D01*
X76876190Y-92954819D02*
X76971428Y-93002438D01*
X76971428Y-93002438D02*
X77019047Y-93050057D01*
X77019047Y-93050057D02*
X77066666Y-93145295D01*
X77066666Y-93145295D02*
X77066666Y-93240533D01*
X77066666Y-93240533D02*
X77019047Y-93383390D01*
X77019047Y-93383390D02*
X76447619Y-93954819D01*
X76447619Y-93954819D02*
X77066666Y-93954819D01*
X58957142Y-64854819D02*
X58623809Y-64378628D01*
X58385714Y-64854819D02*
X58385714Y-63854819D01*
X58385714Y-63854819D02*
X58766666Y-63854819D01*
X58766666Y-63854819D02*
X58861904Y-63902438D01*
X58861904Y-63902438D02*
X58909523Y-63950057D01*
X58909523Y-63950057D02*
X58957142Y-64045295D01*
X58957142Y-64045295D02*
X58957142Y-64188152D01*
X58957142Y-64188152D02*
X58909523Y-64283390D01*
X58909523Y-64283390D02*
X58861904Y-64331009D01*
X58861904Y-64331009D02*
X58766666Y-64378628D01*
X58766666Y-64378628D02*
X58385714Y-64378628D01*
X59909523Y-64854819D02*
X59338095Y-64854819D01*
X59623809Y-64854819D02*
X59623809Y-63854819D01*
X59623809Y-63854819D02*
X59528571Y-63997676D01*
X59528571Y-63997676D02*
X59433333Y-64092914D01*
X59433333Y-64092914D02*
X59338095Y-64140533D01*
X60861904Y-64854819D02*
X60290476Y-64854819D01*
X60576190Y-64854819D02*
X60576190Y-63854819D01*
X60576190Y-63854819D02*
X60480952Y-63997676D01*
X60480952Y-63997676D02*
X60385714Y-64092914D01*
X60385714Y-64092914D02*
X60290476Y-64140533D01*
X116238095Y-92454819D02*
X116238095Y-93264342D01*
X116238095Y-93264342D02*
X116285714Y-93359580D01*
X116285714Y-93359580D02*
X116333333Y-93407200D01*
X116333333Y-93407200D02*
X116428571Y-93454819D01*
X116428571Y-93454819D02*
X116619047Y-93454819D01*
X116619047Y-93454819D02*
X116714285Y-93407200D01*
X116714285Y-93407200D02*
X116761904Y-93359580D01*
X116761904Y-93359580D02*
X116809523Y-93264342D01*
X116809523Y-93264342D02*
X116809523Y-92454819D01*
X117238095Y-92550057D02*
X117285714Y-92502438D01*
X117285714Y-92502438D02*
X117380952Y-92454819D01*
X117380952Y-92454819D02*
X117619047Y-92454819D01*
X117619047Y-92454819D02*
X117714285Y-92502438D01*
X117714285Y-92502438D02*
X117761904Y-92550057D01*
X117761904Y-92550057D02*
X117809523Y-92645295D01*
X117809523Y-92645295D02*
X117809523Y-92740533D01*
X117809523Y-92740533D02*
X117761904Y-92883390D01*
X117761904Y-92883390D02*
X117190476Y-93454819D01*
X117190476Y-93454819D02*
X117809523Y-93454819D01*
X76733333Y-81859580D02*
X76685714Y-81907200D01*
X76685714Y-81907200D02*
X76542857Y-81954819D01*
X76542857Y-81954819D02*
X76447619Y-81954819D01*
X76447619Y-81954819D02*
X76304762Y-81907200D01*
X76304762Y-81907200D02*
X76209524Y-81811961D01*
X76209524Y-81811961D02*
X76161905Y-81716723D01*
X76161905Y-81716723D02*
X76114286Y-81526247D01*
X76114286Y-81526247D02*
X76114286Y-81383390D01*
X76114286Y-81383390D02*
X76161905Y-81192914D01*
X76161905Y-81192914D02*
X76209524Y-81097676D01*
X76209524Y-81097676D02*
X76304762Y-81002438D01*
X76304762Y-81002438D02*
X76447619Y-80954819D01*
X76447619Y-80954819D02*
X76542857Y-80954819D01*
X76542857Y-80954819D02*
X76685714Y-81002438D01*
X76685714Y-81002438D02*
X76733333Y-81050057D01*
X77066667Y-80954819D02*
X77733333Y-80954819D01*
X77733333Y-80954819D02*
X77304762Y-81954819D01*
X79357142Y-57859580D02*
X79309523Y-57907200D01*
X79309523Y-57907200D02*
X79166666Y-57954819D01*
X79166666Y-57954819D02*
X79071428Y-57954819D01*
X79071428Y-57954819D02*
X78928571Y-57907200D01*
X78928571Y-57907200D02*
X78833333Y-57811961D01*
X78833333Y-57811961D02*
X78785714Y-57716723D01*
X78785714Y-57716723D02*
X78738095Y-57526247D01*
X78738095Y-57526247D02*
X78738095Y-57383390D01*
X78738095Y-57383390D02*
X78785714Y-57192914D01*
X78785714Y-57192914D02*
X78833333Y-57097676D01*
X78833333Y-57097676D02*
X78928571Y-57002438D01*
X78928571Y-57002438D02*
X79071428Y-56954819D01*
X79071428Y-56954819D02*
X79166666Y-56954819D01*
X79166666Y-56954819D02*
X79309523Y-57002438D01*
X79309523Y-57002438D02*
X79357142Y-57050057D01*
X80309523Y-57954819D02*
X79738095Y-57954819D01*
X80023809Y-57954819D02*
X80023809Y-56954819D01*
X80023809Y-56954819D02*
X79928571Y-57097676D01*
X79928571Y-57097676D02*
X79833333Y-57192914D01*
X79833333Y-57192914D02*
X79738095Y-57240533D01*
X80928571Y-56954819D02*
X81023809Y-56954819D01*
X81023809Y-56954819D02*
X81119047Y-57002438D01*
X81119047Y-57002438D02*
X81166666Y-57050057D01*
X81166666Y-57050057D02*
X81214285Y-57145295D01*
X81214285Y-57145295D02*
X81261904Y-57335771D01*
X81261904Y-57335771D02*
X81261904Y-57573866D01*
X81261904Y-57573866D02*
X81214285Y-57764342D01*
X81214285Y-57764342D02*
X81166666Y-57859580D01*
X81166666Y-57859580D02*
X81119047Y-57907200D01*
X81119047Y-57907200D02*
X81023809Y-57954819D01*
X81023809Y-57954819D02*
X80928571Y-57954819D01*
X80928571Y-57954819D02*
X80833333Y-57907200D01*
X80833333Y-57907200D02*
X80785714Y-57859580D01*
X80785714Y-57859580D02*
X80738095Y-57764342D01*
X80738095Y-57764342D02*
X80690476Y-57573866D01*
X80690476Y-57573866D02*
X80690476Y-57335771D01*
X80690476Y-57335771D02*
X80738095Y-57145295D01*
X80738095Y-57145295D02*
X80785714Y-57050057D01*
X80785714Y-57050057D02*
X80833333Y-57002438D01*
X80833333Y-57002438D02*
X80928571Y-56954819D01*
X67304761Y-85650057D02*
X67209523Y-85602438D01*
X67209523Y-85602438D02*
X67114285Y-85507200D01*
X67114285Y-85507200D02*
X66971428Y-85364342D01*
X66971428Y-85364342D02*
X66876190Y-85316723D01*
X66876190Y-85316723D02*
X66780952Y-85316723D01*
X66828571Y-85554819D02*
X66733333Y-85507200D01*
X66733333Y-85507200D02*
X66638095Y-85411961D01*
X66638095Y-85411961D02*
X66590476Y-85221485D01*
X66590476Y-85221485D02*
X66590476Y-84888152D01*
X66590476Y-84888152D02*
X66638095Y-84697676D01*
X66638095Y-84697676D02*
X66733333Y-84602438D01*
X66733333Y-84602438D02*
X66828571Y-84554819D01*
X66828571Y-84554819D02*
X67019047Y-84554819D01*
X67019047Y-84554819D02*
X67114285Y-84602438D01*
X67114285Y-84602438D02*
X67209523Y-84697676D01*
X67209523Y-84697676D02*
X67257142Y-84888152D01*
X67257142Y-84888152D02*
X67257142Y-85221485D01*
X67257142Y-85221485D02*
X67209523Y-85411961D01*
X67209523Y-85411961D02*
X67114285Y-85507200D01*
X67114285Y-85507200D02*
X67019047Y-85554819D01*
X67019047Y-85554819D02*
X66828571Y-85554819D01*
X67590476Y-84554819D02*
X68257142Y-84554819D01*
X68257142Y-84554819D02*
X67828571Y-85554819D01*
X67304761Y-89150057D02*
X67209523Y-89102438D01*
X67209523Y-89102438D02*
X67114285Y-89007200D01*
X67114285Y-89007200D02*
X66971428Y-88864342D01*
X66971428Y-88864342D02*
X66876190Y-88816723D01*
X66876190Y-88816723D02*
X66780952Y-88816723D01*
X66828571Y-89054819D02*
X66733333Y-89007200D01*
X66733333Y-89007200D02*
X66638095Y-88911961D01*
X66638095Y-88911961D02*
X66590476Y-88721485D01*
X66590476Y-88721485D02*
X66590476Y-88388152D01*
X66590476Y-88388152D02*
X66638095Y-88197676D01*
X66638095Y-88197676D02*
X66733333Y-88102438D01*
X66733333Y-88102438D02*
X66828571Y-88054819D01*
X66828571Y-88054819D02*
X67019047Y-88054819D01*
X67019047Y-88054819D02*
X67114285Y-88102438D01*
X67114285Y-88102438D02*
X67209523Y-88197676D01*
X67209523Y-88197676D02*
X67257142Y-88388152D01*
X67257142Y-88388152D02*
X67257142Y-88721485D01*
X67257142Y-88721485D02*
X67209523Y-88911961D01*
X67209523Y-88911961D02*
X67114285Y-89007200D01*
X67114285Y-89007200D02*
X67019047Y-89054819D01*
X67019047Y-89054819D02*
X66828571Y-89054819D01*
X67828571Y-88483390D02*
X67733333Y-88435771D01*
X67733333Y-88435771D02*
X67685714Y-88388152D01*
X67685714Y-88388152D02*
X67638095Y-88292914D01*
X67638095Y-88292914D02*
X67638095Y-88245295D01*
X67638095Y-88245295D02*
X67685714Y-88150057D01*
X67685714Y-88150057D02*
X67733333Y-88102438D01*
X67733333Y-88102438D02*
X67828571Y-88054819D01*
X67828571Y-88054819D02*
X68019047Y-88054819D01*
X68019047Y-88054819D02*
X68114285Y-88102438D01*
X68114285Y-88102438D02*
X68161904Y-88150057D01*
X68161904Y-88150057D02*
X68209523Y-88245295D01*
X68209523Y-88245295D02*
X68209523Y-88292914D01*
X68209523Y-88292914D02*
X68161904Y-88388152D01*
X68161904Y-88388152D02*
X68114285Y-88435771D01*
X68114285Y-88435771D02*
X68019047Y-88483390D01*
X68019047Y-88483390D02*
X67828571Y-88483390D01*
X67828571Y-88483390D02*
X67733333Y-88531009D01*
X67733333Y-88531009D02*
X67685714Y-88578628D01*
X67685714Y-88578628D02*
X67638095Y-88673866D01*
X67638095Y-88673866D02*
X67638095Y-88864342D01*
X67638095Y-88864342D02*
X67685714Y-88959580D01*
X67685714Y-88959580D02*
X67733333Y-89007200D01*
X67733333Y-89007200D02*
X67828571Y-89054819D01*
X67828571Y-89054819D02*
X68019047Y-89054819D01*
X68019047Y-89054819D02*
X68114285Y-89007200D01*
X68114285Y-89007200D02*
X68161904Y-88959580D01*
X68161904Y-88959580D02*
X68209523Y-88864342D01*
X68209523Y-88864342D02*
X68209523Y-88673866D01*
X68209523Y-88673866D02*
X68161904Y-88578628D01*
X68161904Y-88578628D02*
X68114285Y-88531009D01*
X68114285Y-88531009D02*
X68019047Y-88483390D01*
X72857142Y-57854819D02*
X72523809Y-57378628D01*
X72285714Y-57854819D02*
X72285714Y-56854819D01*
X72285714Y-56854819D02*
X72666666Y-56854819D01*
X72666666Y-56854819D02*
X72761904Y-56902438D01*
X72761904Y-56902438D02*
X72809523Y-56950057D01*
X72809523Y-56950057D02*
X72857142Y-57045295D01*
X72857142Y-57045295D02*
X72857142Y-57188152D01*
X72857142Y-57188152D02*
X72809523Y-57283390D01*
X72809523Y-57283390D02*
X72761904Y-57331009D01*
X72761904Y-57331009D02*
X72666666Y-57378628D01*
X72666666Y-57378628D02*
X72285714Y-57378628D01*
X73809523Y-57854819D02*
X73238095Y-57854819D01*
X73523809Y-57854819D02*
X73523809Y-56854819D01*
X73523809Y-56854819D02*
X73428571Y-56997676D01*
X73428571Y-56997676D02*
X73333333Y-57092914D01*
X73333333Y-57092914D02*
X73238095Y-57140533D01*
X74428571Y-56854819D02*
X74523809Y-56854819D01*
X74523809Y-56854819D02*
X74619047Y-56902438D01*
X74619047Y-56902438D02*
X74666666Y-56950057D01*
X74666666Y-56950057D02*
X74714285Y-57045295D01*
X74714285Y-57045295D02*
X74761904Y-57235771D01*
X74761904Y-57235771D02*
X74761904Y-57473866D01*
X74761904Y-57473866D02*
X74714285Y-57664342D01*
X74714285Y-57664342D02*
X74666666Y-57759580D01*
X74666666Y-57759580D02*
X74619047Y-57807200D01*
X74619047Y-57807200D02*
X74523809Y-57854819D01*
X74523809Y-57854819D02*
X74428571Y-57854819D01*
X74428571Y-57854819D02*
X74333333Y-57807200D01*
X74333333Y-57807200D02*
X74285714Y-57759580D01*
X74285714Y-57759580D02*
X74238095Y-57664342D01*
X74238095Y-57664342D02*
X74190476Y-57473866D01*
X74190476Y-57473866D02*
X74190476Y-57235771D01*
X74190476Y-57235771D02*
X74238095Y-57045295D01*
X74238095Y-57045295D02*
X74285714Y-56950057D01*
X74285714Y-56950057D02*
X74333333Y-56902438D01*
X74333333Y-56902438D02*
X74428571Y-56854819D01*
X76733333Y-69359580D02*
X76685714Y-69407200D01*
X76685714Y-69407200D02*
X76542857Y-69454819D01*
X76542857Y-69454819D02*
X76447619Y-69454819D01*
X76447619Y-69454819D02*
X76304762Y-69407200D01*
X76304762Y-69407200D02*
X76209524Y-69311961D01*
X76209524Y-69311961D02*
X76161905Y-69216723D01*
X76161905Y-69216723D02*
X76114286Y-69026247D01*
X76114286Y-69026247D02*
X76114286Y-68883390D01*
X76114286Y-68883390D02*
X76161905Y-68692914D01*
X76161905Y-68692914D02*
X76209524Y-68597676D01*
X76209524Y-68597676D02*
X76304762Y-68502438D01*
X76304762Y-68502438D02*
X76447619Y-68454819D01*
X76447619Y-68454819D02*
X76542857Y-68454819D01*
X76542857Y-68454819D02*
X76685714Y-68502438D01*
X76685714Y-68502438D02*
X76733333Y-68550057D01*
X77114286Y-68550057D02*
X77161905Y-68502438D01*
X77161905Y-68502438D02*
X77257143Y-68454819D01*
X77257143Y-68454819D02*
X77495238Y-68454819D01*
X77495238Y-68454819D02*
X77590476Y-68502438D01*
X77590476Y-68502438D02*
X77638095Y-68550057D01*
X77638095Y-68550057D02*
X77685714Y-68645295D01*
X77685714Y-68645295D02*
X77685714Y-68740533D01*
X77685714Y-68740533D02*
X77638095Y-68883390D01*
X77638095Y-68883390D02*
X77066667Y-69454819D01*
X77066667Y-69454819D02*
X77685714Y-69454819D01*
X58957142Y-85854819D02*
X58623809Y-85378628D01*
X58385714Y-85854819D02*
X58385714Y-84854819D01*
X58385714Y-84854819D02*
X58766666Y-84854819D01*
X58766666Y-84854819D02*
X58861904Y-84902438D01*
X58861904Y-84902438D02*
X58909523Y-84950057D01*
X58909523Y-84950057D02*
X58957142Y-85045295D01*
X58957142Y-85045295D02*
X58957142Y-85188152D01*
X58957142Y-85188152D02*
X58909523Y-85283390D01*
X58909523Y-85283390D02*
X58861904Y-85331009D01*
X58861904Y-85331009D02*
X58766666Y-85378628D01*
X58766666Y-85378628D02*
X58385714Y-85378628D01*
X59909523Y-85854819D02*
X59338095Y-85854819D01*
X59623809Y-85854819D02*
X59623809Y-84854819D01*
X59623809Y-84854819D02*
X59528571Y-84997676D01*
X59528571Y-84997676D02*
X59433333Y-85092914D01*
X59433333Y-85092914D02*
X59338095Y-85140533D01*
X60242857Y-84854819D02*
X60909523Y-84854819D01*
X60909523Y-84854819D02*
X60480952Y-85854819D01*
X79833333Y-52024819D02*
X79500000Y-51548628D01*
X79261905Y-52024819D02*
X79261905Y-51024819D01*
X79261905Y-51024819D02*
X79642857Y-51024819D01*
X79642857Y-51024819D02*
X79738095Y-51072438D01*
X79738095Y-51072438D02*
X79785714Y-51120057D01*
X79785714Y-51120057D02*
X79833333Y-51215295D01*
X79833333Y-51215295D02*
X79833333Y-51358152D01*
X79833333Y-51358152D02*
X79785714Y-51453390D01*
X79785714Y-51453390D02*
X79738095Y-51501009D01*
X79738095Y-51501009D02*
X79642857Y-51548628D01*
X79642857Y-51548628D02*
X79261905Y-51548628D01*
X80309524Y-52024819D02*
X80500000Y-52024819D01*
X80500000Y-52024819D02*
X80595238Y-51977200D01*
X80595238Y-51977200D02*
X80642857Y-51929580D01*
X80642857Y-51929580D02*
X80738095Y-51786723D01*
X80738095Y-51786723D02*
X80785714Y-51596247D01*
X80785714Y-51596247D02*
X80785714Y-51215295D01*
X80785714Y-51215295D02*
X80738095Y-51120057D01*
X80738095Y-51120057D02*
X80690476Y-51072438D01*
X80690476Y-51072438D02*
X80595238Y-51024819D01*
X80595238Y-51024819D02*
X80404762Y-51024819D01*
X80404762Y-51024819D02*
X80309524Y-51072438D01*
X80309524Y-51072438D02*
X80261905Y-51120057D01*
X80261905Y-51120057D02*
X80214286Y-51215295D01*
X80214286Y-51215295D02*
X80214286Y-51453390D01*
X80214286Y-51453390D02*
X80261905Y-51548628D01*
X80261905Y-51548628D02*
X80309524Y-51596247D01*
X80309524Y-51596247D02*
X80404762Y-51643866D01*
X80404762Y-51643866D02*
X80595238Y-51643866D01*
X80595238Y-51643866D02*
X80690476Y-51596247D01*
X80690476Y-51596247D02*
X80738095Y-51548628D01*
X80738095Y-51548628D02*
X80785714Y-51453390D01*
X67304761Y-68150057D02*
X67209523Y-68102438D01*
X67209523Y-68102438D02*
X67114285Y-68007200D01*
X67114285Y-68007200D02*
X66971428Y-67864342D01*
X66971428Y-67864342D02*
X66876190Y-67816723D01*
X66876190Y-67816723D02*
X66780952Y-67816723D01*
X66828571Y-68054819D02*
X66733333Y-68007200D01*
X66733333Y-68007200D02*
X66638095Y-67911961D01*
X66638095Y-67911961D02*
X66590476Y-67721485D01*
X66590476Y-67721485D02*
X66590476Y-67388152D01*
X66590476Y-67388152D02*
X66638095Y-67197676D01*
X66638095Y-67197676D02*
X66733333Y-67102438D01*
X66733333Y-67102438D02*
X66828571Y-67054819D01*
X66828571Y-67054819D02*
X67019047Y-67054819D01*
X67019047Y-67054819D02*
X67114285Y-67102438D01*
X67114285Y-67102438D02*
X67209523Y-67197676D01*
X67209523Y-67197676D02*
X67257142Y-67388152D01*
X67257142Y-67388152D02*
X67257142Y-67721485D01*
X67257142Y-67721485D02*
X67209523Y-67911961D01*
X67209523Y-67911961D02*
X67114285Y-68007200D01*
X67114285Y-68007200D02*
X67019047Y-68054819D01*
X67019047Y-68054819D02*
X66828571Y-68054819D01*
X67638095Y-67150057D02*
X67685714Y-67102438D01*
X67685714Y-67102438D02*
X67780952Y-67054819D01*
X67780952Y-67054819D02*
X68019047Y-67054819D01*
X68019047Y-67054819D02*
X68114285Y-67102438D01*
X68114285Y-67102438D02*
X68161904Y-67150057D01*
X68161904Y-67150057D02*
X68209523Y-67245295D01*
X68209523Y-67245295D02*
X68209523Y-67340533D01*
X68209523Y-67340533D02*
X68161904Y-67483390D01*
X68161904Y-67483390D02*
X67590476Y-68054819D01*
X67590476Y-68054819D02*
X68209523Y-68054819D01*
X67304761Y-64650057D02*
X67209523Y-64602438D01*
X67209523Y-64602438D02*
X67114285Y-64507200D01*
X67114285Y-64507200D02*
X66971428Y-64364342D01*
X66971428Y-64364342D02*
X66876190Y-64316723D01*
X66876190Y-64316723D02*
X66780952Y-64316723D01*
X66828571Y-64554819D02*
X66733333Y-64507200D01*
X66733333Y-64507200D02*
X66638095Y-64411961D01*
X66638095Y-64411961D02*
X66590476Y-64221485D01*
X66590476Y-64221485D02*
X66590476Y-63888152D01*
X66590476Y-63888152D02*
X66638095Y-63697676D01*
X66638095Y-63697676D02*
X66733333Y-63602438D01*
X66733333Y-63602438D02*
X66828571Y-63554819D01*
X66828571Y-63554819D02*
X67019047Y-63554819D01*
X67019047Y-63554819D02*
X67114285Y-63602438D01*
X67114285Y-63602438D02*
X67209523Y-63697676D01*
X67209523Y-63697676D02*
X67257142Y-63888152D01*
X67257142Y-63888152D02*
X67257142Y-64221485D01*
X67257142Y-64221485D02*
X67209523Y-64411961D01*
X67209523Y-64411961D02*
X67114285Y-64507200D01*
X67114285Y-64507200D02*
X67019047Y-64554819D01*
X67019047Y-64554819D02*
X66828571Y-64554819D01*
X68209523Y-64554819D02*
X67638095Y-64554819D01*
X67923809Y-64554819D02*
X67923809Y-63554819D01*
X67923809Y-63554819D02*
X67828571Y-63697676D01*
X67828571Y-63697676D02*
X67733333Y-63792914D01*
X67733333Y-63792914D02*
X67638095Y-63840533D01*
X58957142Y-88354819D02*
X58623809Y-87878628D01*
X58385714Y-88354819D02*
X58385714Y-87354819D01*
X58385714Y-87354819D02*
X58766666Y-87354819D01*
X58766666Y-87354819D02*
X58861904Y-87402438D01*
X58861904Y-87402438D02*
X58909523Y-87450057D01*
X58909523Y-87450057D02*
X58957142Y-87545295D01*
X58957142Y-87545295D02*
X58957142Y-87688152D01*
X58957142Y-87688152D02*
X58909523Y-87783390D01*
X58909523Y-87783390D02*
X58861904Y-87831009D01*
X58861904Y-87831009D02*
X58766666Y-87878628D01*
X58766666Y-87878628D02*
X58385714Y-87878628D01*
X59909523Y-88354819D02*
X59338095Y-88354819D01*
X59623809Y-88354819D02*
X59623809Y-87354819D01*
X59623809Y-87354819D02*
X59528571Y-87497676D01*
X59528571Y-87497676D02*
X59433333Y-87592914D01*
X59433333Y-87592914D02*
X59338095Y-87640533D01*
X60480952Y-87783390D02*
X60385714Y-87735771D01*
X60385714Y-87735771D02*
X60338095Y-87688152D01*
X60338095Y-87688152D02*
X60290476Y-87592914D01*
X60290476Y-87592914D02*
X60290476Y-87545295D01*
X60290476Y-87545295D02*
X60338095Y-87450057D01*
X60338095Y-87450057D02*
X60385714Y-87402438D01*
X60385714Y-87402438D02*
X60480952Y-87354819D01*
X60480952Y-87354819D02*
X60671428Y-87354819D01*
X60671428Y-87354819D02*
X60766666Y-87402438D01*
X60766666Y-87402438D02*
X60814285Y-87450057D01*
X60814285Y-87450057D02*
X60861904Y-87545295D01*
X60861904Y-87545295D02*
X60861904Y-87592914D01*
X60861904Y-87592914D02*
X60814285Y-87688152D01*
X60814285Y-87688152D02*
X60766666Y-87735771D01*
X60766666Y-87735771D02*
X60671428Y-87783390D01*
X60671428Y-87783390D02*
X60480952Y-87783390D01*
X60480952Y-87783390D02*
X60385714Y-87831009D01*
X60385714Y-87831009D02*
X60338095Y-87878628D01*
X60338095Y-87878628D02*
X60290476Y-87973866D01*
X60290476Y-87973866D02*
X60290476Y-88164342D01*
X60290476Y-88164342D02*
X60338095Y-88259580D01*
X60338095Y-88259580D02*
X60385714Y-88307200D01*
X60385714Y-88307200D02*
X60480952Y-88354819D01*
X60480952Y-88354819D02*
X60671428Y-88354819D01*
X60671428Y-88354819D02*
X60766666Y-88307200D01*
X60766666Y-88307200D02*
X60814285Y-88259580D01*
X60814285Y-88259580D02*
X60861904Y-88164342D01*
X60861904Y-88164342D02*
X60861904Y-87973866D01*
X60861904Y-87973866D02*
X60814285Y-87878628D01*
X60814285Y-87878628D02*
X60766666Y-87831009D01*
X60766666Y-87831009D02*
X60671428Y-87783390D01*
X83333333Y-84454819D02*
X83000000Y-83978628D01*
X82761905Y-84454819D02*
X82761905Y-83454819D01*
X82761905Y-83454819D02*
X83142857Y-83454819D01*
X83142857Y-83454819D02*
X83238095Y-83502438D01*
X83238095Y-83502438D02*
X83285714Y-83550057D01*
X83285714Y-83550057D02*
X83333333Y-83645295D01*
X83333333Y-83645295D02*
X83333333Y-83788152D01*
X83333333Y-83788152D02*
X83285714Y-83883390D01*
X83285714Y-83883390D02*
X83238095Y-83931009D01*
X83238095Y-83931009D02*
X83142857Y-83978628D01*
X83142857Y-83978628D02*
X82761905Y-83978628D01*
X83904762Y-83883390D02*
X83809524Y-83835771D01*
X83809524Y-83835771D02*
X83761905Y-83788152D01*
X83761905Y-83788152D02*
X83714286Y-83692914D01*
X83714286Y-83692914D02*
X83714286Y-83645295D01*
X83714286Y-83645295D02*
X83761905Y-83550057D01*
X83761905Y-83550057D02*
X83809524Y-83502438D01*
X83809524Y-83502438D02*
X83904762Y-83454819D01*
X83904762Y-83454819D02*
X84095238Y-83454819D01*
X84095238Y-83454819D02*
X84190476Y-83502438D01*
X84190476Y-83502438D02*
X84238095Y-83550057D01*
X84238095Y-83550057D02*
X84285714Y-83645295D01*
X84285714Y-83645295D02*
X84285714Y-83692914D01*
X84285714Y-83692914D02*
X84238095Y-83788152D01*
X84238095Y-83788152D02*
X84190476Y-83835771D01*
X84190476Y-83835771D02*
X84095238Y-83883390D01*
X84095238Y-83883390D02*
X83904762Y-83883390D01*
X83904762Y-83883390D02*
X83809524Y-83931009D01*
X83809524Y-83931009D02*
X83761905Y-83978628D01*
X83761905Y-83978628D02*
X83714286Y-84073866D01*
X83714286Y-84073866D02*
X83714286Y-84264342D01*
X83714286Y-84264342D02*
X83761905Y-84359580D01*
X83761905Y-84359580D02*
X83809524Y-84407200D01*
X83809524Y-84407200D02*
X83904762Y-84454819D01*
X83904762Y-84454819D02*
X84095238Y-84454819D01*
X84095238Y-84454819D02*
X84190476Y-84407200D01*
X84190476Y-84407200D02*
X84238095Y-84359580D01*
X84238095Y-84359580D02*
X84285714Y-84264342D01*
X84285714Y-84264342D02*
X84285714Y-84073866D01*
X84285714Y-84073866D02*
X84238095Y-83978628D01*
X84238095Y-83978628D02*
X84190476Y-83931009D01*
X84190476Y-83931009D02*
X84095238Y-83883390D01*
X76733333Y-79359580D02*
X76685714Y-79407200D01*
X76685714Y-79407200D02*
X76542857Y-79454819D01*
X76542857Y-79454819D02*
X76447619Y-79454819D01*
X76447619Y-79454819D02*
X76304762Y-79407200D01*
X76304762Y-79407200D02*
X76209524Y-79311961D01*
X76209524Y-79311961D02*
X76161905Y-79216723D01*
X76161905Y-79216723D02*
X76114286Y-79026247D01*
X76114286Y-79026247D02*
X76114286Y-78883390D01*
X76114286Y-78883390D02*
X76161905Y-78692914D01*
X76161905Y-78692914D02*
X76209524Y-78597676D01*
X76209524Y-78597676D02*
X76304762Y-78502438D01*
X76304762Y-78502438D02*
X76447619Y-78454819D01*
X76447619Y-78454819D02*
X76542857Y-78454819D01*
X76542857Y-78454819D02*
X76685714Y-78502438D01*
X76685714Y-78502438D02*
X76733333Y-78550057D01*
X77590476Y-78454819D02*
X77400000Y-78454819D01*
X77400000Y-78454819D02*
X77304762Y-78502438D01*
X77304762Y-78502438D02*
X77257143Y-78550057D01*
X77257143Y-78550057D02*
X77161905Y-78692914D01*
X77161905Y-78692914D02*
X77114286Y-78883390D01*
X77114286Y-78883390D02*
X77114286Y-79264342D01*
X77114286Y-79264342D02*
X77161905Y-79359580D01*
X77161905Y-79359580D02*
X77209524Y-79407200D01*
X77209524Y-79407200D02*
X77304762Y-79454819D01*
X77304762Y-79454819D02*
X77495238Y-79454819D01*
X77495238Y-79454819D02*
X77590476Y-79407200D01*
X77590476Y-79407200D02*
X77638095Y-79359580D01*
X77638095Y-79359580D02*
X77685714Y-79264342D01*
X77685714Y-79264342D02*
X77685714Y-79026247D01*
X77685714Y-79026247D02*
X77638095Y-78931009D01*
X77638095Y-78931009D02*
X77590476Y-78883390D01*
X77590476Y-78883390D02*
X77495238Y-78835771D01*
X77495238Y-78835771D02*
X77304762Y-78835771D01*
X77304762Y-78835771D02*
X77209524Y-78883390D01*
X77209524Y-78883390D02*
X77161905Y-78931009D01*
X77161905Y-78931009D02*
X77114286Y-79026247D01*
D14*
%TO.C,R5*%
X80754724Y-75977500D02*
X80245276Y-75977500D01*
X80754724Y-77022500D02*
X80245276Y-77022500D01*
%TO.C,C8*%
X74146267Y-83490000D02*
X73853733Y-83490000D01*
X74146267Y-84510000D02*
X73853733Y-84510000D01*
%TO.C,R16*%
X56604724Y-82352500D02*
X56095276Y-82352500D01*
X56604724Y-83397500D02*
X56095276Y-83397500D01*
%TO.C,Q3*%
X63590000Y-68815000D02*
X65110000Y-68815000D01*
X63590000Y-69815000D02*
X63590000Y-68815000D01*
X63590000Y-71935000D02*
X63590000Y-70935000D01*
X65110000Y-68815000D02*
X65110000Y-68865000D01*
X65110000Y-69985000D02*
X65110000Y-70765000D01*
X65110000Y-71885000D02*
X65110000Y-71935000D01*
X65110000Y-71935000D02*
X63590000Y-71935000D01*
X65650000Y-70755000D02*
X65410000Y-70425000D01*
X65890000Y-70425000D01*
X65650000Y-70755000D01*
G36*
X65650000Y-70755000D02*
G01*
X65410000Y-70425000D01*
X65890000Y-70425000D01*
X65650000Y-70755000D01*
G37*
%TO.C,R4*%
X80754724Y-73477500D02*
X80245276Y-73477500D01*
X80754724Y-74522500D02*
X80245276Y-74522500D01*
%TO.C,Q4*%
X63590000Y-72315000D02*
X65110000Y-72315000D01*
X63590000Y-73315000D02*
X63590000Y-72315000D01*
X63590000Y-75435000D02*
X63590000Y-74435000D01*
X65110000Y-72315000D02*
X65110000Y-72365000D01*
X65110000Y-73485000D02*
X65110000Y-74265000D01*
X65110000Y-75385000D02*
X65110000Y-75435000D01*
X65110000Y-75435000D02*
X63590000Y-75435000D01*
X65650000Y-74255000D02*
X65410000Y-73925000D01*
X65890000Y-73925000D01*
X65650000Y-74255000D01*
G36*
X65650000Y-74255000D02*
G01*
X65410000Y-73925000D01*
X65890000Y-73925000D01*
X65650000Y-74255000D01*
G37*
%TO.C,R15*%
X56604724Y-79852500D02*
X56095276Y-79852500D01*
X56604724Y-80897500D02*
X56095276Y-80897500D01*
%TO.C,Q5*%
X63590000Y-75815000D02*
X65110000Y-75815000D01*
X63590000Y-76815000D02*
X63590000Y-75815000D01*
X63590000Y-78935000D02*
X63590000Y-77935000D01*
X65110000Y-75815000D02*
X65110000Y-75865000D01*
X65110000Y-76985000D02*
X65110000Y-77765000D01*
X65110000Y-78885000D02*
X65110000Y-78935000D01*
X65110000Y-78935000D02*
X63590000Y-78935000D01*
X65650000Y-77755000D02*
X65410000Y-77425000D01*
X65890000Y-77425000D01*
X65650000Y-77755000D01*
G36*
X65650000Y-77755000D02*
G01*
X65410000Y-77425000D01*
X65890000Y-77425000D01*
X65650000Y-77755000D01*
G37*
%TO.C,J3*%
X127670000Y-75310000D02*
X127670000Y-65090000D01*
X127670000Y-77910000D02*
X127670000Y-76580000D01*
X129000000Y-77910000D02*
X127670000Y-77910000D01*
X130330000Y-65090000D02*
X127670000Y-65090000D01*
X130330000Y-75310000D02*
X127670000Y-75310000D01*
X130330000Y-75310000D02*
X130330000Y-65090000D01*
%TO.C,R6*%
X80754724Y-78477500D02*
X80245276Y-78477500D01*
X80754724Y-79522500D02*
X80245276Y-79522500D01*
%TO.C,R3*%
X80754724Y-70977500D02*
X80245276Y-70977500D01*
X80754724Y-72022500D02*
X80245276Y-72022500D01*
%TO.C,R7*%
X80754724Y-80977500D02*
X80245276Y-80977500D01*
X80754724Y-82022500D02*
X80245276Y-82022500D01*
%TO.C,R1*%
X80667224Y-65977500D02*
X80157776Y-65977500D01*
X80667224Y-67022500D02*
X80157776Y-67022500D01*
%TO.C,C1*%
X74146267Y-65990000D02*
X73853733Y-65990000D01*
X74146267Y-67010000D02*
X73853733Y-67010000D01*
%TO.C,R14*%
X56604724Y-71352500D02*
X56095276Y-71352500D01*
X56604724Y-72397500D02*
X56095276Y-72397500D01*
%TO.C,J1*%
X46940000Y-62035000D02*
X46940000Y-72965000D01*
X49760000Y-60765000D02*
X51210000Y-60765000D01*
X49760000Y-74235000D02*
X51210000Y-74235000D01*
X51210000Y-60765000D02*
X51210000Y-62565000D01*
X51210000Y-62565000D02*
X52200000Y-62565000D01*
X51210000Y-74235000D02*
X51210000Y-72435000D01*
%TO.C,C9*%
X87490000Y-88283767D02*
X87490000Y-87991233D01*
X88510000Y-88283767D02*
X88510000Y-87991233D01*
%TO.C,R13*%
X56604724Y-68852500D02*
X56095276Y-68852500D01*
X56604724Y-69897500D02*
X56095276Y-69897500D01*
D13*
%TO.C,TP1*%
X121660000Y-85895000D02*
X126740000Y-85895000D01*
X121660000Y-89705000D02*
X121660000Y-85895000D01*
X126740000Y-85895000D02*
X126740000Y-89705000D01*
X126740000Y-89705000D02*
X121660000Y-89705000D01*
%TO.C,TP3*%
X77760000Y-86395000D02*
X82840000Y-86395000D01*
X77760000Y-90205000D02*
X77760000Y-86395000D01*
X82840000Y-86395000D02*
X82840000Y-90205000D01*
X82840000Y-90205000D02*
X77760000Y-90205000D01*
D14*
%TO.C,R2*%
X80754724Y-68477500D02*
X80245276Y-68477500D01*
X80754724Y-69522500D02*
X80245276Y-69522500D01*
%TO.C,R12*%
X56604724Y-66352500D02*
X56095276Y-66352500D01*
X56604724Y-67397500D02*
X56095276Y-67397500D01*
%TO.C,J2*%
X46940000Y-78035000D02*
X46940000Y-88965000D01*
X49760000Y-76765000D02*
X51210000Y-76765000D01*
X49760000Y-90235000D02*
X51210000Y-90235000D01*
X51210000Y-76765000D02*
X51210000Y-78565000D01*
X51210000Y-78565000D02*
X52200000Y-78565000D01*
X51210000Y-90235000D02*
X51210000Y-88435000D01*
%TO.C,Q6*%
X63590000Y-79315000D02*
X65110000Y-79315000D01*
X63590000Y-80315000D02*
X63590000Y-79315000D01*
X63590000Y-82435000D02*
X63590000Y-81435000D01*
X65110000Y-79315000D02*
X65110000Y-79365000D01*
X65110000Y-80485000D02*
X65110000Y-81265000D01*
X65110000Y-82385000D02*
X65110000Y-82435000D01*
X65110000Y-82435000D02*
X63590000Y-82435000D01*
X65650000Y-81255000D02*
X65410000Y-80925000D01*
X65890000Y-80925000D01*
X65650000Y-81255000D01*
G36*
X65650000Y-81255000D02*
G01*
X65410000Y-80925000D01*
X65890000Y-80925000D01*
X65650000Y-81255000D01*
G37*
%TO.C,C5*%
X74146267Y-75990000D02*
X73853733Y-75990000D01*
X74146267Y-77010000D02*
X73853733Y-77010000D01*
%TO.C,C4*%
X74146267Y-73490000D02*
X73853733Y-73490000D01*
X74146267Y-74510000D02*
X73853733Y-74510000D01*
%TO.C,C3*%
X74146267Y-70990000D02*
X73853733Y-70990000D01*
X74146267Y-72010000D02*
X73853733Y-72010000D01*
D13*
%TO.C,TP2*%
X77760000Y-91595000D02*
X82840000Y-91595000D01*
X77760000Y-95405000D02*
X77760000Y-91595000D01*
X82840000Y-91595000D02*
X82840000Y-95405000D01*
X82840000Y-95405000D02*
X77760000Y-95405000D01*
D14*
%TO.C,R11*%
X56604724Y-63852500D02*
X56095276Y-63852500D01*
X56604724Y-64897500D02*
X56095276Y-64897500D01*
%TO.C,U2*%
X108810000Y-100170000D02*
X101190000Y-100170000D01*
X101190000Y-98874600D01*
X108810000Y-98874600D01*
X108810000Y-100170000D01*
X118970000Y-98900000D02*
X91030000Y-98900000D01*
X91030000Y-48100000D01*
X118970000Y-48100000D01*
X118970000Y-98900000D01*
%TO.C,C7*%
X74146267Y-80990000D02*
X73853733Y-80990000D01*
X74146267Y-82010000D02*
X73853733Y-82010000D01*
%TO.C,C10*%
X79853733Y-55490000D02*
X80146267Y-55490000D01*
X79853733Y-56510000D02*
X80146267Y-56510000D01*
%TO.C,Q7*%
X63590000Y-82815000D02*
X65110000Y-82815000D01*
X63590000Y-83815000D02*
X63590000Y-82815000D01*
X63590000Y-85935000D02*
X63590000Y-84935000D01*
X65110000Y-82815000D02*
X65110000Y-82865000D01*
X65110000Y-83985000D02*
X65110000Y-84765000D01*
X65110000Y-85885000D02*
X65110000Y-85935000D01*
X65110000Y-85935000D02*
X63590000Y-85935000D01*
X65650000Y-84755000D02*
X65410000Y-84425000D01*
X65890000Y-84425000D01*
X65650000Y-84755000D01*
G36*
X65650000Y-84755000D02*
G01*
X65410000Y-84425000D01*
X65890000Y-84425000D01*
X65650000Y-84755000D01*
G37*
%TO.C,Q8*%
X63590000Y-86315000D02*
X65110000Y-86315000D01*
X63590000Y-87315000D02*
X63590000Y-86315000D01*
X63590000Y-89435000D02*
X63590000Y-88435000D01*
X65110000Y-86315000D02*
X65110000Y-86365000D01*
X65110000Y-87485000D02*
X65110000Y-88265000D01*
X65110000Y-89385000D02*
X65110000Y-89435000D01*
X65110000Y-89435000D02*
X63590000Y-89435000D01*
X65650000Y-88255000D02*
X65410000Y-87925000D01*
X65890000Y-87925000D01*
X65650000Y-88255000D01*
G36*
X65650000Y-88255000D02*
G01*
X65410000Y-87925000D01*
X65890000Y-87925000D01*
X65650000Y-88255000D01*
G37*
%TO.C,R10*%
X74900000Y-52400000D02*
X72100000Y-52400000D01*
X74900000Y-56600000D02*
X72100000Y-56600000D01*
X72100000Y-56600000D02*
G75*
G02*
X72113963Y-52390758I1400000J2100000D01*
G01*
X74900000Y-52400000D02*
G75*
G02*
X74886037Y-56609242I-1400000J-2100000D01*
G01*
%TO.C,C2*%
X74146267Y-68490000D02*
X73853733Y-68490000D01*
X74146267Y-69510000D02*
X73853733Y-69510000D01*
%TO.C,R17*%
X56604724Y-84852500D02*
X56095276Y-84852500D01*
X56604724Y-85897500D02*
X56095276Y-85897500D01*
%TO.C,R9*%
X79745276Y-52477500D02*
X80254724Y-52477500D01*
X79745276Y-53522500D02*
X80254724Y-53522500D01*
%TO.C,Q2*%
X63590000Y-65315000D02*
X65110000Y-65315000D01*
X63590000Y-66315000D02*
X63590000Y-65315000D01*
X63590000Y-68435000D02*
X63590000Y-67435000D01*
X65110000Y-65315000D02*
X65110000Y-65365000D01*
X65110000Y-66485000D02*
X65110000Y-67265000D01*
X65110000Y-68385000D02*
X65110000Y-68435000D01*
X65110000Y-68435000D02*
X63590000Y-68435000D01*
X65650000Y-67255000D02*
X65410000Y-66925000D01*
X65890000Y-66925000D01*
X65650000Y-67255000D01*
G36*
X65650000Y-67255000D02*
G01*
X65410000Y-66925000D01*
X65890000Y-66925000D01*
X65650000Y-67255000D01*
G37*
%TO.C,Q1*%
X63590000Y-61815000D02*
X65110000Y-61815000D01*
X63590000Y-62815000D02*
X63590000Y-61815000D01*
X63590000Y-64935000D02*
X63590000Y-63935000D01*
X65110000Y-61815000D02*
X65110000Y-61865000D01*
X65110000Y-62985000D02*
X65110000Y-63765000D01*
X65110000Y-64885000D02*
X65110000Y-64935000D01*
X65110000Y-64935000D02*
X63590000Y-64935000D01*
X65650000Y-63755000D02*
X65410000Y-63425000D01*
X65890000Y-63425000D01*
X65650000Y-63755000D01*
G36*
X65650000Y-63755000D02*
G01*
X65410000Y-63425000D01*
X65890000Y-63425000D01*
X65650000Y-63755000D01*
G37*
%TO.C,R18*%
X56604724Y-87352500D02*
X56095276Y-87352500D01*
X56604724Y-88397500D02*
X56095276Y-88397500D01*
%TO.C,R8*%
X80754724Y-83477500D02*
X80245276Y-83477500D01*
X80754724Y-84522500D02*
X80245276Y-84522500D01*
%TO.C,C6*%
X74146267Y-78490000D02*
X73853733Y-78490000D01*
X74146267Y-79510000D02*
X73853733Y-79510000D01*
%TD*%
M02*
