M48
; DRILL file {KiCad 9.0.7} date 2026-02-09T12:59:21-0500
; FORMAT={-:-/ absolute / metric / decimal}
; #@! TF.CreationDate,2026-02-09T12:59:21-05:00
; #@! TF.GenerationSoftware,Kicad,Pcbnew,9.0.7
; #@! TF.FileFunction,Plated,1,2,PTH
FMAT,2
METRIC
; #@! TA.AperFunction,Plated,PTH,ViaDrill
T1C0.300
; #@! TA.AperFunction,Plated,PTH,ComponentDrill
T2C0.762
; #@! TA.AperFunction,Plated,PTH,ComponentDrill
T3C0.800
; #@! TA.AperFunction,Plated,PTH,ComponentDrill
T4C1.000
%
G90
G05
T1
X67.0Y-62.4
X67.0Y-66.0
X67.0Y-69.4
X67.0Y-73.0
X67.0Y-76.4
X67.0Y-80.0
X67.0Y-83.4
X67.0Y-87.0
X71.5Y-66.5
X71.5Y-69.0
X71.5Y-71.5
X71.5Y-74.0
X71.5Y-76.5
X71.5Y-79.0
X71.5Y-81.5
X71.5Y-84.0
X76.2Y-86.835
X82.5Y-56.0
T2
X92.3Y-53.815
X92.3Y-56.355
X92.3Y-58.895
X92.3Y-61.435
X92.3Y-63.975
X92.3Y-66.515
X92.3Y-69.055
X92.3Y-71.595
X92.3Y-74.135
X92.3Y-76.675
X92.3Y-79.215
X92.3Y-81.755
X92.3Y-84.295
X92.3Y-86.835
X92.3Y-89.375
X117.7Y-53.815
X117.7Y-56.355
X117.7Y-58.895
X117.7Y-61.435
X117.7Y-63.975
X117.7Y-66.515
X117.7Y-69.055
X117.7Y-71.595
X117.7Y-74.135
X117.7Y-76.675
X117.7Y-79.215
X117.7Y-81.755
X117.7Y-84.295
X117.7Y-86.835
X117.7Y-89.375
T3
X72.0Y-54.5
X75.0Y-54.5
T4
X129.0Y-66.42
X129.0Y-68.96
X129.0Y-71.5
X129.0Y-74.04
X129.0Y-76.58
M30
